0
SECTION
2
HEADER
9
$INSUNITS
70
4
9
$ACADVER
1
AC1014
9
$HANDSEED
5
FFFF
0
ENDSEC
0
SECTION
2
TABLES
0
TABLE
2
VPORT
5
8
100
AcDbSymbolTable
0
ENDTAB
0
TABLE
2
LTYPE
5
5
100
AcDbSymbolTable
0
LTYPE
5
14
100
AcDbSymbolTableRecord
100
AcDbLinetypeTableRecord
2
BYBLOCK
70
0
0
LTYPE
5
15
100
AcDbSymbolTableRecord
100
AcDbLinetypeTableRecord
2
BYLAYER
70
0
0
ENDTAB
0
TABLE
2
LAYER
5
2
100
AcDbSymbolTable
70
2
0
LAYER
5
50
100
AcDbSymbolTableRecord
100
AcDbLayerTableRecord
2
0
70
0
6
CONTINUOUS
0
ENDTAB
0
TABLE
2
STYLE
5
3
100
AcDbSymbolTable
70
1
0
STYLE
5
11
100
AcDbSymbolTableRecord
100
AcDbTextStyleTableRecord
2
STANDARD
70
0
0
ENDTAB
0
TABLE
2
VIEW
5
6
100
AcDbSymbolTable
70
0
0
ENDTAB
0
TABLE
2
UCS
5
7
100
AcDbSymbolTable
70
0
0
ENDTAB
0
TABLE
2
APPID
5
9
100
AcDbSymbolTable
70
2
0
APPID
5
12
100
AcDbSymbolTableRecord
100
AcDbRegAppTableRecord
2
ACAD
70
0
0
ENDTAB
0
TABLE
2
DIMSTYLE
5
A
100
AcDbSymbolTable
70
1
0
ENDTAB
0
TABLE
2
BLOCK_RECORD
5
1
100
AcDbSymbolTable
70
1
0
BLOCK_RECORD
5
1F
100
AcDbSymbolTableRecord
100
AcDbBlockTableRecord
2
*MODEL_SPACE
0
BLOCK_RECORD
5
1B
100
AcDbSymbolTableRecord
100
AcDbBlockTableRecord
2
*PAPER_SPACE
0
ENDTAB
0
ENDSEC
0
SECTION
2
BLOCKS
0
BLOCK
5
20
100
AcDbEntity
100
AcDbBlockBegin
2
*MODEL_SPACE
0
ENDBLK
5
21
100
AcDbEntity
100
AcDbBlockEnd
0
BLOCK
5
1C
100
AcDbEntity
100
AcDbBlockBegin
2
*PAPER_SPACE
0
ENDBLK
5
1D
100
AcDbEntity
100
AcDbBlockEnd
0
ENDSEC
0
SECTION
2
ENTITIES
0
CIRCLE
5
100
100
AcDbEntity
8
0
100
AcDbCircle
10
-50.406470470284653
20
51.287391164847193
30
0
40
2.7499999999999991
210
0
220
0
230
1
0
CIRCLE
5
101
100
AcDbEntity
8
0
100
AcDbCircle
10
5.4785295297153489
20
32.379877533847022
30
0
40
2
210
0
220
0
230
1
0
CIRCLE
5
102
100
AcDbEntity
8
0
100
AcDbCircle
10
5.4785295297152983
20
-87.620122466152964
30
0
40
1.9999999999999962
210
0
220
0
230
1
0
CIRCLE
5
103
100
AcDbEntity
8
0
100
AcDbCircle
10
141.36352952971529
20
-120.1626088351528
30
0
40
2.75
210
0
220
0
230
1
0
CIRCLE
5
104
100
AcDbEntity
8
0
100
AcDbCircle
10
141.36352952971529
20
51.287391164847193
30
0
40
2.750000000000004
210
0
220
0
230
1
0
CIRCLE
5
105
100
AcDbEntity
8
0
100
AcDbCircle
10
85.478529529715303
20
32.379877533846965
30
0
40
2
210
0
220
0
230
1
0
CIRCLE
5
106
100
AcDbEntity
8
0
100
AcDbCircle
10
-50.406470470284653
20
-120.1626088351528
30
0
40
2.75
210
0
220
0
230
1
0
CIRCLE
5
107
100
AcDbEntity
8
0
100
AcDbCircle
10
85.478529529715303
20
-87.620122466152964
30
0
40
2
210
0
220
0
230
1
0
LWPOLYLINE
5
108
100
AcDbEntity
8
0
100
AcDbPolyline
90
40
70
1
43
0.0
10
-34.492515647942163
20
83.717108652039954
42
-0.42552688432956676
10
-39.165592571042289
20
79.220438286237027
42
0.42552688432453106
10
-41.242515647958875
20
77.221918123639938
10
-41.24251564794217
20
71.71710865203994
42
-0.87697646299673937
10
-50.580663322826283
20
70.487718187844251
10
-51.450702001742172
20
73.734746742239963
42
0.3394542588648527
10
-53.382553654342146
20
75.21710865205975
10
-54.49251564794217
20
75.217108652039968
10
-58.492515647942156
20
73.217108652039954
10
-58.492515647942156
20
-154.78289134796006
10
-54.49251564794217
20
-156.78289134796006
10
-53.382553654342146
20
-156.78289134796009
42
0.33945425886483432
10
-51.450702001761321
20
-155.30052943815494
10
-50.58066332284217
20
-152.05350088376005
42
-0.87697646299673537
10
-41.242515647942156
20
-153.28289134796006
10
-41.242515647942177
20
-158.78770081956006
42
0.42552688432452868
10
-39.165592571042907
20
-160.78622098214043
42
-0.42552688432956759
10
-34.49251564794217
20
-165.28289134796006
10
-34.49251564794217
20
-165.78289134796006
10
167.50748435205787
20
-165.78289134796
10
167.5074843520579
20
-165.28289134796006
42
-0.42552688432956443
10
172.18056127515797
20
-160.78622098215715
42
0.42552688432453106
10
174.25748435207453
20
-158.78770081956003
10
174.25748435205787
20
-153.28289134796006
42
-0.87697646299673937
10
183.59563202694198
20
-152.05350088376437
10
184.46567070585786
20
-155.30052943816005
42
0.3394542588648527
10
186.39752235845782
20
-156.78289134797984
10
187.50748435205787
20
-156.78289134796006
10
191.50748435205784
20
-154.78289134796006
10
191.50748435205784
20
73.217108652039954
10
187.50748435205787
20
75.217108652039968
10
186.39752235845782
20
75.217108652039954
42
0.33945425886483122
10
184.46567070587705
20
73.734746742234847
10
183.5956320269579
20
70.48771818783996
42
-0.8769764629967356
10
174.25748435205787
20
71.71710865203994
10
174.25748435205787
20
77.221918123639952
42
0.42552688432452873
10
172.18056127515862
20
79.220438286220357
42
-0.42552688432956987
10
167.50748435205787
20
83.717108652039954
10
167.50748435205787
20
84.21710865203994
10
-34.49251564794217
20
84.21710865203994
0
ENDSEC
0
SECTION
2
OBJECTS
0
DICTIONARY
5
C
100
AcDbDictionary
3
ACAD_GROUP
350
D
3
ACAD_MLINESTYLE
350
17
0
DICTIONARY
5
D
100
AcDbDictionary
0
DICTIONARY
5
1A
330
C
100
AcDbDictionary
0
DICTIONARY
5
17
100
AcDbDictionary
0
ENDSEC
0
EOF
