<?xml version="1.0" encoding="UTF-8" standalone="no"?>
<svg
   viewBox="0 0 793.7007874015749 1122.5196850393702"
   width="793.7007874015749"
   height="1122.5196850393702"
   version="1.1"
   id="svg10657"
   sodipodi:docname="baseplate.svg"
   inkscape:version="1.2 (dc2aedaf03, 2022-05-15)"
   xmlns:inkscape="http://www.inkscape.org/namespaces/inkscape"
   xmlns:sodipodi="http://sodipodi.sourceforge.net/DTD/sodipodi-0.dtd"
   xmlns="http://www.w3.org/2000/svg"
   xmlns:svg="http://www.w3.org/2000/svg">
  <sodipodi:namedview
     id="namedview10659"
     pagecolor="#ffffff"
     bordercolor="#000000"
     borderopacity="0.25"
     inkscape:showpageshadow="2"
     inkscape:pageopacity="0.0"
     inkscape:pagecheckerboard="0"
     inkscape:deskcolor="#d1d1d1"
     showgrid="false"
     inkscape:zoom="0.74564396"
     inkscape:cx="396.9723"
     inkscape:cy="561.93039"
     inkscape:window-width="1920"
     inkscape:window-height="1017"
     inkscape:window-x="-8"
     inkscape:window-y="-8"
     inkscape:window-maximized="1"
     inkscape:current-layer="g10655" />
  <desc
     id="desc10621">baseplate.dxf - scale = 1.000000, origin = (0.000000, 0.000000), method = manual</desc>
  <defs
     id="defs10635">
    <marker
       id="DistanceX"
       orient="auto"
       refX="0.0"
       refY="0.0"
       style="overflow:visible">
      <path
         d="M 3,-3 L -3,3 M 0,-5 L  0,5"
         style="stroke:#000000; stroke-width:0.5"
         id="path10623" />
    </marker>
    <pattern
       id="Hatch"
       patternUnits="userSpaceOnUse"
       width="8"
       height="8"
       x="0"
       y="0">
      <path
         d="M8 4 l-4,4"
         stroke="#000000"
         stroke-width="0.25"
         linecap="square"
         id="path10626" />
      <path
         d="M6 2 l-4,4"
         stroke="#000000"
         stroke-width="0.25"
         linecap="square"
         id="path10628" />
      <path
         d="M4 0 l-4,4"
         stroke="#000000"
         stroke-width="0.25"
         linecap="square"
         id="path10630" />
    </pattern>
    <symbol
       id="*MODEL_SPACE" />
    <symbol
       id="*PAPER_SPACE" />
  </defs>
  <g
     inkscape:groupmode="layer"
     inkscape:label="0"
     id="g10655">
    <path
       d="M -180.118944,928.677577 A 10.393701,10.393701 0.000000 0, 0 -200.906345,928.677577 A 10.393701,10.393701 0.000000 0, 0 -180.118944,928.677577 z"
       style="fill:none;stroke:#000000"
       id="path10637" />
    <path
       d="M 28.265308,1000.139046 A 7.559055,7.559055 0.000000 0, 0 13.147198,1000.139046 A 7.559055,7.559055 0.000000 0, 0 28.265308,1000.139046 z"
       style="fill:none;stroke:#000000"
       id="path10639" />
    <path
       d="M 28.265308,1453.682353 A 7.559055,7.559055 0.000000 0, 0 13.147198,1453.682353 A 7.559055,7.559055 0.000000 0, 0 28.265308,1453.682353 z"
       style="fill:none;stroke:#000000"
       id="path10641" />
    <path
       d="M 544.681056,1576.677577 A 10.393701,10.393701 0.000000 0, 0 523.893655,1576.677577 A 10.393701,10.393701 0.000000 0, 0 544.681056,1576.677577 z"
       style="fill:none;stroke:#000000"
       id="path10643" />
    <path
       d="M 544.681056,928.677577 A 10.393701,10.393701 0.000000 0, 0 523.893655,928.677577 A 10.393701,10.393701 0.000000 0, 0 544.681056,928.677577 z"
       style="fill:none;stroke:#000000"
       id="path10645" />
    <path
       d="M 330.627513,1000.139046 A 7.559055,7.559055 0.000000 0, 0 315.509403,1000.139046 A 7.559055,7.559055 0.000000 0, 0 330.627513,1000.139046 z"
       style="fill:none;stroke:#000000"
       id="path10647" />
    <path
       d="M -180.118944,1576.677577 A 10.393701,10.393701 0.000000 0, 0 -200.906345,1576.677577 A 10.393701,10.393701 0.000000 0, 0 -180.118944,1576.677577 z"
       style="fill:none;stroke:#000000"
       id="path10649" />
    <path
       d="M 330.627513,1453.682353 A 7.559055,7.559055 0.000000 0, 0 315.509403,1453.682353 A 7.559055,7.559055 0.000000 0, 0 330.627513,1453.682353 z"
       style="fill:none;stroke:#000000"
       id="path10651" />
    <path
       d="M -130.365413,806.108566 A 17.007874,17.007874 0.0 0 1 -148.027436,823.103855 A 7.559055,7.559055 0.0 0 0 -155.877224,830.657317 L -155.877224,851.462896 A 17.952756,17.952756 0.0 0 1 -191.171011,856.109412 L -194.459346,843.837178 A 7.559055,7.559055 0.0 0 0 -201.760833,838.234550 L -205.955965,838.234550 L -221.074075,845.793605 L -221.074075,1707.525889 L -205.955965,1715.084944 L -201.760833,1715.084944 A 7.559055,7.559055 0.0 0 0 -194.459346,1709.482316 L -191.171011,1697.210082 A 17.952756,17.952756 0.0 0 1 -155.877224,1701.856597 L -155.877224,1722.662176 A 7.559055,7.559055 0.0 0 0 -148.027436,1730.215638 A 17.007874,17.007874 0.0 0 1 -130.365413,1747.210928 L -130.365413,1749.100692 L 633.099153,1749.100692 L 633.099153,1747.210928 A 17.007874,17.007874 0.0 0 1 650.761176,1730.215638 A 7.559055,7.559055 0.0 0 0 658.610964,1722.662176 L 658.610964,1701.856597 A 17.952756,17.952756 0.0 0 1 693.904751,1697.210082 L 697.193086,1709.482316 A 7.559055,7.559055 0.0 0 0 704.494573,1715.084944 L 708.689705,1715.084944 L 723.807815,1707.525889 L 723.807815,845.793605 L 708.689705,838.234550 L 704.494573,838.234550 A 7.559055,7.559055 0.0 0 0 697.193086,843.837178 L 693.904751,856.109412 A 17.952756,17.952756 0.0 0 1 658.610964,851.462896 L 658.610964,830.657317 A 7.559055,7.559055 0.0 0 0 650.761176,823.103855 A 17.007874,17.007874 0.0 0 1 633.099153,806.108566 L 633.099153,804.218802 L -130.365413,804.218802 L -130.365413,806.108566 z"
       style="fill:none;stroke:#000000"
       id="path10653" />
  </g>
</svg>
