0
SECTION
2
HEADER
9
$INSUNITS
70
4
9
$ACADVER
1
AC1014
9
$HANDSEED
5
FFFF
0
ENDSEC
0
SECTION
2
TABLES
0
TABLE
2
VPORT
5
8
100
AcDbSymbolTable
0
ENDTAB
0
TABLE
2
LTYPE
5
5
100
AcDbSymbolTable
0
LTYPE
5
14
100
AcDbSymbolTableRecord
100
AcDbLinetypeTableRecord
2
BYBLOCK
70
0
0
LTYPE
5
15
100
AcDbSymbolTableRecord
100
AcDbLinetypeTableRecord
2
BYLAYER
70
0
0
ENDTAB
0
TABLE
2
LAYER
5
2
100
AcDbSymbolTable
70
2
0
LAYER
5
50
100
AcDbSymbolTableRecord
100
AcDbLayerTableRecord
2
0
70
0
6
CONTINUOUS
0
ENDTAB
0
TABLE
2
STYLE
5
3
100
AcDbSymbolTable
70
1
0
STYLE
5
11
100
AcDbSymbolTableRecord
100
AcDbTextStyleTableRecord
2
STANDARD
70
0
0
ENDTAB
0
TABLE
2
VIEW
5
6
100
AcDbSymbolTable
70
0
0
ENDTAB
0
TABLE
2
UCS
5
7
100
AcDbSymbolTable
70
0
0
ENDTAB
0
TABLE
2
APPID
5
9
100
AcDbSymbolTable
70
2
0
APPID
5
12
100
AcDbSymbolTableRecord
100
AcDbRegAppTableRecord
2
ACAD
70
0
0
ENDTAB
0
TABLE
2
DIMSTYLE
5
A
100
AcDbSymbolTable
70
1
0
ENDTAB
0
TABLE
2
BLOCK_RECORD
5
1
100
AcDbSymbolTable
70
1
0
BLOCK_RECORD
5
1F
100
AcDbSymbolTableRecord
100
AcDbBlockTableRecord
2
*MODEL_SPACE
0
BLOCK_RECORD
5
1B
100
AcDbSymbolTableRecord
100
AcDbBlockTableRecord
2
*PAPER_SPACE
0
ENDTAB
0
ENDSEC
0
SECTION
2
BLOCKS
0
BLOCK
5
20
100
AcDbEntity
100
AcDbBlockBegin
2
*MODEL_SPACE
0
ENDBLK
5
21
100
AcDbEntity
100
AcDbBlockEnd
0
BLOCK
5
1C
100
AcDbEntity
100
AcDbBlockBegin
2
*PAPER_SPACE
0
ENDBLK
5
1D
100
AcDbEntity
100
AcDbBlockEnd
0
ENDSEC
0
SECTION
2
ENTITIES
0
ARC
5
100
100
AcDbEntity
8
0
100
AcDbCircle
10
187.86506049252196
20
-148.50056856628316
30
0
40
3.0000000000000568
210
0
220
0
230
1
100
AcDbArc
50
135.00000000000077
51
207.54239687627773
0
ARC
5
101
100
AcDbEntity
8
0
100
AcDbCircle
10
178.99837136734629
20
-153.12461700433963
30
0
40
7.0000000000000151
210
0
220
0
230
1
100
AcDbArc
50
-117.54239687627815
51
27.542396876278655
0
CIRCLE
5
102
100
AcDbEntity
8
0
100
AcDbCircle
10
178.99837136734629
20
-153.12461700433963
30
0
40
3.999999999999988
210
0
220
-0
230
1
0
ARC
5
103
100
AcDbEntity
8
0
100
AcDbCircle
10
174.37432292928992
20
-161.99130612951524
30
0
40
2.9999999999999405
210
0
220
-0
230
1
100
AcDbArc
50
62.457603123722215
51
135.00000000000117
0
LINE
5
104
100
AcDbEntity
8
0
100
AcDbLine
10
172.25300258573029
20
-159.86998578595566
30
0
11
167.37705102378675
21
-164.74593734789923
31
0
0
ARC
5
105
100
AcDbEntity
8
0
100
AcDbCircle
10
165.25573068022712
20
-162.6246170043396
30
0
40
3.0000000000000071
210
0
220
0
230
1
100
AcDbArc
50
269.99999999999943
51
314.99999999999966
0
ARC
5
106
100
AcDbEntity
8
0
100
AcDbCircle
10
-32.258987945534507
20
-162.62461700433957
30
0
40
3.0000000000000444
210
0
220
0
230
1
100
AcDbArc
50
224.99999999999977
51
270.00000000000051
0
LINE
5
107
100
AcDbEntity
8
0
100
AcDbLine
10
-39.256259851037726
20
-159.86998578595563
30
0
11
-34.380308289094181
21
-164.74593734789923
31
0
0
ARC
5
108
100
AcDbEntity
8
0
100
AcDbCircle
10
-41.377580194597378
20
-161.99130612951532
30
0
40
3.0000000000000289
210
0
220
-0
230
1
100
AcDbArc
50
45.000000000000483
51
117.54239687627765
0
ARC
5
109
100
AcDbEntity
8
0
100
AcDbCircle
10
-46.001628632653713
20
-153.12461700433963
30
0
40
6.999999999999968
210
0
220
0
230
1
100
AcDbArc
50
152.45760312372136
51
297.54239687627779
0
LINE
5
110
100
AcDbEntity
8
0
100
AcDbLine
10
166.49837136734641
20
-165.6246170043396
30
0
11
-32.258987945534479
21
-165.6246170043396
31
0
0
ARC
5
111
100
AcDbEntity
8
0
100
AcDbCircle
10
-54.868317757829253
20
-148.50056856628316
30
0
40
2.9999999999999574
210
-0
220
0
230
1
100
AcDbArc
50
-27.542396876278666
51
45.000000000000384
0
LINE
5
112
100
AcDbEntity
8
0
100
AcDbLine
10
-52.74699741426965
20
-146.37924822272356
30
0
11
-57.622948976213337
21
-141.50329666077982
31
0
0
ARC
5
113
100
AcDbEntity
8
0
100
AcDbCircle
10
-55.501628632653663
20
-139.38197631722016
30
0
40
3.000000000000016
210
0
220
0
230
1
100
AcDbArc
50
180
51
224.99999999999977
0
LINE
5
114
100
AcDbEntity
8
0
100
AcDbLine
10
-58.501628632653677
20
-139.38197631722019
30
0
11
-58.501628632653535
21
58.132742308541125
31
0
0
ARC
5
115
100
AcDbEntity
8
0
100
AcDbCircle
10
-55.501628632653599
20
58.13274230854114
30
0
40
2.9999999999999378
210
0
220
0
230
1
100
AcDbArc
50
134.99999999999991
51
180
0
LINE
5
116
100
AcDbEntity
8
0
100
AcDbLine
10
-52.746997414269529
20
65.130014214044451
30
0
11
-57.622948976213195
21
60.254062652100743
31
0
0
ARC
5
117
100
AcDbEntity
8
0
100
AcDbCircle
10
-54.868317757829168
20
67.251334557604096
30
0
40
2.9999999999999942
210
-0
220
0
230
1
100
AcDbArc
50
-45.000000000000099
51
27.54239687627831
0
ARC
5
118
100
AcDbEntity
8
0
100
AcDbCircle
10
-46.001628632653571
20
71.875382995660544
30
0
40
7.0000000000000027
210
0
220
-0
230
1
100
AcDbArc
50
62.457603123722159
51
207.54239687627847
0
CIRCLE
5
119
100
AcDbEntity
8
0
100
AcDbCircle
10
-46.001628632653571
20
71.875382995660544
30
0
40
3.999999999999988
210
0
220
-0
230
1
0
ARC
5
120
100
AcDbEntity
8
0
100
AcDbCircle
10
-41.377580194597186
20
80.742072120836099
30
0
40
2.9999999999999138
210
0
220
0
230
1
100
AcDbArc
50
242.45760312372087
51
315.00000000000085
0
LINE
5
121
100
AcDbEntity
8
0
100
AcDbLine
10
-39.256259851037569
20
78.620751777276553
30
0
11
-34.380308289093996
21
83.496703339220133
31
0
0
ARC
5
122
100
AcDbEntity
8
0
100
AcDbCircle
10
-32.258987945534365
20
81.375382995660544
30
0
40
2.9999999999999538
210
0
220
-0
230
1
100
AcDbArc
50
89.999999999999872
51
135.0000000000006
0
LINE
5
123
100
AcDbEntity
8
0
100
AcDbLine
10
-32.258987945534358
20
84.375382995660502
30
0
11
165.25573068022686
21
84.375382995660502
31
0
0
ARC
5
124
100
AcDbEntity
8
0
100
AcDbCircle
10
165.2557306802268
20
81.375382995660161
30
0
40
3.0000000000003331
210
0
220
-0
230
1
100
AcDbArc
50
45.000000000003645
51
89.99999999999892
0
LINE
5
125
100
AcDbEntity
8
0
100
AcDbLine
10
172.25300258572997
20
78.620751777276723
30
0
11
167.37705102378655
21
83.496703339220176
31
0
0
ARC
5
126
100
AcDbEntity
8
0
100
AcDbCircle
10
174.37432292928986
20
80.742072120836553
30
0
40
3.0000000000003082
210
0
220
0
230
1
100
AcDbArc
50
224.99999999999923
51
297.54239687627694
0
ARC
5
127
100
AcDbEntity
8
0
100
AcDbCircle
10
178.99837136734615
20
71.87538299566053
30
0
40
6.9999999999999662
210
-0
220
0
230
1
100
AcDbArc
50
-27.542396876276985
51
117.54239687627636
0
CIRCLE
5
128
100
AcDbEntity
8
0
100
AcDbCircle
10
178.99837136734615
20
71.87538299566053
30
0
40
3.999999999999988
210
0
220
-0
230
1
0
ARC
5
129
100
AcDbEntity
8
0
100
AcDbCircle
10
187.86506049252222
20
67.251334557604181
30
0
40
3.0000000000003761
210
0
220
0
230
1
100
AcDbArc
50
152.45760312372406
51
224.99999999999943
0
LINE
5
130
100
AcDbEntity
8
0
100
AcDbLine
10
185.74374014896227
20
65.13001421404428
30
0
11
190.61969171090564
21
60.254062652100828
31
0
0
ARC
5
131
100
AcDbEntity
8
0
100
AcDbCircle
10
188.49837136734607
20
58.132742308541083
30
0
40
3.0000000000000426
210
-0
220
0
230
1
100
AcDbArc
50
0
51
45.000000000002487
0
ARC
5
132
100
AcDbEntity
8
0
100
AcDbCircle
10
188.49837136734604
20
-139.38197631722008
30
0
40
3.0000000000002327
210
-0
220
0
230
1
100
AcDbArc
50
315.00000000000193
51
360
0
LINE
5
133
100
AcDbEntity
8
0
100
AcDbLine
10
185.74374014896225
20
-146.3792482227235
30
0
11
190.61969171090593
21
-141.50329666077982
31
0
0
CIRCLE
5
134
100
AcDbEntity
8
0
100
AcDbCircle
10
-46.001628632653713
20
-153.12461700433963
30
0
40
3.999999999999988
210
0
220
-0
230
1
0
CIRCLE
5
135
100
AcDbEntity
8
0
100
AcDbCircle
10
141.36352952971527
20
-120.1626088351528
30
0
40
2.75
210
0
220
-0
230
1
0
CIRCLE
5
136
100
AcDbEntity
8
0
100
AcDbCircle
10
85.478529529715317
20
-87.620122466152964
30
0
40
2
210
0
220
-0
230
1
0
CIRCLE
5
137
100
AcDbEntity
8
0
100
AcDbCircle
10
5.4785295297152983
20
-87.620122466152964
30
0
40
1.9999999999999956
210
0
220
-0
230
1
0
CIRCLE
5
138
100
AcDbEntity
8
0
100
AcDbCircle
10
-50.406470470284646
20
-120.16260883515281
30
0
40
2.75
210
0
220
-0
230
1
0
CIRCLE
5
139
100
AcDbEntity
8
0
100
AcDbCircle
10
5.4785295297153489
20
32.379877533847022
30
0
40
2
210
0
220
-0
230
1
0
CIRCLE
5
140
100
AcDbEntity
8
0
100
AcDbCircle
10
85.478529529715303
20
32.379877533846965
30
0
40
2
210
0
220
-0
230
1
0
CIRCLE
5
141
100
AcDbEntity
8
0
100
AcDbCircle
10
-50.406470470284646
20
51.287391164847179
30
0
40
2.7499999999999991
210
0
220
-0
230
1
0
CIRCLE
5
142
100
AcDbEntity
8
0
100
AcDbCircle
10
141.36352952971527
20
51.287391164847193
30
0
40
2.7500000000000036
210
0
220
-0
230
1
0
LINE
5
143
100
AcDbEntity
8
0
100
AcDbLine
10
191.49837136734612
20
58.132742308540955
30
0
11
191.49837136734624
21
-139.38197631722011
31
0
0
ENDSEC
0
SECTION
2
OBJECTS
0
DICTIONARY
5
C
100
AcDbDictionary
3
ACAD_GROUP
350
D
3
ACAD_MLINESTYLE
350
17
0
DICTIONARY
5
D
100
AcDbDictionary
0
DICTIONARY
5
1A
330
C
100
AcDbDictionary
0
DICTIONARY
5
17
100
AcDbDictionary
0
ENDSEC
0
EOF
