0
SECTION
2
HEADER
9
$INSUNITS
70
4
9
$ACADVER
1
AC1014
9
$HANDSEED
5
FFFF
0
ENDSEC
0
SECTION
2
TABLES
0
TABLE
2
VPORT
5
8
100
AcDbSymbolTable
0
ENDTAB
0
TABLE
2
LTYPE
5
5
100
AcDbSymbolTable
0
LTYPE
5
14
100
AcDbSymbolTableRecord
100
AcDbLinetypeTableRecord
2
BYBLOCK
70
0
0
LTYPE
5
15
100
AcDbSymbolTableRecord
100
AcDbLinetypeTableRecord
2
BYLAYER
70
0
0
ENDTAB
0
TABLE
2
LAYER
5
2
100
AcDbSymbolTable
70
2
0
LAYER
5
50
100
AcDbSymbolTableRecord
100
AcDbLayerTableRecord
2
0
70
0
6
CONTINUOUS
0
ENDTAB
0
TABLE
2
STYLE
5
3
100
AcDbSymbolTable
70
1
0
STYLE
5
11
100
AcDbSymbolTableRecord
100
AcDbTextStyleTableRecord
2
STANDARD
70
0
0
ENDTAB
0
TABLE
2
VIEW
5
6
100
AcDbSymbolTable
70
0
0
ENDTAB
0
TABLE
2
UCS
5
7
100
AcDbSymbolTable
70
0
0
ENDTAB
0
TABLE
2
APPID
5
9
100
AcDbSymbolTable
70
2
0
APPID
5
12
100
AcDbSymbolTableRecord
100
AcDbRegAppTableRecord
2
ACAD
70
0
0
ENDTAB
0
TABLE
2
DIMSTYLE
5
A
100
AcDbSymbolTable
70
1
0
ENDTAB
0
TABLE
2
BLOCK_RECORD
5
1
100
AcDbSymbolTable
70
1
0
BLOCK_RECORD
5
1F
100
AcDbSymbolTableRecord
100
AcDbBlockTableRecord
2
*MODEL_SPACE
0
BLOCK_RECORD
5
1B
100
AcDbSymbolTableRecord
100
AcDbBlockTableRecord
2
*PAPER_SPACE
0
ENDTAB
0
ENDSEC
0
SECTION
2
BLOCKS
0
BLOCK
5
20
100
AcDbEntity
100
AcDbBlockBegin
2
*MODEL_SPACE
0
ENDBLK
5
21
100
AcDbEntity
100
AcDbBlockEnd
0
BLOCK
5
1C
100
AcDbEntity
100
AcDbBlockBegin
2
*PAPER_SPACE
0
ENDBLK
5
1D
100
AcDbEntity
100
AcDbBlockEnd
0
ENDSEC
0
SECTION
2
ENTITIES
0
LINE
5
100
100
AcDbEntity
8
0
100
AcDbLine
10
100.76579641904058
20
-26.367216445925589
30
0
11
100.76579641904058
21
-40.017216445925584
31
0
0
LINE
5
101
100
AcDbEntity
8
0
100
AcDbLine
10
100.76579641904058
20
-40.017216445925584
30
0
11
85.015796419040583
21
-40.017216445925584
31
0
0
LINE
5
102
100
AcDbEntity
8
0
100
AcDbLine
10
85.015796419040583
20
-40.017216445925584
30
0
11
85.015796419040583
21
-26.367216445925589
31
0
0
LINE
5
103
100
AcDbEntity
8
0
100
AcDbLine
10
85.015796419040583
20
-26.367216445925589
30
0
11
100.76579641904058
21
-26.367216445925589
31
0
0
CIRCLE
5
104
100
AcDbEntity
8
0
100
AcDbCircle
10
50.450334302217939
20
-9.5156838889823891
30
0
40
2.5499999999999989
210
0
220
-0
230
1
0
ARC
5
105
100
AcDbEntity
8
0
100
AcDbCircle
10
41.205151473980735
20
-31.299545035387322
30
0
40
3.7999999999999936
210
0
220
0
230
1
100
AcDbArc
50
90.000018723968211
51
169.99999571424328
0
LINE
5
106
100
AcDbEntity
8
0
100
AcDbLine
10
41.205150232160136
20
-27.499545035387531
30
0
11
59.815980283660124
21
-27.499545035387531
31
0
0
ARC
5
107
100
AcDbEntity
8
0
100
AcDbCircle
10
59.815981525480744
20
-31.299545035387311
30
0
40
3.7999999999999883
210
0
220
-0
230
1
100
AcDbArc
50
10.000000000008843
51
90.000018723968537
0
LINE
5
108
100
AcDbEntity
8
0
100
AcDbLine
10
63.558250986927021
20
-30.6396819602524
30
0
11
64.067835961176783
21
-33.529681960252447
31
0
0
ARC
5
109
100
AcDbEntity
8
0
100
AcDbCircle
10
60.325566499730733
20
-34.189545035387333
30
0
40
3.7999999999999989
210
0
220
0
230
1
100
AcDbArc
50
-89.999999999999901
51
9.9999844379139802
0
LINE
5
110
100
AcDbEntity
8
0
100
AcDbLine
10
60.325566499730741
20
-37.98954503538733
30
0
11
40.695565257910133
21
-37.989545035387124
31
0
0
ARC
5
111
100
AcDbEntity
8
0
100
AcDbCircle
10
40.695566499730731
20
-34.189545035387326
30
0
40
3.7999999999999967
210
0
220
0
230
1
100
AcDbArc
50
169.99999571424317
51
269.9999812760318
0
LINE
5
112
100
AcDbEntity
8
0
100
AcDbLine
10
36.95329708764249
20
-33.529681680329112
30
0
11
37.462882061892493
21
-30.639681680329115
31
0
0
CIRCLE
5
113
100
AcDbEntity
8
0
100
AcDbCircle
10
-92.663800000000009
20
-32.745347593228296
30
0
40
2.1000000000000085
210
0
220
-0
230
1
0
CIRCLE
5
114
100
AcDbEntity
8
0
100
AcDbCircle
10
-68.089665697782053
20
-9.5156838889823803
30
0
40
2.5500000000000007
210
-0
220
0
230
1
0
ARC
5
115
100
AcDbEntity
8
0
100
AcDbCircle
10
10.777576387815934
20
-8.1056838889823872
30
0
40
3.1000000000000014
210
0
220
0
230
1
100
AcDbArc
50
90.000018723968296
51
169.99999571424314
0
LINE
5
116
100
AcDbEntity
8
0
100
AcDbLine
10
10.777576387815932
20
-5.005683888982384
30
0
11
43.083091203555767
21
-5.0056838889825537
31
0
0
ARC
5
117
100
AcDbEntity
8
0
100
AcDbCircle
10
43.083092216619931
20
-8.1056838889823979
30
0
40
3.1000000000000112
210
0
220
-0
230
1
100
AcDbArc
50
9.9999844379140903
51
90.000018723968068
0
LINE
5
118
100
AcDbEntity
8
0
100
AcDbLine
10
46.135996397167681
20
-7.5673753674130904
30
0
11
46.633238336555472
21
-10.38737453821537
31
0
0
ARC
5
119
100
AcDbEntity
8
0
100
AcDbCircle
10
43.580334302217942
20
-10.925683888982388
30
0
40
3.1000000000000005
210
0
220
0
230
1
100
AcDbArc
50
-90
51
9.9999844379140175
0
LINE
5
120
100
AcDbEntity
8
0
100
AcDbLine
10
43.580334302217942
20
-14.025683888982387
30
0
11
10.280334302217948
21
-14.0256838889824
31
0
0
ARC
5
121
100
AcDbEntity
8
0
100
AcDbCircle
10
10.28033430221795
20
-10.925683888982382
30
0
40
3.0999999999999996
210
0
220
0
230
1
100
AcDbArc
50
170.00000000000608
51
269.99998127603169
0
LINE
5
122
100
AcDbEntity
8
0
100
AcDbLine
10
7.2274302678800497
20
-10.387374538215219
30
0
11
7.7246723534784039
21
-7.5673745382152902
31
0
0
CIRCLE
5
123
100
AcDbEntity
8
0
100
AcDbCircle
10
3.4103343022179478
20
-9.5156838889823803
30
0
40
2.5500000000000007
210
-0
220
0
230
1
0
CIRCLE
5
124
100
AcDbEntity
8
0
100
AcDbCircle
10
33.850566499730732
20
-32.744545035387333
30
0
40
2.0999999999999996
210
0
220
-0
230
1
0
CIRCLE
5
125
100
AcDbEntity
8
0
100
AcDbCircle
10
-5.1668000000000021
20
-32.745347593228296
30
0
40
2.0999999999999996
210
0
220
-0
230
1
0
CIRCLE
5
126
100
AcDbEntity
8
0
100
AcDbCircle
10
19.826799999999999
20
-32.745347593228296
30
0
40
2.0999999999999996
210
0
220
-0
230
1
0
CIRCLE
5
127
100
AcDbEntity
8
0
100
AcDbCircle
10
67.170566499730739
20
-32.744545035387333
30
0
40
2.0999999999999996
210
0
220
-0
230
1
0
CIRCLE
5
128
100
AcDbEntity
8
0
100
AcDbCircle
10
-67.670200000000008
20
-32.745347593228296
30
0
40
2.0999999999999996
210
0
220
-0
230
1
0
CIRCLE
5
129
100
AcDbEntity
8
0
100
AcDbCircle
10
-52.510433500269272
20
-32.744545035387333
30
0
40
2.1000000000000005
210
-0
220
0
230
1
0
CIRCLE
5
130
100
AcDbEntity
8
0
100
AcDbCircle
10
-68.234203580959431
20
-58.517216445925584
30
0
40
2.5000000000000089
210
0
220
-0
230
1
0
CIRCLE
5
131
100
AcDbEntity
8
0
100
AcDbCircle
10
-21.049665697782061
20
-9.5156838889823891
30
0
40
2.5499999999999989
210
0
220
-0
230
1
0
CIRCLE
5
132
100
AcDbEntity
8
0
100
AcDbCircle
10
-19.190433500269268
20
-32.744545035387333
30
0
40
2.0999999999999996
210
0
220
-0
230
1
0
ARC
5
133
100
AcDbEntity
8
0
100
AcDbCircle
10
-26.545018474519274
20
-31.299545035387336
30
0
40
3.8000000000000074
210
0
220
-0
230
1
100
AcDbArc
50
9.9999844379139802
51
90.00001872396831
0
LINE
5
134
100
AcDbEntity
8
0
100
AcDbLine
10
-22.802748833847843
20
-30.639682976689482
30
0
11
-22.293163859597847
21
-33.529682976689479
31
0
0
ARC
5
135
100
AcDbEntity
8
0
100
AcDbCircle
10
-26.035433500269264
20
-34.18954503538734
30
0
40
3.7999999999999945
210
0
220
0
230
1
100
AcDbArc
50
-90.000000000000057
51
9.9999844379141276
0
LINE
5
136
100
AcDbEntity
8
0
100
AcDbLine
10
-26.035433500269267
20
-37.98954503538733
30
0
11
-45.665433500269273
21
-37.98954503538733
31
0
0
ARC
5
137
100
AcDbEntity
8
0
100
AcDbCircle
10
-45.665433500269287
20
-34.18954503538734
30
0
40
3.7999999999999927
210
0
220
0
230
1
100
AcDbArc
50
169.999995714243
51
269.99998127603192
0
LINE
5
138
100
AcDbEntity
8
0
100
AcDbLine
10
-49.407702912357522
20
-33.529681680329119
30
0
11
-48.898117987468396
21
-30.639681960252936
31
0
0
ARC
5
139
100
AcDbEntity
8
0
100
AcDbCircle
10
-45.155848526019284
20
-31.299545035387318
30
0
40
3.7999999999999892
210
0
220
0
230
1
100
AcDbArc
50
90.000018723968097
51
169.99999571424325
0
LINE
5
140
100
AcDbEntity
8
0
100
AcDbLine
10
-45.155849767839875
20
-27.499545035387531
30
0
11
-26.54501971633988
21
-27.499545035387531
31
0
0
CIRCLE
5
141
100
AcDbEntity
8
0
100
AcDbCircle
10
-68.234203580959431
20
58.482783554074402
30
0
40
2.5
210
0
220
-0
230
1
0
CIRCLE
5
142
100
AcDbEntity
8
0
100
AcDbCircle
10
-112.23420358095943
20
-0.017216445925584391
30
0
40
2.5
210
0
220
-0
230
1
0
LWPOLYLINE
5
143
100
AcDbEntity
8
0
100
AcDbPolyline
90
8
70
1
43
0.0
10
-63.775327606256063
20
-7.5673743098559481
42
-0.36397012056706968
10
-60.722424625248252
20
-5.0056838889825519
10
-28.41690879644424
20
-5.0056838889825572
42
-0.36397032678796376
10
-25.364003749042126
20
-7.5673745382154456
10
-24.866761517234323
20
-10.387375367413085
42
-0.46630767495122394
10
-27.919666710846247
20
-14.025683888982222
10
-61.219666710846226
20
-14.025683888982218
42
-0.46630758145782747
10
-64.272569691854045
20
-10.387374309855941
0
CIRCLE
5
144
100
AcDbEntity
8
0
100
AcDbCircle
10
75.765796419040583
20
58.482783554074416
30
0
40
2.5
210
0
220
-0
230
1
0
CIRCLE
5
145
100
AcDbEntity
8
0
100
AcDbCircle
10
75.765796419040583
20
-58.517216445925577
30
0
40
2.5
210
0
220
-0
230
1
0
CIRCLE
5
146
100
AcDbEntity
8
0
100
AcDbCircle
10
119.7657964190406
20
-0.01721644592559524
30
0
40
2.5
210
0
220
-0
230
1
0
LINE
5
147
100
AcDbEntity
8
0
100
AcDbLine
10
78.565796419040566
20
39.982783554074395
30
0
11
100.76579641904058
21
39.982783554074395
31
0
0
LINE
5
148
100
AcDbEntity
8
0
100
AcDbLine
10
100.76579641904058
20
39.982783554074395
30
0
11
100.76579641904058
21
9.5827835540743944
31
0
0
LINE
5
149
100
AcDbEntity
8
0
100
AcDbLine
10
100.76579641904058
20
9.5827835540743944
30
0
11
78.565796419040566
21
9.5827835540743926
31
0
0
LINE
5
150
100
AcDbEntity
8
0
100
AcDbLine
10
78.565796419040566
20
9.5827835540743926
30
0
11
78.565796419040566
21
39.982783554074395
31
0
0
LWPOLYLINE
5
151
100
AcDbEntity
8
0
100
AcDbPolyline
90
4
70
1
43
0.0
10
58.565796419040566
20
39.792964016701248
10
31.565796419040563
20
39.792964016701248
10
31.565796419040563
20
8.2929640167012408
10
58.565796419040566
20
8.2929640167012408
0
LWPOLYLINE
5
152
100
AcDbEntity
8
0
100
AcDbPolyline
90
8
70
1
43
0.0
10
16.429619585164595
20
-33.527633835439666
42
-0.4663076744992885
10
12.943399006543519
20
-37.68234759322813
10
1.7166000000000061
20
-37.682347593228286
42
-0.46630767770576009
10
-1.7696194061767165
20
-33.527632820348337
10
-1.2769618615642055
20
-30.733633044287462
42
-0.36397015481254086
10
2.2092565906425055
20
-27.808347593228461
10
12.45074241590099
20
-27.808347593228294
42
-0.36397023426620984
10
15.936961861564232
20
-30.733633044287455
0
LWPOLYLINE
5
153
100
AcDbEntity
8
0
100
AcDbPolyline
90
8
70
1
43
0.0
10
-71.067380414835412
20
-33.527633835439666
42
-0.46630767449928506
10
-74.553600993456485
20
-37.682347593228137
10
-85.780400000000014
20
-37.682347593228286
42
-0.46630767770575959
10
-89.266619406176716
20
-33.527632820348337
10
-88.773961861564231
20
-30.733633044287458
42
-0.36397015481253753
10
-85.287743409357489
20
-27.80834759322844
10
-75.04625758409901
20
-27.808347593228298
42
-0.36397023426620817
10
-71.560038138435772
20
-30.733633044287455
0
CIRCLE
5
154
100
AcDbEntity
8
0
100
AcDbCircle
10
105.39079641904058
20
-33.192216445925595
30
0
40
1.7500000000000071
210
0
220
-0
230
1
0
CIRCLE
5
155
100
AcDbEntity
8
0
100
AcDbCircle
10
80.390796419040583
20
-33.192216445925595
30
0
40
1.749999999999998
210
0
220
-0
230
1
0
LWPOLYLINE
5
156
100
AcDbEntity
8
0
100
AcDbPolyline
90
4
70
1
43
0.0
10
100.76579641904058
20
-13.117216445925626
10
100.76579641904058
20
-1.5172164459256243
10
89.265796419040569
20
-1.5172164459256243
10
89.265796419040569
20
-13.117216445925626
0
LWPOLYLINE
5
157
100
AcDbEntity
8
0
100
AcDbPolyline
90
8
70
1
43
0.0
10
125.76579641904058
20
-40.017216445925584
42
-0.41421356237309503
10
100.76579641904058
20
-65.017216445925598
10
-93.234203580959445
20
-65.017216445925584
42
-0.41421356237309503
10
-118.23420358095943
20
-40.017216445925605
10
-118.23420358095944
20
39.982783554074395
42
-0.41421356237309498
10
-93.234203580959417
20
64.982783554074402
10
100.76580092629317
20
64.982783554074388
42
-0.41421345676160082
10
125.76579641904058
20
39.982788061327028
0
LWPOLYLINE
5
158
100
AcDbEntity
8
0
100
AcDbPolyline
90
4
70
1
43
0.0
10
32.520717919556027
20
-36.196802158400075
10
58.65083945289615
20
-36.196802158400033
10
58.650839452896157
20
-42.729332541735033
10
32.520717919556041
20
-42.729332541735083
0
LWPOLYLINE
5
159
100
AcDbEntity
8
0
100
AcDbPolyline
90
4
70
1
43
0.0
10
-53.840282080443984
20
-36.196802158400075
10
-27.710160547103861
20
-36.196802158400033
10
-27.71016054710385
20
-42.729332541735033
10
-53.84028208044397
20
-42.729332541735083
0
LWPOLYLINE
5
160
100
AcDbEntity
8
0
100
AcDbPolyline
90
4
70
1
43
0.0
10
-5.7918687117403955
20
-37.732061371811625
10
8.271469056965767
20
-37.732061371811632
10
8.2714690569657652
20
-42.306882091752186
10
-5.7918687117403973
20
-42.306882091752172
0
LWPOLYLINE
5
161
100
AcDbEntity
8
0
100
AcDbPolyline
90
4
70
1
43
0.0
10
-93.28886871174042
20
-37.732061371811618
10
-79.225530943034258
20
-37.732061371811632
10
-79.225530943034258
20
-42.306882091752186
10
-93.28886871174042
20
-42.306882091752165
0
LWPOLYLINE
5
162
100
AcDbEntity
8
0
100
AcDbPolyline
90
4
70
1
43
0.0
10
18.818064535739193
20
-14.08888566191527
10
33.211004073979325
20
-14.088885661915276
10
33.211004073979325
20
-18.341158493149685
10
18.818064535739193
20
-18.341158493149681
0
LWPOLYLINE
5
163
100
AcDbEntity
8
0
100
AcDbPolyline
90
4
70
1
43
0.0
10
-52.681935464260818
20
-14.08888566191527
10
-38.288995926020675
20
-14.088885661915276
10
-38.288995926020675
20
-18.341158493149685
10
-52.681935464260818
20
-18.341158493149681
0
LWPOLYLINE
5
164
100
AcDbEntity
8
0
100
AcDbPolyline
90
8
70
1
43
0.0
10
-6.0585890396108599
20
-45.534866279502907
10
66.142584506624857
20
-45.534866279502907
42
0.41421356237309453
10
71.142584506624871
20
-40.534866279502914
10
71.142584506624857
20
-6.8590547712272869
42
0.41421356237309453
10
66.142584506624871
20
-1.8590547712272887
10
-6.0585890396108599
20
-1.8590547712272887
42
0.41421356237309503
10
-11.05858903961086
20
-6.8590547712272887
10
-11.05858903961086
20
-40.534866279502907
42
0.41421356237309503
0
LWPOLYLINE
5
165
100
AcDbEntity
8
0
100
AcDbPolyline
90
8
70
1
43
0.0
10
-93.555589039610851
20
-45.534866279502907
10
-21.35441549337515
20
-45.534866279502907
42
0.41421356237309453
10
-16.354415493375143
20
-40.534866279502914
10
-16.35441549337515
20
-6.8590547712272869
42
0.41421356237309453
10
-21.354415493375143
20
-1.8590547712272887
10
-93.555589039610851
20
-1.8590547712272887
42
0.41421356237309503
10
-98.555589039610851
20
-6.8590547712272887
10
-98.555589039610851
20
-40.534866279502907
42
0.41421356237309503
0
LWPOLYLINE
5
166
100
AcDbEntity
8
0
100
AcDbPolyline
90
4
70
1
43
0.0
10
6.7037292223474898
20
-41.723301071561217
10
36.206880507670697
20
-41.723301071561224
10
36.206880507670689
20
-50.21341654935209
10
6.7037292223474889
20
-50.213416549352075
0
LWPOLYLINE
5
167
100
AcDbEntity
8
0
100
AcDbPolyline
90
4
70
1
43
0.0
10
-89.049122499503483
20
-42.125150028390514
10
-51.268108623334221
20
-42.125150028390536
10
-51.268108623334221
20
-49.978506845347049
10
-89.049122499503483
20
-49.978506845347034
0
LINE
5
168
100
AcDbEntity
8
0
100
AcDbLine
10
58.650839452896157
20
-39.729332422525744
30
0
11
58.650839452896165
21
-42.729332541735033
31
0
0
LINE
5
169
100
AcDbEntity
8
0
100
AcDbLine
10
58.650839452896165
20
-42.729332541735033
30
0
11
56.481671606454896
21
-42.729332541735033
31
0
0
LINE
5
170
100
AcDbEntity
8
0
100
AcDbLine
10
56.481671606454896
20
-42.729332541735033
30
0
11
56.481671606454896
21
-42.375307773859362
31
0
0
LINE
5
171
100
AcDbEntity
8
0
100
AcDbLine
10
56.481671606454896
20
-42.375307773859362
30
0
11
58.25384077921872
21
-42.375307773859362
31
0
0
LINE
5
172
100
AcDbEntity
8
0
100
AcDbLine
10
58.25384077921872
20
-42.375307773859362
30
0
11
58.25384077921872
21
-41.456481164009432
31
0
0
LINE
5
173
100
AcDbEntity
8
0
100
AcDbLine
10
58.25384077921872
20
-41.456481164009432
30
0
11
56.594222759161042
21
-41.456481164009432
31
0
0
LINE
5
174
100
AcDbEntity
8
0
100
AcDbLine
10
56.594222759161042
20
-41.456481164009432
30
0
11
56.594222759161042
21
-41.104502921612124
31
0
0
LINE
5
175
100
AcDbEntity
8
0
100
AcDbLine
10
56.594222759161035
20
-41.104502921612124
30
0
11
58.253840779218713
21
-41.104502921612124
31
0
0
LINE
5
176
100
AcDbEntity
8
0
100
AcDbLine
10
58.253840779218713
20
-41.104502921612124
30
0
11
58.253840779218713
21
-40.083356892378191
31
0
0
LINE
5
177
100
AcDbEntity
8
0
100
AcDbLine
10
58.253840779218713
20
-40.083356892378191
30
0
11
56.412094508562127
21
-40.083356892378191
31
0
0
LINE
5
178
100
AcDbEntity
8
0
100
AcDbLine
10
56.412094508562127
20
-40.083356892378191
30
0
11
56.412094508562127
21
-39.729332422525744
31
0
0
LINE
5
179
100
AcDbEntity
8
0
100
AcDbLine
10
56.412094508562127
20
-39.729332422525751
30
0
11
58.650839452896157
21
-39.729332422525744
31
0
0
LINE
5
180
100
AcDbEntity
8
0
100
AcDbLine
10
55.867756282243768
20
-39.729332422525751
30
0
11
55.867756282243775
21
-42.729332541735033
31
0
0
LINE
5
181
100
AcDbEntity
8
0
100
AcDbLine
10
55.867756282243775
20
-42.729332541735047
30
0
11
55.460525726232575
21
-42.729332541735047
31
0
0
LINE
5
182
100
AcDbEntity
8
0
100
AcDbLine
10
55.460525726232575
20
-42.729332541735047
30
0
11
53.884809588346521
21
-40.373943542749757
31
0
0
LINE
5
183
100
AcDbEntity
8
0
100
AcDbLine
10
53.884809588346521
20
-40.373943542749757
30
0
11
53.884809588346528
21
-42.729332541735047
31
0
0
LINE
5
184
100
AcDbEntity
8
0
100
AcDbLine
10
53.884809588346528
20
-42.729332541735047
30
0
11
53.504182075414704
21
-42.729332541735047
31
0
0
LINE
5
185
100
AcDbEntity
8
0
100
AcDbLine
10
53.504182075414704
20
-42.729332541735047
30
0
11
53.504182075414697
21
-39.729332422525758
31
0
0
LINE
5
186
100
AcDbEntity
8
0
100
AcDbLine
10
53.504182075414697
20
-39.729332422525758
30
0
11
53.911412333402673
21
-39.729332422525758
31
0
0
LINE
5
187
100
AcDbEntity
8
0
100
AcDbLine
10
53.911412333402673
20
-39.729332422525758
30
0
11
55.487128769311951
21
-42.086767648966187
31
0
0
LINE
5
188
100
AcDbEntity
8
0
100
AcDbLine
10
55.487128769311951
20
-42.086767648966187
30
0
11
55.487128769311944
21
-39.729332422525758
31
0
0
LINE
5
189
100
AcDbEntity
8
0
100
AcDbLine
10
55.487128769311944
20
-39.729332422525751
30
0
11
55.867756282243768
21
-39.729332422525751
31
0
0
LINE
5
190
100
AcDbEntity
8
0
100
AcDbLine
10
50.696541642103234
20
-40.781174098760964
30
0
11
50.299543117437402
21
-40.680901204855324
31
0
0
SPLINE
5
191
100
AcDbEntity
8
0
100
AcDbSpline
70
0
71
2
72
6
73
3
74
0
42
0.000000001
43
0.0000000001
44
0.0000000001
40
0
40
0
40
0
40
1
40
1
40
1
10
50.299543117437402
20
-40.680901204855324
30
0
10
50.424372528944055
20
-40.191815292150856
30
0
10
50.748724316511193
20
-39.934994076998109
30
0
0
SPLINE
5
192
100
AcDbEntity
8
0
100
AcDbSpline
70
0
71
2
72
6
73
3
74
0
42
0.000000001
43
0.0000000001
44
0.0000000001
40
0
40
0
40
0
40
1
40
1
40
1
10
50.748724316511193
20
-39.934994076998109
30
0
10
51.07307670012478
20
-39.678172861845368
30
0
10
51.541698550138513
20
-39.678172861845368
30
0
0
SPLINE
5
193
100
AcDbEntity
8
0
100
AcDbSpline
70
0
71
2
72
6
73
3
74
0
42
0.000000001
43
0.0000000001
44
0.0000000001
40
0
40
0
40
0
40
1
40
1
40
1
10
51.541698550138513
20
-39.678172861845368
30
0
10
52.026692007932702
20
-39.678172861845368
30
0
10
52.330579732809106
20
-39.875649010450715
30
0
0
SPLINE
5
194
100
AcDbEntity
8
0
100
AcDbSpline
70
0
71
2
72
6
73
3
74
0
42
0.000000001
43
0.0000000001
44
0.0000000001
40
0
40
0
40
0
40
1
40
1
40
1
10
52.330579732809106
20
-39.875649010450715
30
0
10
52.634468053731958
20
-40.073125159056062
30
0
10
52.793062900457421
20
-40.44761339357602
30
0
0
SPLINE
5
195
100
AcDbEntity
8
0
100
AcDbSpline
70
0
71
2
72
6
73
3
74
0
42
0.000000001
43
0.0000000001
44
0.0000000001
40
0
40
0
40
0
40
1
40
1
40
1
10
52.793062900457421
20
-40.44761339357602
30
0
10
52.951657747182885
20
-40.822101926119203
30
0
10
52.951657747182885
20
-41.251842772276277
30
0
0
SPLINE
5
196
100
AcDbEntity
8
0
100
AcDbSpline
70
0
71
2
72
6
73
3
74
0
42
0.000000001
43
0.0000000001
44
0.0000000001
40
0
40
0
40
0
40
1
40
1
40
1
10
52.951657747182885
20
-41.251842772276277
30
0
10
52.951657747182892
20
-41.720464920313233
30
0
10
52.772598837766694
20
-42.069373523504609
30
0
0
SPLINE
5
197
100
AcDbEntity
8
0
100
AcDbSpline
70
0
71
2
72
6
73
3
74
0
42
0.000000001
43
0.0000000001
44
0.0000000001
40
0
40
0
40
0
40
1
40
1
40
1
10
52.772598837766694
20
-42.069373523504609
30
0
10
52.593540524396943
20
-42.418282126695985
30
0
10
52.263049458417939
20
-42.599386965544099
30
0
0
SPLINE
5
198
100
AcDbEntity
8
0
100
AcDbSpline
70
0
71
2
72
6
73
3
74
0
42
0.000000001
43
0.0000000001
44
0.0000000001
40
0
40
0
40
0
40
1
40
1
40
1
10
52.263049458417939
20
-42.599386965544099
30
0
10
51.932558392438935
20
-42.780492102415437
30
0
10
51.535559271726655
20
-42.780492102415437
30
0
0
SPLINE
5
199
100
AcDbEntity
8
0
100
AcDbSpline
70
0
71
2
72
6
73
3
74
0
42
0.000000001
43
0.0000000001
44
0.0000000001
40
0
40
0
40
0
40
1
40
1
40
1
10
51.535559271726655
20
-42.780492102415437
30
0
10
51.08535466090207
20
-42.780492102415444
30
0
10
50.778397296819733
20
-42.551297044069649
30
0
0
SPLINE
5
200
100
AcDbEntity
8
0
100
AcDbSpline
70
0
71
2
72
6
73
3
74
0
42
0.000000001
43
0.0000000001
44
0.0000000001
40
0
40
0
40
0
40
1
40
1
40
1
10
50.778397296819733
20
-42.551297044069649
30
0
10
50.471439336690949
20
-42.322101985723855
30
0
10
50.350702380094575
20
-41.90668592384565
30
0
0
LINE
5
201
100
AcDbEntity
8
0
100
AcDbLine
10
50.350702380094575
20
-41.90668592384565
30
0
11
50.74156222239499
21
-41.814598535807015
31
0
0
SPLINE
5
202
100
AcDbEntity
8
0
100
AcDbSpline
70
0
71
2
72
6
73
3
74
0
42
0.000000001
43
0.0000000001
44
0.0000000001
40
0
40
0
40
0
40
1
40
1
40
1
10
50.74156222239499
20
-41.814598535807015
30
0
10
50.845927571210908
20
-42.142020111591698
30
0
10
51.044427131567048
20
-42.291406189710976
30
0
0
SPLINE
5
203
100
AcDbEntity
8
0
100
AcDbSpline
70
0
71
2
72
6
73
3
74
0
42
0.000000001
43
0.0000000001
44
0.0000000001
40
0
40
0
40
0
40
1
40
1
40
1
10
51.044427131567048
20
-42.291406189710976
30
0
10
51.242926691923188
20
-42.440792416841859
30
0
10
51.543745373640107
20
-42.440792416841859
30
0
0
SPLINE
5
204
100
AcDbEntity
8
0
100
AcDbSpline
70
0
71
2
72
6
73
3
74
0
42
0.000000001
43
0.0000000001
44
0.0000000001
40
0
40
0
40
0
40
1
40
1
40
1
10
51.543745373640107
20
-42.440792416841859
30
0
10
51.889584039602326
20
-42.440792416841859
30
0
10
52.121848439130829
20
-42.27503517797696
30
0
0
SPLINE
5
205
100
AcDbEntity
8
0
100
AcDbSpline
70
0
71
2
72
6
73
3
74
0
42
0.000000001
43
0.0000000001
44
0.0000000001
40
0
40
0
40
0
40
1
40
1
40
1
10
52.121848439130829
20
-42.27503517797696
30
0
10
52.354113434705781
20
-42.109277939112062
30
0
10
52.448247050199555
20
-41.829946433813447
30
0
0
SPLINE
5
206
100
AcDbEntity
8
0
100
AcDbSpline
70
0
71
2
72
6
73
3
74
0
42
0.000000001
43
0.0000000001
44
0.0000000001
40
0
40
0
40
0
40
1
40
1
40
1
10
52.448247050199555
20
-41.829946433813447
30
0
10
52.542380665693322
20
-41.550614928514833
30
0
10
52.542380665693322
20
-41.253889148743028
30
0
0
SPLINE
5
207
100
AcDbEntity
8
0
100
AcDbSpline
70
0
71
2
72
6
73
3
74
0
42
0.000000001
43
0.0000000001
44
0.0000000001
40
0
40
0
40
0
40
1
40
1
40
1
10
52.542380665693322
20
-41.253889148743028
30
0
10
52.542380665693322
20
-40.871215259344453
30
0
10
52.430852626714746
20
-40.585744475633973
30
0
0
SPLINE
5
208
100
AcDbEntity
8
0
100
AcDbSpline
70
0
71
2
72
6
73
3
74
0
42
0.000000001
43
0.0000000001
44
0.0000000001
40
0
40
0
40
0
40
1
40
1
40
1
10
52.430852626714746
20
-40.585744475633973
30
0
10
52.319324587736169
20
-40.300273691923493
30
0
10
52.083990549001733
20
-40.159073268682832
30
0
0
SPLINE
5
209
100
AcDbEntity
8
0
100
AcDbSpline
70
0
71
2
72
6
73
3
74
0
42
0.000000001
43
0.0000000001
44
0.0000000001
40
0
40
0
40
0
40
1
40
1
40
1
10
52.083990549001733
20
-40.159073268682832
30
0
10
51.848656510267297
20
-40.017872547418946
30
0
10
51.57444057360653
20
-40.017872547418946
30
0
0
SPLINE
5
210
100
AcDbEntity
8
0
100
AcDbSpline
70
0
71
2
72
6
73
3
74
0
42
0.000000001
43
0.0000000001
44
0.0000000001
40
0
40
0
40
0
40
1
40
1
40
1
10
51.57444057360653
20
-40.017872547418946
30
0
10
51.240879868421594
20
-40.017872547418953
30
0
10
51.009638880643884
20
-40.210232829363228
30
0
0
SPLINE
5
211
100
AcDbEntity
8
0
100
AcDbSpline
70
0
71
2
72
6
73
3
74
0
42
0.000000001
43
0.0000000001
44
0.0000000001
40
0
40
0
40
0
40
1
40
1
40
1
10
51.009638880643884
20
-40.210232829363228
30
0
10
50.778397296819726
20
-40.402592813284279
30
0
10
50.696541642103234
20
-40.781174098760964
30
0
0
LINE
5
212
100
AcDbEntity
8
0
100
AcDbLine
10
50.133786176595727
20
-39.678172861845368
30
0
11
49.264072750959443
21
-42.780492102415444
31
0
0
LINE
5
213
100
AcDbEntity
8
0
100
AcDbLine
10
49.264072750959443
20
-42.780492102415444
30
0
11
48.969393347654389
21
-42.780492102415444
31
0
0
LINE
5
214
100
AcDbEntity
8
0
100
AcDbLine
10
48.969393347654389
20
-42.780492102415444
30
0
11
49.837060545835534
21
-39.678172861845376
31
0
0
LINE
5
215
100
AcDbEntity
8
0
100
AcDbLine
10
49.837060545835534
20
-39.678172861845376
30
0
11
50.133786176595727
21
-39.678172861845376
31
0
0
LINE
5
216
100
AcDbEntity
8
0
100
AcDbLine
10
48.662435387525598
20
-39.729332422525765
30
0
11
48.662435387525605
21
-42.729332541735054
31
0
0
LINE
5
217
100
AcDbEntity
8
0
100
AcDbLine
10
48.662435387525605
20
-42.729332541735054
30
0
11
48.265436266813325
21
-42.729332541735054
31
0
0
LINE
5
218
100
AcDbEntity
8
0
100
AcDbLine
10
48.265436266813325
20
-42.729332541735054
30
0
11
48.265436266813317
21
-40.083356892378212
31
0
0
LINE
5
219
100
AcDbEntity
8
0
100
AcDbLine
10
48.265436266813317
20
-40.083356892378212
30
0
11
46.787946795377771
21
-40.083356892378212
31
0
0
LINE
5
220
100
AcDbEntity
8
0
100
AcDbLine
10
46.787946795377771
20
-40.083356892378212
30
0
11
46.787946795377771
21
-39.729332422525765
31
0
0
LINE
5
221
100
AcDbEntity
8
0
100
AcDbLine
10
46.787946795377771
20
-39.729332422525772
30
0
11
48.662435387525598
21
-39.729332422525765
31
0
0
LINE
5
222
100
AcDbEntity
8
0
100
AcDbLine
10
46.24770102396969
20
-39.729332422525772
30
0
11
46.247701023969697
21
-42.729332541735054
31
0
0
LINE
5
223
100
AcDbEntity
8
0
100
AcDbLine
10
46.247701023969697
20
-42.729332541735054
30
0
11
45.850701903257416
21
-42.729332541735054
31
0
0
LINE
5
224
100
AcDbEntity
8
0
100
AcDbLine
10
45.850701903257416
20
-42.729332541735062
30
0
11
45.850701903257409
21
-39.729332422525772
31
0
0
LINE
5
225
100
AcDbEntity
8
0
100
AcDbLine
10
45.850701903257409
20
-39.729332422525772
30
0
11
46.24770102396969
21
-39.729332422525772
31
0
0
LINE
5
226
100
AcDbEntity
8
0
100
AcDbLine
10
45.163117026243249
20
-39.729332422525772
30
0
11
45.163117026243256
21
-42.729332541735054
31
0
0
LINE
5
227
100
AcDbEntity
8
0
100
AcDbLine
10
45.163117026243256
20
-42.729332541735062
30
0
11
44.565573309812592
21
-42.729332541735062
31
0
0
LINE
5
228
100
AcDbEntity
8
0
100
AcDbLine
10
44.565573309812592
20
-42.729332541735062
30
0
11
43.855476950559662
21
-40.605185126573929
31
0
0
SPLINE
5
229
100
AcDbEntity
8
0
100
AcDbSpline
70
0
71
2
72
6
73
3
74
0
42
0.000000001
43
0.0000000001
44
0.0000000001
40
0
40
0
40
0
40
1
40
1
40
1
10
43.855476950559655
20
-40.605185126573929
30
0
10
43.757250880155603
20
-40.308459197790512
30
0
10
43.712230299863855
20
-40.161119496137985
30
0
0
SPLINE
5
230
100
AcDbEntity
8
0
100
AcDbSpline
70
0
71
2
72
6
73
3
74
0
42
0.000000001
43
0.0000000001
44
0.0000000001
40
0
40
0
40
0
40
1
40
1
40
1
10
43.712230299863855
20
-40.161119496137985
30
0
10
43.661070441160241
20
-40.324830507547745
30
0
10
43.552612637434045
20
-40.642019902975449
30
0
0
LINE
5
231
100
AcDbEntity
8
0
100
AcDbLine
10
43.552612637434045
20
-40.642019902975449
30
0
11
42.834331368360559
21
-42.729332541735062
31
0
0
LINE
5
232
100
AcDbEntity
8
0
100
AcDbLine
10
42.834331368360566
20
-42.729332541735062
30
0
11
42.30022487536435
21
-42.729332541735062
31
0
0
LINE
5
233
100
AcDbEntity
8
0
100
AcDbLine
10
42.30022487536435
20
-42.729332541735062
30
0
11
42.300224875364343
21
-39.729332422525772
31
0
0
LINE
5
234
100
AcDbEntity
8
0
100
AcDbLine
10
42.300224875364343
20
-39.729332422525772
30
0
11
42.682898615751306
21
-39.729332422525772
31
0
0
LINE
5
235
100
AcDbEntity
8
0
100
AcDbLine
10
42.682898615751306
20
-39.729332422525772
30
0
11
42.682898615751313
21
-42.240246629030594
31
0
0
LINE
5
236
100
AcDbEntity
8
0
100
AcDbLine
10
42.682898615751313
20
-42.240246629030594
30
0
11
43.554658268842736
21
-39.729332422525772
31
0
0
LINE
5
237
100
AcDbEntity
8
0
100
AcDbLine
10
43.554658268842736
20
-39.729332422525772
30
0
11
43.912776087675134
21
-39.729332422525772
31
0
0
LINE
5
238
100
AcDbEntity
8
0
100
AcDbLine
10
43.912776087675134
20
-39.729332422525772
30
0
11
44.780443285856293
21
-42.283220683843979
31
0
0
LINE
5
239
100
AcDbEntity
8
0
100
AcDbLine
10
44.780443285856293
20
-42.283220683843979
30
0
11
44.780443285856286
21
-39.729332422525772
31
0
0
LINE
5
240
100
AcDbEntity
8
0
100
AcDbLine
10
44.780443285856286
20
-39.729332422525772
30
0
11
45.163117026243249
21
-39.729332422525772
31
0
0
LINE
5
241
100
AcDbEntity
8
0
100
AcDbLine
10
-27.71016054710385
20
-39.729332422525744
30
0
11
-27.71016054710384
21
-42.729332541735033
31
0
0
LINE
5
242
100
AcDbEntity
8
0
100
AcDbLine
10
-27.71016054710384
20
-42.729332541735033
30
0
11
-29.879328393545109
21
-42.729332541735033
31
0
0
LINE
5
243
100
AcDbEntity
8
0
100
AcDbLine
10
-29.879328393545109
20
-42.729332541735033
30
0
11
-29.879328393545109
21
-42.375307773859362
31
0
0
LINE
5
244
100
AcDbEntity
8
0
100
AcDbLine
10
-29.879328393545116
20
-42.375307773859362
30
0
11
-28.107159220781291
21
-42.375307773859362
31
0
0
LINE
5
245
100
AcDbEntity
8
0
100
AcDbLine
10
-28.107159220781291
20
-42.375307773859362
30
0
11
-28.107159220781295
21
-41.456481164009432
31
0
0
LINE
5
246
100
AcDbEntity
8
0
100
AcDbLine
10
-28.107159220781291
20
-41.456481164009432
30
0
11
-29.766777240838969
21
-41.456481164009432
31
0
0
LINE
5
247
100
AcDbEntity
8
0
100
AcDbLine
10
-29.766777240838969
20
-41.456481164009432
30
0
11
-29.766777240838969
21
-41.104502921612124
31
0
0
LINE
5
248
100
AcDbEntity
8
0
100
AcDbLine
10
-29.766777240838973
20
-41.104502921612124
30
0
11
-28.107159220781295
21
-41.104502921612124
31
0
0
LINE
5
249
100
AcDbEntity
8
0
100
AcDbLine
10
-28.107159220781291
20
-41.104502921612124
30
0
11
-28.107159220781295
21
-40.083356892378191
31
0
0
LINE
5
250
100
AcDbEntity
8
0
100
AcDbLine
10
-28.107159220781295
20
-40.083356892378191
30
0
11
-29.94890549143788
21
-40.083356892378191
31
0
0
LINE
5
251
100
AcDbEntity
8
0
100
AcDbLine
10
-29.94890549143788
20
-40.083356892378191
30
0
11
-29.94890549143788
21
-39.729332422525744
31
0
0
LINE
5
252
100
AcDbEntity
8
0
100
AcDbLine
10
-29.94890549143788
20
-39.729332422525751
30
0
11
-27.71016054710385
21
-39.729332422525744
31
0
0
LINE
5
253
100
AcDbEntity
8
0
100
AcDbLine
10
-30.49324371775624
20
-39.729332422525751
30
0
11
-30.493243717756229
21
-42.729332541735033
31
0
0
LINE
5
254
100
AcDbEntity
8
0
100
AcDbLine
10
-30.493243717756229
20
-42.729332541735047
30
0
11
-30.900474273767429
21
-42.729332541735047
31
0
0
LINE
5
255
100
AcDbEntity
8
0
100
AcDbLine
10
-30.900474273767429
20
-42.729332541735047
30
0
11
-32.476190411653484
21
-40.373943542749757
31
0
0
LINE
5
256
100
AcDbEntity
8
0
100
AcDbLine
10
-32.476190411653491
20
-40.373943542749757
30
0
11
-32.476190411653484
21
-42.729332541735047
31
0
0
LINE
5
257
100
AcDbEntity
8
0
100
AcDbLine
10
-32.476190411653477
20
-42.729332541735047
30
0
11
-32.8568179245853
21
-42.729332541735047
31
0
0
LINE
5
258
100
AcDbEntity
8
0
100
AcDbLine
10
-32.8568179245853
20
-42.729332541735047
30
0
11
-32.856817924585314
21
-39.729332422525758
31
0
0
LINE
5
259
100
AcDbEntity
8
0
100
AcDbLine
10
-32.856817924585314
20
-39.729332422525758
30
0
11
-32.449587666597338
21
-39.729332422525758
31
0
0
LINE
5
260
100
AcDbEntity
8
0
100
AcDbLine
10
-32.449587666597338
20
-39.729332422525758
30
0
11
-30.87387123068806
21
-42.086767648966187
31
0
0
LINE
5
261
100
AcDbEntity
8
0
100
AcDbLine
10
-30.87387123068806
20
-42.086767648966187
30
0
11
-30.873871230688064
21
-39.729332422525758
31
0
0
LINE
5
262
100
AcDbEntity
8
0
100
AcDbLine
10
-30.873871230688064
20
-39.729332422525751
30
0
11
-30.49324371775624
21
-39.729332422525751
31
0
0
LINE
5
263
100
AcDbEntity
8
0
100
AcDbLine
10
-35.664458357896777
20
-40.781174098760964
30
0
11
-36.061456882562609
21
-40.680901204855324
31
0
0
SPLINE
5
264
100
AcDbEntity
8
0
100
AcDbSpline
70
0
71
2
72
6
73
3
74
0
42
0.000000001
43
0.0000000001
44
0.0000000001
40
0
40
0
40
0
40
1
40
1
40
1
10
-36.061456882562609
20
-40.680901204855324
30
0
10
-35.936627471055957
20
-40.191815292150856
30
0
10
-35.612275683488818
20
-39.934994076998109
30
0
0
SPLINE
5
265
100
AcDbEntity
8
0
100
AcDbSpline
70
0
71
2
72
6
73
3
74
0
42
0.000000001
43
0.0000000001
44
0.0000000001
40
0
40
0
40
0
40
1
40
1
40
1
10
-35.612275683488818
20
-39.934994076998109
30
0
10
-35.287923299875231
20
-39.678172861845368
30
0
10
-34.819301449861499
20
-39.678172861845368
30
0
0
SPLINE
5
266
100
AcDbEntity
8
0
100
AcDbSpline
70
0
71
2
72
6
73
3
74
0
42
0.000000001
43
0.0000000001
44
0.0000000001
40
0
40
0
40
0
40
1
40
1
40
1
10
-34.819301449861499
20
-39.678172861845368
30
0
10
-34.334307992067309
20
-39.678172861845368
30
0
10
-34.030420267190905
20
-39.875649010450715
30
0
0
SPLINE
5
267
100
AcDbEntity
8
0
100
AcDbSpline
70
0
71
2
72
6
73
3
74
0
42
0.000000001
43
0.0000000001
44
0.0000000001
40
0
40
0
40
0
40
1
40
1
40
1
10
-34.030420267190905
20
-39.875649010450715
30
0
10
-33.726531946268054
20
-40.073125159056062
30
0
10
-33.56793709954259
20
-40.44761339357602
30
0
0
SPLINE
5
268
100
AcDbEntity
8
0
100
AcDbSpline
70
0
71
2
72
6
73
3
74
0
42
0.000000001
43
0.0000000001
44
0.0000000001
40
0
40
0
40
0
40
1
40
1
40
1
10
-33.56793709954259
20
-40.44761339357602
30
0
10
-33.409342252817126
20
-40.822101926119203
30
0
10
-33.409342252817126
20
-41.251842772276277
30
0
0
SPLINE
5
269
100
AcDbEntity
8
0
100
AcDbSpline
70
0
71
2
72
6
73
3
74
0
42
0.000000001
43
0.0000000001
44
0.0000000001
40
0
40
0
40
0
40
1
40
1
40
1
10
-33.409342252817126
20
-41.251842772276277
30
0
10
-33.409342252817119
20
-41.720464920313233
30
0
10
-33.588401162233318
20
-42.069373523504609
30
0
0
SPLINE
5
270
100
AcDbEntity
8
0
100
AcDbSpline
70
0
71
2
72
6
73
3
74
0
42
0.000000001
43
0.0000000001
44
0.0000000001
40
0
40
0
40
0
40
1
40
1
40
1
10
-33.588401162233318
20
-42.069373523504609
30
0
10
-33.767459475603069
20
-42.418282126695985
30
0
10
-34.097950541582065
20
-42.599386965544099
30
0
0
SPLINE
5
271
100
AcDbEntity
8
0
100
AcDbSpline
70
0
71
2
72
6
73
3
74
0
42
0.000000001
43
0.0000000001
44
0.0000000001
40
0
40
0
40
0
40
1
40
1
40
1
10
-34.097950541582065
20
-42.599386965544099
30
0
10
-34.428441607561069
20
-42.780492102415437
30
0
10
-34.82544072827335
20
-42.780492102415437
30
0
0
SPLINE
5
272
100
AcDbEntity
8
0
100
AcDbSpline
70
0
71
2
72
6
73
3
74
0
42
0.000000001
43
0.0000000001
44
0.0000000001
40
0
40
0
40
0
40
1
40
1
40
1
10
-34.82544072827335
20
-42.780492102415437
30
0
10
-35.275645339097935
20
-42.780492102415444
30
0
10
-35.582602703180271
20
-42.551297044069649
30
0
0
SPLINE
5
273
100
AcDbEntity
8
0
100
AcDbSpline
70
0
71
2
72
6
73
3
74
0
42
0.000000001
43
0.0000000001
44
0.0000000001
40
0
40
0
40
0
40
1
40
1
40
1
10
-35.582602703180271
20
-42.551297044069649
30
0
10
-35.889560663309062
20
-42.322101985723855
30
0
10
-36.010297619905437
20
-41.90668592384565
30
0
0
LINE
5
274
100
AcDbEntity
8
0
100
AcDbLine
10
-36.010297619905437
20
-41.90668592384565
30
0
11
-35.619437777605022
21
-41.814598535807015
31
0
0
SPLINE
5
275
100
AcDbEntity
8
0
100
AcDbSpline
70
0
71
2
72
6
73
3
74
0
42
0.000000001
43
0.0000000001
44
0.0000000001
40
0
40
0
40
0
40
1
40
1
40
1
10
-35.619437777605022
20
-41.814598535807015
30
0
10
-35.515072428789104
20
-42.142020111591698
30
0
10
-35.316572868432964
20
-42.291406189710976
30
0
0
SPLINE
5
276
100
AcDbEntity
8
0
100
AcDbSpline
70
0
71
2
72
6
73
3
74
0
42
0.000000001
43
0.0000000001
44
0.0000000001
40
0
40
0
40
0
40
1
40
1
40
1
10
-35.316572868432964
20
-42.291406189710976
30
0
10
-35.118073308076823
20
-42.440792416841859
30
0
10
-34.817254626359905
20
-42.440792416841859
30
0
0
SPLINE
5
277
100
AcDbEntity
8
0
100
AcDbSpline
70
0
71
2
72
6
73
3
74
0
42
0.000000001
43
0.0000000001
44
0.0000000001
40
0
40
0
40
0
40
1
40
1
40
1
10
-34.817254626359905
20
-42.440792416841859
30
0
10
-34.471415960397685
20
-42.440792416841859
30
0
10
-34.239151560869182
20
-42.27503517797696
30
0
0
SPLINE
5
278
100
AcDbEntity
8
0
100
AcDbSpline
70
0
71
2
72
6
73
3
74
0
42
0.000000001
43
0.0000000001
44
0.0000000001
40
0
40
0
40
0
40
1
40
1
40
1
10
-34.239151560869182
20
-42.27503517797696
30
0
10
-34.006886565294231
20
-42.109277939112062
30
0
10
-33.912752949800456
20
-41.829946433813447
30
0
0
SPLINE
5
279
100
AcDbEntity
8
0
100
AcDbSpline
70
0
71
2
72
6
73
3
74
0
42
0.000000001
43
0.0000000001
44
0.0000000001
40
0
40
0
40
0
40
1
40
1
40
1
10
-33.912752949800456
20
-41.829946433813447
30
0
10
-33.818619334306682
20
-41.550614928514833
30
0
10
-33.818619334306689
20
-41.253889148743028
30
0
0
SPLINE
5
280
100
AcDbEntity
8
0
100
AcDbSpline
70
0
71
2
72
6
73
3
74
0
42
0.000000001
43
0.0000000001
44
0.0000000001
40
0
40
0
40
0
40
1
40
1
40
1
10
-33.818619334306689
20
-41.253889148743028
30
0
10
-33.818619334306689
20
-40.871215259344453
30
0
10
-33.930147373285266
20
-40.585744475633973
30
0
0
SPLINE
5
281
100
AcDbEntity
8
0
100
AcDbSpline
70
0
71
2
72
6
73
3
74
0
42
0.000000001
43
0.0000000001
44
0.0000000001
40
0
40
0
40
0
40
1
40
1
40
1
10
-33.930147373285266
20
-40.585744475633973
30
0
10
-34.041675412263842
20
-40.300273691923493
30
0
10
-34.277009450998278
20
-40.159073268682832
30
0
0
SPLINE
5
282
100
AcDbEntity
8
0
100
AcDbSpline
70
0
71
2
72
6
73
3
74
0
42
0.000000001
43
0.0000000001
44
0.0000000001
40
0
40
0
40
0
40
1
40
1
40
1
10
-34.277009450998278
20
-40.159073268682832
30
0
10
-34.512343489732714
20
-40.017872547418946
30
0
10
-34.786559426393481
20
-40.017872547418946
30
0
0
SPLINE
5
283
100
AcDbEntity
8
0
100
AcDbSpline
70
0
71
2
72
6
73
3
74
0
42
0.000000001
43
0.0000000001
44
0.0000000001
40
0
40
0
40
0
40
1
40
1
40
1
10
-34.786559426393481
20
-40.017872547418946
30
0
10
-35.120120131578417
20
-40.017872547418953
30
0
10
-35.351361119356127
20
-40.210232829363228
30
0
0
SPLINE
5
284
100
AcDbEntity
8
0
100
AcDbSpline
70
0
71
2
72
6
73
3
74
0
42
0.000000001
43
0.0000000001
44
0.0000000001
40
0
40
0
40
0
40
1
40
1
40
1
10
-35.351361119356127
20
-40.210232829363228
30
0
10
-35.582602703180285
20
-40.402592813284279
30
0
10
-35.664458357896777
20
-40.781174098760964
30
0
0
LINE
5
285
100
AcDbEntity
8
0
100
AcDbLine
10
-36.227213823404284
20
-39.678172861845368
30
0
11
-37.096927249040561
21
-42.780492102415444
31
0
0
LINE
5
286
100
AcDbEntity
8
0
100
AcDbLine
10
-37.096927249040561
20
-42.780492102415444
30
0
11
-37.391606652345615
21
-42.780492102415444
31
0
0
LINE
5
287
100
AcDbEntity
8
0
100
AcDbLine
10
-37.391606652345615
20
-42.780492102415444
30
0
11
-36.523939454164477
21
-39.678172861845376
31
0
0
LINE
5
288
100
AcDbEntity
8
0
100
AcDbLine
10
-36.523939454164477
20
-39.678172861845376
30
0
11
-36.227213823404284
21
-39.678172861845376
31
0
0
LINE
5
289
100
AcDbEntity
8
0
100
AcDbLine
10
-37.698564612474414
20
-39.729332422525765
30
0
11
-37.698564612474399
21
-42.729332541735054
31
0
0
LINE
5
290
100
AcDbEntity
8
0
100
AcDbLine
10
-37.698564612474399
20
-42.729332541735054
30
0
11
-38.09556373318668
21
-42.729332541735054
31
0
0
LINE
5
291
100
AcDbEntity
8
0
100
AcDbLine
10
-38.09556373318668
20
-42.729332541735054
30
0
11
-38.095563733186694
21
-40.083356892378212
31
0
0
LINE
5
292
100
AcDbEntity
8
0
100
AcDbLine
10
-38.095563733186694
20
-40.083356892378212
30
0
11
-39.573053204622241
21
-40.083356892378212
31
0
0
LINE
5
293
100
AcDbEntity
8
0
100
AcDbLine
10
-39.573053204622241
20
-40.083356892378212
30
0
11
-39.573053204622241
21
-39.729332422525765
31
0
0
LINE
5
294
100
AcDbEntity
8
0
100
AcDbLine
10
-39.573053204622241
20
-39.729332422525772
30
0
11
-37.698564612474414
21
-39.729332422525765
31
0
0
LINE
5
295
100
AcDbEntity
8
0
100
AcDbLine
10
-40.113298976030322
20
-39.729332422525772
30
0
11
-40.113298976030308
21
-42.729332541735054
31
0
0
LINE
5
296
100
AcDbEntity
8
0
100
AcDbLine
10
-40.113298976030308
20
-42.729332541735054
30
0
11
-40.510298096742588
21
-42.729332541735054
31
0
0
LINE
5
297
100
AcDbEntity
8
0
100
AcDbLine
10
-40.510298096742588
20
-42.729332541735062
30
0
11
-40.510298096742602
21
-39.729332422525772
31
0
0
LINE
5
298
100
AcDbEntity
8
0
100
AcDbLine
10
-40.510298096742602
20
-39.729332422525772
30
0
11
-40.113298976030322
21
-39.729332422525772
31
0
0
LINE
5
299
100
AcDbEntity
8
0
100
AcDbLine
10
-41.197882973756762
20
-39.729332422525772
30
0
11
-41.197882973756748
21
-42.729332541735054
31
0
0
LINE
5
300
100
AcDbEntity
8
0
100
AcDbLine
10
-41.197882973756748
20
-42.729332541735062
30
0
11
-41.795426690187412
21
-42.729332541735062
31
0
0
LINE
5
301
100
AcDbEntity
8
0
100
AcDbLine
10
-41.795426690187412
20
-42.729332541735062
30
0
11
-42.505523049440356
21
-40.605185126573929
31
0
0
SPLINE
5
302
100
AcDbEntity
8
0
100
AcDbSpline
70
0
71
2
72
6
73
3
74
0
42
0.000000001
43
0.0000000001
44
0.0000000001
40
0
40
0
40
0
40
1
40
1
40
1
10
-42.505523049440356
20
-40.605185126573929
30
0
10
-42.603749119844409
20
-40.308459197790512
30
0
10
-42.648769700136157
20
-40.161119496137985
30
0
0
SPLINE
5
303
100
AcDbEntity
8
0
100
AcDbSpline
70
0
71
2
72
6
73
3
74
0
42
0.000000001
43
0.0000000001
44
0.0000000001
40
0
40
0
40
0
40
1
40
1
40
1
10
-42.648769700136157
20
-40.161119496137985
30
0
10
-42.69992955883977
20
-40.324830507547745
30
0
10
-42.808387362565966
20
-40.642019902975449
30
0
0
LINE
5
304
100
AcDbEntity
8
0
100
AcDbLine
10
-42.808387362565966
20
-40.642019902975449
30
0
11
-43.526668631639438
21
-42.729332541735062
31
0
0
LINE
5
305
100
AcDbEntity
8
0
100
AcDbLine
10
-43.526668631639438
20
-42.729332541735062
30
0
11
-44.060775124635654
21
-42.729332541735062
31
0
0
LINE
5
306
100
AcDbEntity
8
0
100
AcDbLine
10
-44.060775124635654
20
-42.729332541735062
30
0
11
-44.060775124635668
21
-39.729332422525772
31
0
0
LINE
5
307
100
AcDbEntity
8
0
100
AcDbLine
10
-44.060775124635668
20
-39.729332422525772
30
0
11
-43.678101384248706
21
-39.729332422525772
31
0
0
LINE
5
308
100
AcDbEntity
8
0
100
AcDbLine
10
-43.678101384248706
20
-39.729332422525772
30
0
11
-43.678101384248691
21
-42.240246629030594
31
0
0
LINE
5
309
100
AcDbEntity
8
0
100
AcDbLine
10
-43.678101384248706
20
-42.240246629030594
30
0
11
-42.806341731157282
21
-39.729332422525772
31
0
0
LINE
5
310
100
AcDbEntity
8
0
100
AcDbLine
10
-42.806341731157275
20
-39.729332422525772
30
0
11
-42.448223912324877
21
-39.729332422525772
31
0
0
LINE
5
311
100
AcDbEntity
8
0
100
AcDbLine
10
-42.448223912324877
20
-39.729332422525772
30
0
11
-41.580556714143711
21
-42.283220683843979
31
0
0
LINE
5
312
100
AcDbEntity
8
0
100
AcDbLine
10
-41.580556714143725
20
-42.283220683843979
30
0
11
-41.580556714143732
21
-39.729332422525772
31
0
0
LINE
5
313
100
AcDbEntity
8
0
100
AcDbLine
10
-41.580556714143725
20
-39.729332422525772
30
0
11
-41.197882973756762
21
-39.729332422525772
31
0
0
LINE
5
314
100
AcDbEntity
8
0
100
AcDbLine
10
8.2714690569657652
20
-39.306881972542897
30
0
11
8.2714690569657634
21
-42.306882091752186
31
0
0
LINE
5
315
100
AcDbEntity
8
0
100
AcDbLine
10
8.2714690569657634
20
-42.306882091752186
30
0
11
7.8744704205412219
21
-42.306882091752186
31
0
0
LINE
5
316
100
AcDbEntity
8
0
100
AcDbLine
10
7.8744704205412219
20
-42.306882091752186
30
0
11
7.8744704205412237
21
-39.306881972542897
31
0
0
LINE
5
317
100
AcDbEntity
8
0
100
AcDbLine
10
7.8744704205412237
20
-39.306881972542897
30
0
11
8.2714690569657652
21
-39.306881972542897
31
0
0
SPLINE
5
318
100
AcDbEntity
8
0
100
AcDbSpline
70
0
71
2
72
6
73
3
74
0
42
0.000000001
43
0.0000000001
44
0.0000000001
40
0
40
0
40
0
40
1
40
1
40
1
10
7.2953435707706777
20
-40.768000730267659
30
0
10
7.2953435707706769
20
-41.514931120864048
30
0
10
6.8942521441597302
20
-41.937509723893299
30
0
0
SPLINE
5
319
100
AcDbEntity
8
0
100
AcDbSpline
70
0
71
2
72
6
73
3
74
0
42
0.000000001
43
0.0000000001
44
0.0000000001
40
0
40
0
40
0
40
1
40
1
40
1
10
6.8942521441597302
20
-41.937509723893299
30
0
10
6.4931607175487827
20
-42.360088177910939
30
0
10
5.8587814796585391
20
-42.360088177910939
30
0
0
SPLINE
5
320
100
AcDbEntity
8
0
100
AcDbSpline
70
0
71
2
72
6
73
3
74
0
42
0.000000001
43
0.0000000001
44
0.0000000001
40
0
40
0
40
0
40
1
40
1
40
1
10
5.8587814796585391
20
-42.360088177910939
30
0
10
5.4433654177803348
20
-42.360088177910939
30
0
10
5.1098047125953983
20
-42.161588915578022
30
0
0
SPLINE
5
321
100
AcDbEntity
8
0
100
AcDbSpline
70
0
71
2
72
6
73
3
74
0
42
0.000000001
43
0.0000000001
44
0.0000000001
40
0
40
0
40
0
40
1
40
1
40
1
10
5.1098047125953983
20
-42.161588915578022
30
0
10
4.7762440074104626
20
-41.963089355221882
30
0
10
4.60127814895099
20
-41.608041622630253
30
0
0
SPLINE
5
322
100
AcDbEntity
8
0
100
AcDbSpline
70
0
71
2
72
6
73
3
74
0
42
0.000000001
43
0.0000000001
44
0.0000000001
40
0
40
0
40
0
40
1
40
1
40
1
10
4.60127814895099
20
-41.608041622630253
30
0
10
4.4263122904915173
20
-41.252993890038624
30
0
10
4.4263122904915182
20
-40.802789279214039
30
0
0
SPLINE
5
323
100
AcDbEntity
8
0
100
AcDbSpline
70
0
71
2
72
6
73
3
74
0
42
0.000000001
43
0.0000000001
44
0.0000000001
40
0
40
0
40
0
40
1
40
1
40
1
10
4.4263122904915182
20
-40.802789279214039
30
0
10
4.4263122904915182
20
-40.346445389977589
30
0
10
4.610486470522341
20
-39.986281641713269
30
0
0
SPLINE
5
324
100
AcDbEntity
8
0
100
AcDbSpline
70
0
71
2
72
6
73
3
74
0
42
0.000000001
43
0.0000000001
44
0.0000000001
40
0
40
0
40
0
40
1
40
1
40
1
10
4.610486470522341
20
-39.986281641713269
30
0
10
4.7946612465996123
20
-39.626117893448964
30
0
10
5.1323150027412741
20
-39.440920301667347
30
0
0
SPLINE
5
325
100
AcDbEntity
8
0
100
AcDbSpline
70
0
71
2
72
6
73
3
74
0
42
0.000000001
43
0.0000000001
44
0.0000000001
40
0
40
0
40
0
40
1
40
1
40
1
10
5.1323150027412741
20
-39.440920301667347
30
0
10
5.4699681628364889
20
-39.255722411862507
30
0
10
5.8608280051369039
20
-39.255722411862507
30
0
0
SPLINE
5
326
100
AcDbEntity
8
0
100
AcDbSpline
70
0
71
2
72
6
73
3
74
0
42
0.000000001
43
0.0000000001
44
0.0000000001
40
0
40
0
40
0
40
1
40
1
40
1
10
5.8608280051369039
20
-39.255722411862507
30
0
10
6.2844295728821127
20
-39.255722411862507
30
0
10
6.6179902780670492
20
-39.460360952607289
30
0
0
SPLINE
5
327
100
AcDbEntity
8
0
100
AcDbSpline
70
0
71
2
72
6
73
3
74
0
42
0.000000001
43
0.0000000001
44
0.0000000001
40
0
40
0
40
0
40
1
40
1
40
1
10
6.6179902780670492
20
-39.460360952607289
30
0
10
6.9515509832519857
20
-39.664999195328846
30
0
10
7.1234472025055258
20
-40.019023963204518
30
0
0
SPLINE
5
328
100
AcDbEntity
8
0
100
AcDbSpline
70
0
71
2
72
6
73
3
74
0
42
0.000000001
43
0.0000000001
44
0.0000000001
40
0
40
0
40
0
40
1
40
1
40
1
10
7.1234472025055258
20
-40.019023963204518
30
0
10
7.2953435707706777
20
-40.373048433056965
30
0
10
7.2953435707706777
20
-40.768000730267659
30
0
0
SPLINE
5
329
100
AcDbEntity
8
0
100
AcDbSpline
70
0
71
2
72
6
73
3
74
0
42
0.000000001
43
0.0000000001
44
0.0000000001
40
0
40
0
40
0
40
1
40
1
40
1
10
6.8860666382927267
20
-40.761861600867405
30
0
10
6.8860666382927267
20
-40.219569452992573
30
0
10
6.5944568741936056
20
-39.907495924225941
30
0
0
SPLINE
5
330
100
AcDbEntity
8
0
100
AcDbSpline
70
0
71
2
72
6
73
3
74
0
42
0.000000001
43
0.0000000001
44
0.0000000001
40
0
40
0
40
0
40
1
40
1
40
1
10
6.5944568741936056
20
-39.907495924225941
30
0
10
6.3028469610828726
20
-39.595422097436085
30
0
10
5.8628742325920431
20
-39.595422097436085
30
0
0
SPLINE
5
331
100
AcDbEntity
8
0
100
AcDbSpline
70
0
71
2
72
6
73
3
74
0
42
0.000000001
43
0.0000000001
44
0.0000000001
40
0
40
0
40
0
40
1
40
1
40
1
10
5.8628742325920431
20
-39.595422097436085
30
0
10
5.4147158492225973
20
-39.595422097436085
30
0
10
5.1251523125786154
20
-39.910565563431874
30
0
0
SPLINE
5
332
100
AcDbEntity
8
0
100
AcDbSpline
70
0
71
2
72
6
73
3
74
0
42
0.000000001
43
0.0000000001
44
0.0000000001
40
0
40
0
40
0
40
1
40
1
40
1
10
5.1251523125786154
20
-39.910565563431874
30
0
10
4.8355890739578573
20
-40.225708731404438
30
0
10
4.8355890739578573
20
-40.80483565568079
30
0
0
SPLINE
5
333
100
AcDbEntity
8
0
100
AcDbSpline
70
0
71
2
72
6
73
3
74
0
42
0.000000001
43
0.0000000001
44
0.0000000001
40
0
40
0
40
0
40
1
40
1
40
1
10
4.8355890739578573
20
-40.80483565568079
30
0
10
4.8355890739578573
20
-41.171138533345356
30
0
10
4.9593953717369397
20
-41.444330909243718
30
0
0
SPLINE
5
334
100
AcDbEntity
8
0
100
AcDbSpline
70
0
71
2
72
6
73
3
74
0
42
0.000000001
43
0.0000000001
44
0.0000000001
40
0
40
0
40
0
40
1
40
1
40
1
10
4.9593953717369397
20
-41.444330909243718
30
0
10
5.0832016695160229
20
-41.717523285142079
30
0
10
5.3216056454796155
20
-41.867932626000538
30
0
0
SPLINE
5
335
100
AcDbEntity
8
0
100
AcDbSpline
70
0
71
2
72
6
73
3
74
0
42
0.000000001
43
0.0000000001
44
0.0000000001
40
0
40
0
40
0
40
1
40
1
40
1
10
5.3216056454796155
20
-41.867932626000538
30
0
10
5.5600093234199832
20
-42.018341966858998
30
0
10
5.8567349541801761
20
-42.018341966858998
30
0
0
SPLINE
5
336
100
AcDbEntity
8
0
100
AcDbSpline
70
0
71
2
72
6
73
3
74
0
42
0.000000001
43
0.0000000001
44
0.0000000001
40
0
40
0
40
0
40
1
40
1
40
1
10
5.8567349541801761
20
-42.018341966858998
30
0
10
6.2782902944702466
20
-42.018341966858998
30
0
10
6.5821784663814862
20
-41.728778430215016
30
0
0
SPLINE
5
337
100
AcDbEntity
8
0
100
AcDbSpline
70
0
71
2
72
6
73
3
74
0
42
0.000000001
43
0.0000000001
44
0.0000000001
40
0
40
0
40
0
40
1
40
1
40
1
10
6.5821784663814862
20
-41.728778430215016
30
0
10
6.8860666382927258
20
-41.439214893571034
30
0
10
6.8860666382927267
20
-40.761861600867405
30
0
0
LINE
5
338
100
AcDbEntity
8
0
100
AcDbLine
10
-79.225530943034258
20
-39.306881972542882
30
0
11
-79.225530943034258
21
-42.306882091752172
31
0
0
LINE
5
339
100
AcDbEntity
8
0
100
AcDbLine
10
-79.225530943034258
20
-42.306882091752172
30
0
11
-79.622529579458799
21
-42.306882091752172
31
0
0
LINE
5
340
100
AcDbEntity
8
0
100
AcDbLine
10
-79.622529579458799
20
-42.306882091752172
30
0
11
-79.622529579458799
21
-39.306881972542882
31
0
0
LINE
5
341
100
AcDbEntity
8
0
100
AcDbLine
10
-79.622529579458799
20
-39.306881972542882
30
0
11
-79.225530943034258
21
-39.306881972542882
31
0
0
SPLINE
5
342
100
AcDbEntity
8
0
100
AcDbSpline
70
0
71
2
72
6
73
3
74
0
42
0.000000001
43
0.0000000001
44
0.0000000001
40
0
40
0
40
0
40
1
40
1
40
1
10
-80.201656429229345
20
-40.768000730267644
30
0
10
-80.201656429229345
20
-41.514931120864034
30
0
10
-80.602747855840292
20
-41.937509723893285
30
0
0
SPLINE
5
343
100
AcDbEntity
8
0
100
AcDbSpline
70
0
71
2
72
6
73
3
74
0
42
0.000000001
43
0.0000000001
44
0.0000000001
40
0
40
0
40
0
40
1
40
1
40
1
10
-80.602747855840292
20
-41.937509723893285
30
0
10
-81.003839282451239
20
-42.360088177910924
30
0
10
-81.638218520341482
20
-42.360088177910924
30
0
0
SPLINE
5
344
100
AcDbEntity
8
0
100
AcDbSpline
70
0
71
2
72
6
73
3
74
0
42
0.000000001
43
0.0000000001
44
0.0000000001
40
0
40
0
40
0
40
1
40
1
40
1
10
-81.638218520341482
20
-42.360088177910924
30
0
10
-82.053634582219686
20
-42.360088177910924
30
0
10
-82.387195287404623
20
-42.161588915578008
30
0
0
SPLINE
5
345
100
AcDbEntity
8
0
100
AcDbSpline
70
0
71
2
72
6
73
3
74
0
42
0.000000001
43
0.0000000001
44
0.0000000001
40
0
40
0
40
0
40
1
40
1
40
1
10
-82.387195287404623
20
-42.161588915578008
30
0
10
-82.720755992589559
20
-41.963089355221868
30
0
10
-82.895721851049032
20
-41.608041622630239
30
0
0
SPLINE
5
346
100
AcDbEntity
8
0
100
AcDbSpline
70
0
71
2
72
6
73
3
74
0
42
0.000000001
43
0.0000000001
44
0.0000000001
40
0
40
0
40
0
40
1
40
1
40
1
10
-82.895721851049032
20
-41.608041622630239
30
0
10
-83.070687709508505
20
-41.25299389003861
30
0
10
-83.070687709508505
20
-40.802789279214025
30
0
0
SPLINE
5
347
100
AcDbEntity
8
0
100
AcDbSpline
70
0
71
2
72
6
73
3
74
0
42
0.000000001
43
0.0000000001
44
0.0000000001
40
0
40
0
40
0
40
1
40
1
40
1
10
-83.070687709508505
20
-40.802789279214025
30
0
10
-83.070687709508505
20
-40.346445389977575
30
0
10
-82.886513529477682
20
-39.986281641713262
30
0
0
SPLINE
5
348
100
AcDbEntity
8
0
100
AcDbSpline
70
0
71
2
72
6
73
3
74
0
42
0.000000001
43
0.0000000001
44
0.0000000001
40
0
40
0
40
0
40
1
40
1
40
1
10
-82.886513529477682
20
-39.986281641713262
30
0
10
-82.702338753400412
20
-39.626117893448949
30
0
10
-82.364684997258749
20
-39.440920301667333
30
0
0
SPLINE
5
349
100
AcDbEntity
8
0
100
AcDbSpline
70
0
71
2
72
6
73
3
74
0
42
0.000000001
43
0.0000000001
44
0.0000000001
40
0
40
0
40
0
40
1
40
1
40
1
10
-82.364684997258749
20
-39.440920301667333
30
0
10
-82.027031837163534
20
-39.255722411862493
30
0
10
-81.636171994863119
20
-39.255722411862493
30
0
0
SPLINE
5
350
100
AcDbEntity
8
0
100
AcDbSpline
70
0
71
2
72
6
73
3
74
0
42
0.000000001
43
0.0000000001
44
0.0000000001
40
0
40
0
40
0
40
1
40
1
40
1
10
-81.636171994863119
20
-39.255722411862493
30
0
10
-81.21257042711791
20
-39.255722411862493
30
0
10
-80.879009721932974
20
-39.460360952607274
30
0
0
SPLINE
5
351
100
AcDbEntity
8
0
100
AcDbSpline
70
0
71
2
72
6
73
3
74
0
42
0.000000001
43
0.0000000001
44
0.0000000001
40
0
40
0
40
0
40
1
40
1
40
1
10
-80.879009721932974
20
-39.460360952607274
30
0
10
-80.545449016748037
20
-39.664999195328832
30
0
10
-80.373552797494497
20
-40.019023963204504
30
0
0
SPLINE
5
352
100
AcDbEntity
8
0
100
AcDbSpline
70
0
71
2
72
6
73
3
74
0
42
0.000000001
43
0.0000000001
44
0.0000000001
40
0
40
0
40
0
40
1
40
1
40
1
10
-80.373552797494497
20
-40.019023963204504
30
0
10
-80.201656429229345
20
-40.373048433056951
30
0
10
-80.201656429229345
20
-40.768000730267644
30
0
0
SPLINE
5
353
100
AcDbEntity
8
0
100
AcDbSpline
70
0
71
2
72
6
73
3
74
0
42
0.000000001
43
0.0000000001
44
0.0000000001
40
0
40
0
40
0
40
1
40
1
40
1
10
-80.610933361707296
20
-40.761861600867391
30
0
10
-80.610933361707296
20
-40.219569452992559
30
0
10
-80.902543125806417
20
-39.907495924225927
30
0
0
SPLINE
5
354
100
AcDbEntity
8
0
100
AcDbSpline
70
0
71
2
72
6
73
3
74
0
42
0.000000001
43
0.0000000001
44
0.0000000001
40
0
40
0
40
0
40
1
40
1
40
1
10
-80.902543125806417
20
-39.907495924225927
30
0
10
-81.19415303891715
20
-39.595422097436071
30
0
10
-81.63412576740798
20
-39.595422097436071
30
0
0
SPLINE
5
355
100
AcDbEntity
8
0
100
AcDbSpline
70
0
71
2
72
6
73
3
74
0
42
0.000000001
43
0.0000000001
44
0.0000000001
40
0
40
0
40
0
40
1
40
1
40
1
10
-81.63412576740798
20
-39.595422097436071
30
0
10
-82.082284150777426
20
-39.595422097436071
30
0
10
-82.371847687421408
20
-39.910565563431859
30
0
0
SPLINE
5
356
100
AcDbEntity
8
0
100
AcDbSpline
70
0
71
2
72
6
73
3
74
0
42
0.000000001
43
0.0000000001
44
0.0000000001
40
0
40
0
40
0
40
1
40
1
40
1
10
-82.371847687421408
20
-39.910565563431859
30
0
10
-82.661410926042166
20
-40.225708731404424
30
0
10
-82.661410926042166
20
-40.804835655680776
30
0
0
SPLINE
5
357
100
AcDbEntity
8
0
100
AcDbSpline
70
0
71
2
72
6
73
3
74
0
42
0.000000001
43
0.0000000001
44
0.0000000001
40
0
40
0
40
0
40
1
40
1
40
1
10
-82.661410926042166
20
-40.804835655680776
30
0
10
-82.661410926042166
20
-41.171138533345342
30
0
10
-82.537604628263082
20
-41.444330909243703
30
0
0
SPLINE
5
358
100
AcDbEntity
8
0
100
AcDbSpline
70
0
71
2
72
6
73
3
74
0
42
0.000000001
43
0.0000000001
44
0.0000000001
40
0
40
0
40
0
40
1
40
1
40
1
10
-82.537604628263082
20
-41.444330909243703
30
0
10
-82.413798330483999
20
-41.717523285142065
30
0
10
-82.175394354520407
20
-41.867932626000524
30
0
0
SPLINE
5
359
100
AcDbEntity
8
0
100
AcDbSpline
70
0
71
2
72
6
73
3
74
0
42
0.000000001
43
0.0000000001
44
0.0000000001
40
0
40
0
40
0
40
1
40
1
40
1
10
-82.175394354520407
20
-41.867932626000524
30
0
10
-81.936990676580038
20
-42.018341966858983
30
0
10
-81.640265045819845
20
-42.018341966858983
30
0
0
SPLINE
5
360
100
AcDbEntity
8
0
100
AcDbSpline
70
0
71
2
72
6
73
3
74
0
42
0.000000001
43
0.0000000001
44
0.0000000001
40
0
40
0
40
0
40
1
40
1
40
1
10
-81.640265045819845
20
-42.018341966858983
30
0
10
-81.218709705529776
20
-42.018341966858983
30
0
10
-80.914821533618536
20
-41.728778430215002
30
0
0
SPLINE
5
361
100
AcDbEntity
8
0
100
AcDbSpline
70
0
71
2
72
6
73
3
74
0
42
0.000000001
43
0.0000000001
44
0.0000000001
40
0
40
0
40
0
40
1
40
1
40
1
10
-80.914821533618536
20
-41.728778430215002
30
0
10
-80.610933361707296
20
-41.43921489357102
30
0
10
-80.610933361707296
20
-40.761861600867391
30
0
0
LINE
5
362
100
AcDbEntity
8
0
100
AcDbLine
10
33.211004073979325
20
-15.341158373940395
30
0
11
33.211004073979325
21
-18.341158493149685
31
0
0
LINE
5
363
100
AcDbEntity
8
0
100
AcDbLine
10
33.211004073979325
20
-18.341158493149685
30
0
11
32.613459761502213
21
-18.341158493149685
31
0
0
LINE
5
364
100
AcDbEntity
8
0
100
AcDbLine
10
32.613459761502213
20
-18.341158493149685
30
0
11
31.903364370824761
21
-16.217011077988552
31
0
0
SPLINE
5
365
100
AcDbEntity
8
0
100
AcDbSpline
70
0
71
2
72
6
73
3
74
0
42
0.000000001
43
0.0000000001
44
0.0000000001
40
0
40
0
40
0
40
1
40
1
40
1
10
31.903364370824761
20
-16.217011077988552
30
0
10
31.80513770437426
20
-15.920285149205135
30
0
10
31.760117422105736
20
-15.772945447552608
30
0
0
SPLINE
5
366
100
AcDbEntity
8
0
100
AcDbSpline
70
0
71
2
72
6
73
3
74
0
42
0.000000001
43
0.0000000001
44
0.0000000001
40
0
40
0
40
0
40
1
40
1
40
1
10
31.760117422105736
20
-15.772945447552608
30
0
10
31.708957861425347
20
-15.936656458962368
30
0
10
31.600499461652703
20
-16.253845854390072
30
0
0
LINE
5
367
100
AcDbEntity
8
0
100
AcDbLine
10
31.600499461652703
20
-16.253845854390072
30
0
11
30.88221849060244
21
-18.341158493149685
31
0
0
LINE
5
368
100
AcDbEntity
8
0
100
AcDbLine
10
30.88221849060244
20
-18.341158493149685
30
0
11
30.348111997606225
21
-18.341158493149685
31
0
0
LINE
5
369
100
AcDbEntity
8
0
100
AcDbLine
10
30.348111997606225
20
-18.341158493149685
30
0
11
30.348111997606225
21
-15.341158373940395
31
0
0
LINE
5
370
100
AcDbEntity
8
0
100
AcDbLine
10
30.348111997606225
20
-15.341158373940393
30
0
11
30.730786036016411
21
-15.341158373940393
31
0
0
LINE
5
371
100
AcDbEntity
8
0
100
AcDbLine
10
30.730786036016411
20
-15.341158373940393
30
0
11
30.730786036016411
21
-17.852072580445217
31
0
0
LINE
5
372
100
AcDbEntity
8
0
100
AcDbLine
10
30.730786036016411
20
-17.852072580445217
30
0
11
31.602545689107842
21
-15.341158373940395
31
0
0
LINE
5
373
100
AcDbEntity
8
0
100
AcDbLine
10
31.602545689107842
20
-15.341158373940395
30
0
11
31.960663209917016
21
-15.341158373940395
31
0
0
LINE
5
374
100
AcDbEntity
8
0
100
AcDbLine
10
31.960663209917016
20
-15.341158373940395
30
0
11
32.828330110074944
21
-17.895046635258602
31
0
0
LINE
5
375
100
AcDbEntity
8
0
100
AcDbLine
10
32.828330110074944
20
-17.895046635258602
30
0
11
32.828330110074944
21
-15.341158373940395
31
0
0
LINE
5
376
100
AcDbEntity
8
0
100
AcDbLine
10
32.828330110074944
20
-15.341158373940395
30
0
11
33.211004073979325
21
-15.341158373940395
31
0
0
SPLINE
5
377
100
AcDbEntity
8
0
100
AcDbSpline
70
0
71
2
72
6
73
3
74
0
42
0.000000001
43
0.0000000001
44
0.0000000001
40
0
40
0
40
0
40
1
40
1
40
1
10
29.828330288888878
20
-16.802277131665157
30
0
10
29.828330288888878
20
-17.549207522261547
30
0
10
29.42723871326632
20
-17.971786125290798
30
0
0
SPLINE
5
378
100
AcDbEntity
8
0
100
AcDbSpline
70
0
71
2
72
6
73
3
74
0
42
0.000000001
43
0.0000000001
44
0.0000000001
40
0
40
0
40
0
40
1
40
1
40
1
10
29.42723871326632
20
-17.971786125290798
30
0
10
29.026147435666985
20
-18.394364579308437
30
0
10
28.391768346788353
20
-18.394364579308437
30
0
0
SPLINE
5
379
100
AcDbEntity
8
0
100
AcDbSpline
70
0
71
2
72
6
73
3
74
0
42
0.000000001
43
0.0000000001
44
0.0000000001
40
0
40
0
40
0
40
1
40
1
40
1
10
28.391768346788353
20
-18.394364579308437
30
0
10
27.976351986886925
20
-18.394364579308437
30
0
10
27.642791281701989
20
-18.195865316975521
30
0
0
SPLINE
5
380
100
AcDbEntity
8
0
100
AcDbSpline
70
0
71
2
72
6
73
3
74
0
42
0.000000001
43
0.0000000001
44
0.0000000001
40
0
40
0
40
0
40
1
40
1
40
1
10
27.642791281701989
20
-18.195865316975521
30
0
10
27.309230576517052
20
-17.997365756619381
30
0
10
27.13426471805758
20
-17.642318024027752
30
0
0
SPLINE
5
381
100
AcDbEntity
8
0
100
AcDbSpline
70
0
71
2
72
6
73
3
74
0
42
0.000000001
43
0.0000000001
44
0.0000000001
40
0
40
0
40
0
40
1
40
1
40
1
10
27.13426471805758
20
-17.642318024027752
30
0
10
26.959298859598107
20
-17.287270291436123
30
0
10
26.959298859598107
20
-16.837065680611538
30
0
0
SPLINE
5
382
100
AcDbEntity
8
0
100
AcDbSpline
70
0
71
2
72
6
73
3
74
0
42
0.000000001
43
0.0000000001
44
0.0000000001
40
0
40
0
40
0
40
1
40
1
40
1
10
26.959298859598107
20
-16.837065680611538
30
0
10
26.959298859598107
20
-16.380721791375088
30
0
10
27.14347303962893
20
-16.020558043110775
30
0
0
SPLINE
5
383
100
AcDbEntity
8
0
100
AcDbSpline
70
0
71
2
72
6
73
3
74
0
42
0.000000001
43
0.0000000001
44
0.0000000001
40
0
40
0
40
0
40
1
40
1
40
1
10
27.14347303962893
20
-16.020558043110775
30
0
10
27.3276478157062
20
-15.66039429484646
30
0
10
27.665301571847863
20
-15.475196703064844
30
0
0
SPLINE
5
384
100
AcDbEntity
8
0
100
AcDbSpline
70
0
71
2
72
6
73
3
74
0
42
0.000000001
43
0.0000000001
44
0.0000000001
40
0
40
0
40
0
40
1
40
1
40
1
10
27.665301571847863
20
-15.475196703064844
30
0
10
28.002955327989525
20
-15.289998813260004
30
0
10
28.393814574243493
20
-15.289998813260004
30
0
0
SPLINE
5
385
100
AcDbEntity
8
0
100
AcDbSpline
70
0
71
2
72
6
73
3
74
0
42
0.000000001
43
0.0000000001
44
0.0000000001
40
0
40
0
40
0
40
1
40
1
40
1
10
28.393814574243493
20
-15.289998813260004
30
0
10
28.817416141988701
20
-15.289998813260004
30
0
10
29.150976847173638
20
-15.494637354004785
30
0
0
SPLINE
5
386
100
AcDbEntity
8
0
100
AcDbSpline
70
0
71
2
72
6
73
3
74
0
42
0.000000001
43
0.0000000001
44
0.0000000001
40
0
40
0
40
0
40
1
40
1
40
1
10
29.150976847173638
20
-15.494637354004785
30
0
10
29.484537552358574
20
-15.699275596726343
30
0
10
29.656434069635338
20
-16.053300364602016
30
0
0
SPLINE
5
387
100
AcDbEntity
8
0
100
AcDbSpline
70
0
71
2
72
6
73
3
74
0
42
0.000000001
43
0.0000000001
44
0.0000000001
40
0
40
0
40
0
40
1
40
1
40
1
10
29.656434069635338
20
-16.053300364602016
30
0
10
29.828330288888878
20
-16.407324834454464
30
0
10
29.828330288888878
20
-16.802277131665157
30
0
0
SPLINE
5
388
100
AcDbEntity
8
0
100
AcDbSpline
70
0
71
2
72
6
73
3
74
0
42
0.000000001
43
0.0000000001
44
0.0000000001
40
0
40
0
40
0
40
1
40
1
40
1
10
29.419053207399315
20
-16.796138002264904
30
0
10
29.419053207399315
20
-16.253845854390072
30
0
10
29.127443443300194
20
-15.941772325623438
30
0
0
SPLINE
5
389
100
AcDbEntity
8
0
100
AcDbSpline
70
0
71
2
72
6
73
3
74
0
42
0.000000001
43
0.0000000001
44
0.0000000001
40
0
40
0
40
0
40
1
40
1
40
1
10
29.127443443300194
20
-15.941772325623438
30
0
10
28.835833679201073
20
-15.629698498833582
30
0
10
28.395860801698632
20
-15.629698498833582
30
0
0
SPLINE
5
390
100
AcDbEntity
8
0
100
AcDbSpline
70
0
71
2
72
6
73
3
74
0
42
0.000000001
43
0.0000000001
44
0.0000000001
40
0
40
0
40
0
40
1
40
1
40
1
10
28.395860801698632
20
-15.629698498833582
30
0
10
27.947703014375634
20
-15.629698498833582
30
0
10
27.658138881685204
20
-15.94484196482937
30
0
0
SPLINE
5
391
100
AcDbEntity
8
0
100
AcDbSpline
70
0
71
2
72
6
73
3
74
0
42
0.000000001
43
0.0000000001
44
0.0000000001
40
0
40
0
40
0
40
1
40
1
40
1
10
27.658138881685204
20
-15.94484196482937
30
0
10
27.36857594108767
20
-16.259985132801937
30
0
10
27.36857594108767
20
-16.839112057078289
30
0
0
SPLINE
5
392
100
AcDbEntity
8
0
100
AcDbSpline
70
0
71
2
72
6
73
3
74
0
42
0.000000001
43
0.0000000001
44
0.0000000001
40
0
40
0
40
0
40
1
40
1
40
1
10
27.36857594108767
20
-16.839112057078289
30
0
10
27.36857594108767
20
-17.205414934742855
30
0
10
27.492381940843529
20
-17.478607310641216
30
0
0
SPLINE
5
393
100
AcDbEntity
8
0
100
AcDbSpline
70
0
71
2
72
6
73
3
74
0
42
0.000000001
43
0.0000000001
44
0.0000000001
40
0
40
0
40
0
40
1
40
1
40
1
10
27.492381940843529
20
-17.478607310641216
30
0
10
27.616188536645836
20
-17.751799686539577
30
0
10
27.854592214586205
20
-17.902209027398037
30
0
0
SPLINE
5
394
100
AcDbEntity
8
0
100
AcDbSpline
70
0
71
2
72
6
73
3
74
0
42
0.000000001
43
0.0000000001
44
0.0000000001
40
0
40
0
40
0
40
1
40
1
40
1
10
27.854592214586205
20
-17.902209027398037
30
0
10
28.092995892526574
20
-18.052618368256496
30
0
10
28.389721523286767
20
-18.052618368256496
30
0
0
SPLINE
5
395
100
AcDbEntity
8
0
100
AcDbSpline
70
0
71
2
72
6
73
3
74
0
42
0.000000001
43
0.0000000001
44
0.0000000001
40
0
40
0
40
0
40
1
40
1
40
1
10
28.389721523286767
20
-18.052618368256496
30
0
10
28.81127716160006
20
-18.052618368256496
30
0
10
29.115165184499688
20
-17.763054831612514
30
0
0
SPLINE
5
396
100
AcDbEntity
8
0
100
AcDbSpline
70
0
71
2
72
6
73
3
74
0
42
0.000000001
43
0.0000000001
44
0.0000000001
40
0
40
0
40
0
40
1
40
1
40
1
10
29.115165184499688
20
-17.763054831612514
30
0
10
29.419053207399315
20
-17.473491294968532
30
0
10
29.419053207399315
20
-16.796138002264904
30
0
0
LINE
5
397
100
AcDbEntity
8
0
100
AcDbLine
10
25.684400211336083
20
-15.341158373940393
30
0
11
25.684400211336083
21
-17.987133725274013
31
0
0
LINE
5
398
100
AcDbEntity
8
0
100
AcDbLine
10
25.684400211336083
20
-17.987133725274013
30
0
11
26.67280436611361
21
-17.987133725274013
31
0
0
LINE
5
399
100
AcDbEntity
8
0
100
AcDbLine
10
26.67280436611361
20
-17.987133725274013
30
0
11
26.67280436611361
21
-18.341158493149685
31
0
0
LINE
5
400
100
AcDbEntity
8
0
100
AcDbLine
10
26.67280436611361
20
-18.341158493149685
30
0
11
24.294905076982445
21
-18.341158493149685
31
0
0
LINE
5
401
100
AcDbEntity
8
0
100
AcDbLine
10
24.294905076982445
20
-18.341158493149685
30
0
11
24.294905076982445
21
-17.987133725274013
31
0
0
LINE
5
402
100
AcDbEntity
8
0
100
AcDbLine
10
24.294905076982445
20
-17.987133725274013
30
0
11
25.28740168667025
21
-17.987133725274013
31
0
0
LINE
5
403
100
AcDbEntity
8
0
100
AcDbLine
10
25.28740168667025
20
-17.987133725274013
30
0
11
25.28740168667025
21
-15.341158373940393
31
0
0
LINE
5
404
100
AcDbEntity
8
0
100
AcDbLine
10
25.28740168667025
20
-15.341158373940393
30
0
11
25.684400211336083
21
-15.341158373940393
31
0
0
SPLINE
5
405
100
AcDbEntity
8
0
100
AcDbSpline
70
0
71
2
72
6
73
3
74
0
42
0.000000001
43
0.0000000001
44
0.0000000001
40
0
40
0
40
0
40
1
40
1
40
1
10
24.08412815189547
20
-16.802277131665157
30
0
10
24.08412815189547
20
-17.549207522261547
30
0
10
23.683036576272912
20
-17.971786125290798
30
0
0
SPLINE
5
406
100
AcDbEntity
8
0
100
AcDbSpline
70
0
71
2
72
6
73
3
74
0
42
0.000000001
43
0.0000000001
44
0.0000000001
40
0
40
0
40
0
40
1
40
1
40
1
10
23.683036576272912
20
-17.971786125290798
30
0
10
23.281945596696801
20
-18.394364579308437
30
0
10
22.647566209794945
20
-18.394364579308437
30
0
0
SPLINE
5
407
100
AcDbEntity
8
0
100
AcDbSpline
70
0
71
2
72
6
73
3
74
0
42
0.000000001
43
0.0000000001
44
0.0000000001
40
0
40
0
40
0
40
1
40
1
40
1
10
22.647566209794945
20
-18.394364579308437
30
0
10
22.232150445939965
20
-18.394364579308434
30
0
10
21.898589740755028
20
-18.195865316975517
30
0
0
SPLINE
5
408
100
AcDbEntity
8
0
100
AcDbSpline
70
0
71
2
72
6
73
3
74
0
42
0.000000001
43
0.0000000001
44
0.0000000001
40
0
40
0
40
0
40
1
40
1
40
1
10
21.898589740755028
20
-18.195865316975517
30
0
10
21.565029035570092
20
-17.997365756619377
30
0
10
21.390063177110619
20
-17.642318024027748
30
0
0
SPLINE
5
409
100
AcDbEntity
8
0
100
AcDbSpline
70
0
71
2
72
6
73
3
74
0
42
0.000000001
43
0.0000000001
44
0.0000000001
40
0
40
0
40
0
40
1
40
1
40
1
10
21.390063177110619
20
-17.642318024027748
30
0
10
21.215097318651146
20
-17.287270291436119
30
0
10
21.215097318651146
20
-16.837065680611534
30
0
0
SPLINE
5
410
100
AcDbEntity
8
0
100
AcDbSpline
70
0
71
2
72
6
73
3
74
0
42
0.000000001
43
0.0000000001
44
0.0000000001
40
0
40
0
40
0
40
1
40
1
40
1
10
21.215097318651146
20
-16.837065680611534
30
0
10
21.215097318651146
20
-16.380721791375084
30
0
10
21.399270902635521
20
-16.020558043110771
30
0
0
SPLINE
5
411
100
AcDbEntity
8
0
100
AcDbSpline
70
0
71
2
72
6
73
3
74
0
42
0.000000001
43
0.0000000001
44
0.0000000001
40
0
40
0
40
0
40
1
40
1
40
1
10
21.399270902635521
20
-16.020558043110771
30
0
10
21.583445678712792
20
-15.660394294846459
30
0
10
21.921100030900902
20
-15.475196703064844
30
0
0
SPLINE
5
412
100
AcDbEntity
8
0
100
AcDbSpline
70
0
71
2
72
6
73
3
74
0
42
0.000000001
43
0.0000000001
44
0.0000000001
40
0
40
0
40
0
40
1
40
1
40
1
10
21.921100030900902
20
-15.475196703064844
30
0
10
22.258753190996117
20
-15.289998813260004
30
0
10
22.649611841203637
20
-15.289998813260004
30
0
0
SPLINE
5
413
100
AcDbEntity
8
0
100
AcDbSpline
70
0
71
2
72
6
73
3
74
0
42
0.000000001
43
0.0000000001
44
0.0000000001
40
0
40
0
40
0
40
1
40
1
40
1
10
22.649611841203637
20
-15.289998813260004
30
0
10
23.073213706972069
20
-15.289998813260004
30
0
10
23.406774412157006
20
-15.494637354004785
30
0
0
SPLINE
5
414
100
AcDbEntity
8
0
100
AcDbSpline
70
0
71
2
72
6
73
3
74
0
42
0.000000001
43
0.0000000001
44
0.0000000001
40
0
40
0
40
0
40
1
40
1
40
1
10
23.406774412157006
20
-15.494637354004785
30
0
10
23.74033571338839
20
-15.699275596726343
30
0
10
23.91223193264193
20
-16.053300364602016
30
0
0
SPLINE
5
415
100
AcDbEntity
8
0
100
AcDbSpline
70
0
71
2
72
6
73
3
74
0
42
0.000000001
43
0.0000000001
44
0.0000000001
40
0
40
0
40
0
40
1
40
1
40
1
10
23.91223193264193
20
-16.053300364602016
30
0
10
24.08412815189547
20
-16.407324834454464
30
0
10
24.08412815189547
20
-16.802277131665157
30
0
0
SPLINE
5
416
100
AcDbEntity
8
0
100
AcDbSpline
70
0
71
2
72
6
73
3
74
0
42
0.000000001
43
0.0000000001
44
0.0000000001
40
0
40
0
40
0
40
1
40
1
40
1
10
23.674851070405907
20
-16.796138002264904
30
0
10
23.674851070405907
20
-16.253845854390072
30
0
10
23.383241306306786
20
-15.941772325623438
30
0
0
SPLINE
5
417
100
AcDbEntity
8
0
100
AcDbSpline
70
0
71
2
72
6
73
3
74
0
42
0.000000001
43
0.0000000001
44
0.0000000001
40
0
40
0
40
0
40
1
40
1
40
1
10
23.383241306306786
20
-15.941772325623438
30
0
10
23.091631542207665
20
-15.629698498833582
30
0
10
22.651658664705224
20
-15.629698498833582
30
0
0
SPLINE
5
418
100
AcDbEntity
8
0
100
AcDbSpline
70
0
71
2
72
6
73
3
74
0
42
0.000000001
43
0.0000000001
44
0.0000000001
40
0
40
0
40
0
40
1
40
1
40
1
10
22.651658664705224
20
-15.629698498833582
30
0
10
22.203500877382226
20
-15.629698498833582
30
0
10
21.913936744691796
20
-15.94484196482937
30
0
0
SPLINE
5
419
100
AcDbEntity
8
0
100
AcDbSpline
70
0
71
2
72
6
73
3
74
0
42
0.000000001
43
0.0000000001
44
0.0000000001
40
0
40
0
40
0
40
1
40
1
40
1
10
21.913936744691796
20
-15.94484196482937
30
0
10
21.624373804094262
20
-16.259985132801933
30
0
10
21.624373804094262
20
-16.839112057078285
30
0
0
SPLINE
5
420
100
AcDbEntity
8
0
100
AcDbSpline
70
0
71
2
72
6
73
3
74
0
42
0.000000001
43
0.0000000001
44
0.0000000001
40
0
40
0
40
0
40
1
40
1
40
1
10
21.624373804094262
20
-16.839112057078285
30
0
10
21.624373804094262
20
-17.205414934742851
30
0
10
21.748179803850121
20
-17.478607310641213
30
0
0
SPLINE
5
421
100
AcDbEntity
8
0
100
AcDbSpline
70
0
71
2
72
6
73
3
74
0
42
0.000000001
43
0.0000000001
44
0.0000000001
40
0
40
0
40
0
40
1
40
1
40
1
10
21.748179803850121
20
-17.478607310641213
30
0
10
21.87198580360598
20
-17.751799686539574
30
0
10
22.110390077592797
20
-17.902209027398033
30
0
0
SPLINE
5
422
100
AcDbEntity
8
0
100
AcDbSpline
70
0
71
2
72
6
73
3
74
0
42
0.000000001
43
0.0000000001
44
0.0000000001
40
0
40
0
40
0
40
1
40
1
40
1
10
22.110390077592797
20
-17.902209027398033
30
0
10
22.348794351579613
20
-18.052618368256493
30
0
10
22.645519386293358
20
-18.052618368256496
30
0
0
SPLINE
5
423
100
AcDbEntity
8
0
100
AcDbSpline
70
0
71
2
72
6
73
3
74
0
42
0.000000001
43
0.0000000001
44
0.0000000001
40
0
40
0
40
0
40
1
40
1
40
1
10
22.645519386293358
20
-18.052618368256496
30
0
10
23.067074428560204
20
-18.052618368256496
30
0
10
23.370962749483056
20
-17.763054831612514
30
0
0
SPLINE
5
424
100
AcDbEntity
8
0
100
AcDbSpline
70
0
71
2
72
6
73
3
74
0
42
0.000000001
43
0.0000000001
44
0.0000000001
40
0
40
0
40
0
40
1
40
1
40
1
10
23.370962749483056
20
-17.763054831612514
30
0
10
23.674851070405907
20
-17.473491294968532
30
0
10
23.674851070405907
20
-16.796138002264904
30
0
0
LINE
5
425
100
AcDbEntity
8
0
100
AcDbLine
10
20.697360645296044
20
-15.341158373940392
30
0
11
20.697360645296044
21
-18.341158493149681
31
0
0
LINE
5
426
100
AcDbEntity
8
0
100
AcDbLine
10
20.697360645296044
20
-18.341158493149681
30
0
11
19.367210279466576
21
-18.341158493149681
31
0
0
SPLINE
5
427
100
AcDbEntity
8
0
100
AcDbSpline
70
0
71
2
72
6
73
3
74
0
42
0.000000001
43
0.0000000001
44
0.0000000001
40
0
40
0
40
0
40
1
40
1
40
1
10
19.367210279466576
20
-18.341158493149681
30
0
10
18.966118703844018
20
-18.341158493149681
30
0
10
18.757388006212182
20
-18.260326250183983
30
0
0
SPLINE
5
428
100
AcDbEntity
8
0
100
AcDbSpline
70
0
71
2
72
6
73
3
74
0
42
0.000000001
43
0.0000000001
44
0.0000000001
40
0
40
0
40
0
40
1
40
1
40
1
10
18.757388006212182
20
-18.260326250183983
30
0
10
18.548657308580346
20
-18.179494007218285
30
0
10
18.423827301027245
20
-17.974855466473503
30
0
0
SPLINE
5
429
100
AcDbEntity
8
0
100
AcDbSpline
70
0
71
2
72
6
73
3
74
0
42
0.000000001
43
0.0000000001
44
0.0000000001
40
0
40
0
40
0
40
1
40
1
40
1
10
18.423827301027245
20
-17.974855466473503
30
0
10
18.298997293474144
20
-17.770217074740334
30
0
10
18.298997293474144
20
-17.522604479182167
30
0
0
SPLINE
5
430
100
AcDbEntity
8
0
100
AcDbSpline
70
0
71
2
72
6
73
3
74
0
42
0.000000001
43
0.0000000001
44
0.0000000001
40
0
40
0
40
0
40
1
40
1
40
1
10
18.298997293474144
20
-17.522604479182167
30
0
10
18.298997293474144
20
-17.2033685582761
30
0
10
18.505682359697289
20
-16.984405382264061
30
0
0
SPLINE
5
431
100
AcDbEntity
8
0
100
AcDbSpline
70
0
71
2
72
6
73
3
74
0
42
0.000000001
43
0.0000000001
44
0.0000000001
40
0
40
0
40
0
40
1
40
1
40
1
10
18.505682359697289
20
-16.984405382264061
30
0
10
18.712367425920434
20
-16.765442206252022
30
0
10
19.144154201509423
20
-16.706096990693016
30
0
0
SPLINE
5
432
100
AcDbEntity
8
0
100
AcDbSpline
70
0
71
2
72
6
73
3
74
0
42
0.000000001
43
0.0000000001
44
0.0000000001
40
0
40
0
40
0
40
1
40
1
40
1
10
19.144154201509423
20
-16.706096990693016
30
0
10
18.9865833625812
20
-16.630380912411614
30
0
10
18.904727111818261
20
-16.556710763562126
30
0
0
SPLINE
5
433
100
AcDbEntity
8
0
100
AcDbSpline
70
0
71
2
72
6
73
3
74
0
42
0.000000001
43
0.0000000001
44
0.0000000001
40
0
40
0
40
0
40
1
40
1
40
1
10
18.904727111818261
20
-16.556710763562126
30
0
10
18.730785261156029
20
-16.397092803109093
30
0
10
18.575260053636498
20
-16.157666011441155
30
0
0
LINE
5
434
100
AcDbEntity
8
0
100
AcDbLine
10
18.575260053636498
20
-16.157666011441155
30
0
11
18.053430925371117
21
-15.341158373940392
31
0
0
LINE
5
435
100
AcDbEntity
8
0
100
AcDbLine
10
18.053430925371117
20
-15.341158373940392
30
0
11
18.552749763490624
21
-15.341158373940392
31
0
0
LINE
5
436
100
AcDbEntity
8
0
100
AcDbLine
10
18.552749763490624
20
-15.341158373940392
30
0
11
18.949747692110009
21
-15.96530572949688
31
0
0
SPLINE
5
437
100
AcDbEntity
8
0
100
AcDbSpline
70
0
71
2
72
6
73
3
74
0
42
0.000000001
43
0.0000000001
44
0.0000000001
40
0
40
0
40
0
40
1
40
1
40
1
10
18.949747692110009
20
-15.96530572949688
30
0
10
19.123690734865136
20
-16.23542861520092
30
0
10
19.236242185594506
20
-16.378675265896721
30
0
0
SPLINE
5
438
100
AcDbEntity
8
0
100
AcDbSpline
70
0
71
2
72
6
73
3
74
0
42
0.000000001
43
0.0000000001
44
0.0000000001
40
0
40
0
40
0
40
1
40
1
40
1
10
19.236242185594506
20
-16.378675265896721
30
0
10
19.34879244423098
20
-16.521922512638969
30
0
10
19.437810789110131
20
-16.579221053708
30
0
0
SPLINE
5
439
100
AcDbEntity
8
0
100
AcDbSpline
70
0
71
2
72
6
73
3
74
0
42
0.000000001
43
0.0000000001
44
0.0000000001
40
0
40
0
40
0
40
1
40
1
40
1
10
19.437810789110131
20
-16.579221053708
30
0
10
19.526829133989281
20
-16.636519892800255
30
0
10
19.618915925981469
20
-16.659030182946129
30
0
0
SPLINE
5
440
100
AcDbEntity
8
0
100
AcDbSpline
70
0
71
2
72
6
73
3
74
0
42
0.000000001
43
0.0000000001
44
0.0000000001
40
0
40
0
40
0
40
1
40
1
40
1
10
19.618915925981469
20
-16.659030182946129
30
0
10
19.686446796419091
20
-16.673354818213387
30
0
10
19.839925180437035
20
-16.673354818213387
30
0
0
LINE
5
441
100
AcDbEntity
8
0
100
AcDbLine
10
19.839925180437035
20
-16.673354818213387
30
0
11
20.300361524583764
21
-16.673354818213387
31
0
0
LINE
5
442
100
AcDbEntity
8
0
100
AcDbLine
10
20.300361524583764
20
-16.673354818213387
30
0
11
20.300361524583764
21
-15.341158373940392
31
0
0
LINE
5
443
100
AcDbEntity
8
0
100
AcDbLine
10
20.300361524583764
20
-15.341158373940392
30
0
11
20.697360645296044
21
-15.341158373940392
31
0
0
LINE
5
444
100
AcDbEntity
8
0
100
AcDbLine
10
20.300361524583764
20
-17.017147554743691
30
0
11
19.447019706727929
21
-17.017147554743691
31
0
0
SPLINE
5
445
100
AcDbEntity
8
0
100
AcDbSpline
70
0
71
2
72
6
73
3
74
0
42
0.000000001
43
0.0000000001
44
0.0000000001
40
0
40
0
40
0
40
1
40
1
40
1
10
19.447019706727929
20
-17.017147554743691
30
0
10
19.174850593568749
20
-17.017147554743691
30
0
10
19.021371017457909
20
-17.073423131096764
30
0
0
SPLINE
5
446
100
AcDbEntity
8
0
100
AcDbSpline
70
0
71
2
72
6
73
3
74
0
42
0.000000001
43
0.0000000001
44
0.0000000001
40
0
40
0
40
0
40
1
40
1
40
1
10
19.021371017457909
20
-17.073423131096764
30
0
10
18.867892633439965
20
-17.129698707449837
30
0
10
18.788083206178612
20
-17.25350500522892
30
0
0
SPLINE
5
447
100
AcDbEntity
8
0
100
AcDbSpline
70
0
71
2
72
6
73
3
74
0
42
0.000000001
43
0.0000000001
44
0.0000000001
40
0
40
0
40
0
40
1
40
1
40
1
10
18.788083206178612
20
-17.25350500522892
30
0
10
18.708274971010155
20
-17.377311153996391
30
0
10
18.708274971010155
20
-17.522604479182167
30
0
0
SPLINE
5
448
100
AcDbEntity
8
0
100
AcDbSpline
70
0
71
2
72
6
73
3
74
0
42
0.000000001
43
0.0000000001
44
0.0000000001
40
0
40
0
40
0
40
1
40
1
40
1
10
18.708274971010155
20
-17.522604479182167
30
0
10
18.708274971010155
20
-17.735428525793953
30
0
10
18.862776170732445
20
-17.872536345112724
30
0
0
SPLINE
5
449
100
AcDbEntity
8
0
100
AcDbSpline
70
0
71
2
72
6
73
3
74
0
42
0.000000001
43
0.0000000001
44
0.0000000001
40
0
40
0
40
0
40
1
40
1
40
1
10
18.862776170732445
20
-17.872536345112724
30
0
10
19.017278562547631
20
-18.009644015419884
30
0
10
19.350839267732567
20
-18.009644015419884
30
0
0
LINE
5
450
100
AcDbEntity
8
0
100
AcDbLine
10
19.350839267732567
20
-18.009644015419884
30
0
11
20.300361524583764
21
-18.009644015419884
31
0
0
LINE
5
451
100
AcDbEntity
8
0
100
AcDbLine
10
20.300361524583764
20
-18.009644015419884
30
0
11
20.300361524583764
21
-17.017147554743691
31
0
0
LINE
5
452
100
AcDbEntity
8
0
100
AcDbLine
10
-38.288995926020675
20
-15.341158373940395
30
0
11
-38.288995926020675
21
-18.341158493149685
31
0
0
LINE
5
453
100
AcDbEntity
8
0
100
AcDbLine
10
-38.288995926020675
20
-18.341158493149685
30
0
11
-38.886540238497787
21
-18.341158493149685
31
0
0
LINE
5
454
100
AcDbEntity
8
0
100
AcDbLine
10
-38.886540238497787
20
-18.341158493149685
30
0
11
-39.596635629175239
21
-16.217011077988552
31
0
0
SPLINE
5
455
100
AcDbEntity
8
0
100
AcDbSpline
70
0
71
2
72
6
73
3
74
0
42
0.000000001
43
0.0000000001
44
0.0000000001
40
0
40
0
40
0
40
1
40
1
40
1
10
-39.596635629175239
20
-16.217011077988552
30
0
10
-39.69486229562574
20
-15.920285149205135
30
0
10
-39.739882577894264
20
-15.772945447552608
30
0
0
SPLINE
5
456
100
AcDbEntity
8
0
100
AcDbSpline
70
0
71
2
72
6
73
3
74
0
42
0.000000001
43
0.0000000001
44
0.0000000001
40
0
40
0
40
0
40
1
40
1
40
1
10
-39.739882577894264
20
-15.772945447552608
30
0
10
-39.791042138574653
20
-15.936656458962368
30
0
10
-39.899500538347297
20
-16.253845854390072
30
0
0
LINE
5
457
100
AcDbEntity
8
0
100
AcDbLine
10
-39.899500538347297
20
-16.253845854390072
30
0
11
-40.61778150939756
21
-18.341158493149685
31
0
0
LINE
5
458
100
AcDbEntity
8
0
100
AcDbLine
10
-40.61778150939756
20
-18.341158493149685
30
0
11
-41.151888002393775
21
-18.341158493149685
31
0
0
LINE
5
459
100
AcDbEntity
8
0
100
AcDbLine
10
-41.151888002393775
20
-18.341158493149685
30
0
11
-41.151888002393775
21
-15.341158373940395
31
0
0
LINE
5
460
100
AcDbEntity
8
0
100
AcDbLine
10
-41.151888002393775
20
-15.341158373940393
30
0
11
-40.769213963983589
21
-15.341158373940393
31
0
0
LINE
5
461
100
AcDbEntity
8
0
100
AcDbLine
10
-40.769213963983589
20
-15.341158373940393
30
0
11
-40.769213963983589
21
-17.852072580445217
31
0
0
LINE
5
462
100
AcDbEntity
8
0
100
AcDbLine
10
-40.769213963983589
20
-17.852072580445217
30
0
11
-39.897454310892158
21
-15.341158373940395
31
0
0
LINE
5
463
100
AcDbEntity
8
0
100
AcDbLine
10
-39.897454310892158
20
-15.341158373940395
30
0
11
-39.539336790082984
21
-15.341158373940395
31
0
0
LINE
5
464
100
AcDbEntity
8
0
100
AcDbLine
10
-39.539336790082984
20
-15.341158373940395
30
0
11
-38.671669889925056
21
-17.895046635258602
31
0
0
LINE
5
465
100
AcDbEntity
8
0
100
AcDbLine
10
-38.671669889925056
20
-17.895046635258602
30
0
11
-38.671669889925056
21
-15.341158373940395
31
0
0
LINE
5
466
100
AcDbEntity
8
0
100
AcDbLine
10
-38.671669889925056
20
-15.341158373940395
30
0
11
-38.288995926020675
21
-15.341158373940395
31
0
0
SPLINE
5
467
100
AcDbEntity
8
0
100
AcDbSpline
70
0
71
2
72
6
73
3
74
0
42
0.000000001
43
0.0000000001
44
0.0000000001
40
0
40
0
40
0
40
1
40
1
40
1
10
-41.671669711111122
20
-16.802277131665157
30
0
10
-41.671669711111122
20
-17.549207522261547
30
0
10
-42.07276128673368
20
-17.971786125290798
30
0
0
SPLINE
5
468
100
AcDbEntity
8
0
100
AcDbSpline
70
0
71
2
72
6
73
3
74
0
42
0.000000001
43
0.0000000001
44
0.0000000001
40
0
40
0
40
0
40
1
40
1
40
1
10
-42.07276128673368
20
-17.971786125290798
30
0
10
-42.473852564333015
20
-18.394364579308437
30
0
10
-43.108231653211647
20
-18.394364579308437
30
0
0
SPLINE
5
469
100
AcDbEntity
8
0
100
AcDbSpline
70
0
71
2
72
6
73
3
74
0
42
0.000000001
43
0.0000000001
44
0.0000000001
40
0
40
0
40
0
40
1
40
1
40
1
10
-43.108231653211647
20
-18.394364579308437
30
0
10
-43.523648013113075
20
-18.394364579308437
30
0
10
-43.857208718298011
20
-18.195865316975521
30
0
0
SPLINE
5
470
100
AcDbEntity
8
0
100
AcDbSpline
70
0
71
2
72
6
73
3
74
0
42
0.000000001
43
0.0000000001
44
0.0000000001
40
0
40
0
40
0
40
1
40
1
40
1
10
-43.857208718298011
20
-18.195865316975521
30
0
10
-44.190769423482948
20
-17.997365756619381
30
0
10
-44.36573528194242
20
-17.642318024027752
30
0
0
SPLINE
5
471
100
AcDbEntity
8
0
100
AcDbSpline
70
0
71
2
72
6
73
3
74
0
42
0.000000001
43
0.0000000001
44
0.0000000001
40
0
40
0
40
0
40
1
40
1
40
1
10
-44.36573528194242
20
-17.642318024027752
30
0
10
-44.540701140401893
20
-17.287270291436123
30
0
10
-44.540701140401893
20
-16.837065680611538
30
0
0
SPLINE
5
472
100
AcDbEntity
8
0
100
AcDbSpline
70
0
71
2
72
6
73
3
74
0
42
0.000000001
43
0.0000000001
44
0.0000000001
40
0
40
0
40
0
40
1
40
1
40
1
10
-44.540701140401893
20
-16.837065680611538
30
0
10
-44.540701140401893
20
-16.380721791375088
30
0
10
-44.35652696037107
20
-16.020558043110775
30
0
0
SPLINE
5
473
100
AcDbEntity
8
0
100
AcDbSpline
70
0
71
2
72
6
73
3
74
0
42
0.000000001
43
0.0000000001
44
0.0000000001
40
0
40
0
40
0
40
1
40
1
40
1
10
-44.35652696037107
20
-16.020558043110775
30
0
10
-44.1723521842938
20
-15.66039429484646
30
0
10
-43.834698428152137
20
-15.475196703064844
30
0
0
SPLINE
5
474
100
AcDbEntity
8
0
100
AcDbSpline
70
0
71
2
72
6
73
3
74
0
42
0.000000001
43
0.0000000001
44
0.0000000001
40
0
40
0
40
0
40
1
40
1
40
1
10
-43.834698428152137
20
-15.475196703064844
30
0
10
-43.497044672010475
20
-15.289998813260004
30
0
10
-43.106185425756507
20
-15.289998813260004
30
0
0
SPLINE
5
475
100
AcDbEntity
8
0
100
AcDbSpline
70
0
71
2
72
6
73
3
74
0
42
0.000000001
43
0.0000000001
44
0.0000000001
40
0
40
0
40
0
40
1
40
1
40
1
10
-43.106185425756507
20
-15.289998813260004
30
0
10
-42.682583858011299
20
-15.289998813260004
30
0
10
-42.349023152826362
20
-15.494637354004785
30
0
0
SPLINE
5
476
100
AcDbEntity
8
0
100
AcDbSpline
70
0
71
2
72
6
73
3
74
0
42
0.000000001
43
0.0000000001
44
0.0000000001
40
0
40
0
40
0
40
1
40
1
40
1
10
-42.349023152826362
20
-15.494637354004785
30
0
10
-42.015462447641426
20
-15.699275596726343
30
0
10
-41.843565930364662
20
-16.053300364602016
30
0
0
SPLINE
5
477
100
AcDbEntity
8
0
100
AcDbSpline
70
0
71
2
72
6
73
3
74
0
42
0.000000001
43
0.0000000001
44
0.0000000001
40
0
40
0
40
0
40
1
40
1
40
1
10
-41.843565930364662
20
-16.053300364602016
30
0
10
-41.671669711111122
20
-16.407324834454464
30
0
10
-41.671669711111122
20
-16.802277131665157
30
0
0
SPLINE
5
478
100
AcDbEntity
8
0
100
AcDbSpline
70
0
71
2
72
6
73
3
74
0
42
0.000000001
43
0.0000000001
44
0.0000000001
40
0
40
0
40
0
40
1
40
1
40
1
10
-42.080946792600685
20
-16.796138002264904
30
0
10
-42.080946792600685
20
-16.253845854390072
30
0
10
-42.372556556699806
20
-15.941772325623438
30
0
0
SPLINE
5
479
100
AcDbEntity
8
0
100
AcDbSpline
70
0
71
2
72
6
73
3
74
0
42
0.000000001
43
0.0000000001
44
0.0000000001
40
0
40
0
40
0
40
1
40
1
40
1
10
-42.372556556699806
20
-15.941772325623438
30
0
10
-42.664166320798927
20
-15.629698498833582
30
0
10
-43.104139198301368
20
-15.629698498833582
30
0
0
SPLINE
5
480
100
AcDbEntity
8
0
100
AcDbSpline
70
0
71
2
72
6
73
3
74
0
42
0.000000001
43
0.0000000001
44
0.0000000001
40
0
40
0
40
0
40
1
40
1
40
1
10
-43.104139198301368
20
-15.629698498833582
30
0
10
-43.552296985624366
20
-15.629698498833582
30
0
10
-43.841861118314796
20
-15.94484196482937
30
0
0
SPLINE
5
481
100
AcDbEntity
8
0
100
AcDbSpline
70
0
71
2
72
6
73
3
74
0
42
0.000000001
43
0.0000000001
44
0.0000000001
40
0
40
0
40
0
40
1
40
1
40
1
10
-43.841861118314796
20
-15.94484196482937
30
0
10
-44.13142405891233
20
-16.259985132801937
30
0
10
-44.13142405891233
20
-16.839112057078289
30
0
0
SPLINE
5
482
100
AcDbEntity
8
0
100
AcDbSpline
70
0
71
2
72
6
73
3
74
0
42
0.000000001
43
0.0000000001
44
0.0000000001
40
0
40
0
40
0
40
1
40
1
40
1
10
-44.13142405891233
20
-16.839112057078289
30
0
10
-44.13142405891233
20
-17.205414934742855
30
0
10
-44.007618059156471
20
-17.478607310641216
30
0
0
SPLINE
5
483
100
AcDbEntity
8
0
100
AcDbSpline
70
0
71
2
72
6
73
3
74
0
42
0.000000001
43
0.0000000001
44
0.0000000001
40
0
40
0
40
0
40
1
40
1
40
1
10
-44.007618059156471
20
-17.478607310641216
30
0
10
-43.883811463354164
20
-17.751799686539577
30
0
10
-43.645407785413795
20
-17.902209027398037
30
0
0
SPLINE
5
484
100
AcDbEntity
8
0
100
AcDbSpline
70
0
71
2
72
6
73
3
74
0
42
0.000000001
43
0.0000000001
44
0.0000000001
40
0
40
0
40
0
40
1
40
1
40
1
10
-43.645407785413795
20
-17.902209027398037
30
0
10
-43.407004107473426
20
-18.052618368256496
30
0
10
-43.110278476713233
20
-18.052618368256496
30
0
0
SPLINE
5
485
100
AcDbEntity
8
0
100
AcDbSpline
70
0
71
2
72
6
73
3
74
0
42
0.000000001
43
0.0000000001
44
0.0000000001
40
0
40
0
40
0
40
1
40
1
40
1
10
-43.110278476713233
20
-18.052618368256496
30
0
10
-42.68872283839994
20
-18.052618368256496
30
0
10
-42.384834815500312
20
-17.763054831612514
30
0
0
SPLINE
5
486
100
AcDbEntity
8
0
100
AcDbSpline
70
0
71
2
72
6
73
3
74
0
42
0.000000001
43
0.0000000001
44
0.0000000001
40
0
40
0
40
0
40
1
40
1
40
1
10
-42.384834815500312
20
-17.763054831612514
30
0
10
-42.080946792600685
20
-17.473491294968532
30
0
10
-42.080946792600685
20
-16.796138002264904
30
0
0
LINE
5
487
100
AcDbEntity
8
0
100
AcDbLine
10
-45.815599788663917
20
-15.341158373940393
30
0
11
-45.815599788663917
21
-17.987133725274013
31
0
0
LINE
5
488
100
AcDbEntity
8
0
100
AcDbLine
10
-45.815599788663917
20
-17.987133725274013
30
0
11
-44.82719563388639
21
-17.987133725274013
31
0
0
LINE
5
489
100
AcDbEntity
8
0
100
AcDbLine
10
-44.82719563388639
20
-17.987133725274013
30
0
11
-44.82719563388639
21
-18.341158493149685
31
0
0
LINE
5
490
100
AcDbEntity
8
0
100
AcDbLine
10
-44.82719563388639
20
-18.341158493149685
30
0
11
-47.205094923017555
21
-18.341158493149685
31
0
0
LINE
5
491
100
AcDbEntity
8
0
100
AcDbLine
10
-47.205094923017555
20
-18.341158493149685
30
0
11
-47.205094923017555
21
-17.987133725274013
31
0
0
LINE
5
492
100
AcDbEntity
8
0
100
AcDbLine
10
-47.205094923017555
20
-17.987133725274013
30
0
11
-46.21259831332975
21
-17.987133725274013
31
0
0
LINE
5
493
100
AcDbEntity
8
0
100
AcDbLine
10
-46.21259831332975
20
-17.987133725274013
30
0
11
-46.21259831332975
21
-15.341158373940393
31
0
0
LINE
5
494
100
AcDbEntity
8
0
100
AcDbLine
10
-46.21259831332975
20
-15.341158373940393
30
0
11
-45.815599788663917
21
-15.341158373940393
31
0
0
SPLINE
5
495
100
AcDbEntity
8
0
100
AcDbSpline
70
0
71
2
72
6
73
3
74
0
42
0.000000001
43
0.0000000001
44
0.0000000001
40
0
40
0
40
0
40
1
40
1
40
1
10
-47.41587184810453
20
-16.802277131665157
30
0
10
-47.41587184810453
20
-17.549207522261547
30
0
10
-47.816963423727088
20
-17.971786125290798
30
0
0
SPLINE
5
496
100
AcDbEntity
8
0
100
AcDbSpline
70
0
71
2
72
6
73
3
74
0
42
0.000000001
43
0.0000000001
44
0.0000000001
40
0
40
0
40
0
40
1
40
1
40
1
10
-47.816963423727088
20
-17.971786125290798
30
0
10
-48.218054403303199
20
-18.394364579308437
30
0
10
-48.852433790205055
20
-18.394364579308437
30
0
0
SPLINE
5
497
100
AcDbEntity
8
0
100
AcDbSpline
70
0
71
2
72
6
73
3
74
0
42
0.000000001
43
0.0000000001
44
0.0000000001
40
0
40
0
40
0
40
1
40
1
40
1
10
-48.852433790205055
20
-18.394364579308437
30
0
10
-49.267849554060035
20
-18.394364579308434
30
0
10
-49.601410259244972
20
-18.195865316975517
30
0
0
SPLINE
5
498
100
AcDbEntity
8
0
100
AcDbSpline
70
0
71
2
72
6
73
3
74
0
42
0.000000001
43
0.0000000001
44
0.0000000001
40
0
40
0
40
0
40
1
40
1
40
1
10
-49.601410259244972
20
-18.195865316975517
30
0
10
-49.934970964429908
20
-17.997365756619377
30
0
10
-50.109936822889381
20
-17.642318024027748
30
0
0
SPLINE
5
499
100
AcDbEntity
8
0
100
AcDbSpline
70
0
71
2
72
6
73
3
74
0
42
0.000000001
43
0.0000000001
44
0.0000000001
40
0
40
0
40
0
40
1
40
1
40
1
10
-50.109936822889381
20
-17.642318024027748
30
0
10
-50.284902681348854
20
-17.287270291436119
30
0
10
-50.284902681348854
20
-16.837065680611534
30
0
0
SPLINE
5
500
100
AcDbEntity
8
0
100
AcDbSpline
70
0
71
2
72
6
73
3
74
0
42
0.000000001
43
0.0000000001
44
0.0000000001
40
0
40
0
40
0
40
1
40
1
40
1
10
-50.284902681348854
20
-16.837065680611534
30
0
10
-50.284902681348854
20
-16.380721791375084
30
0
10
-50.100729097364479
20
-16.020558043110771
30
0
0
SPLINE
5
501
100
AcDbEntity
8
0
100
AcDbSpline
70
0
71
2
72
6
73
3
74
0
42
0.000000001
43
0.0000000001
44
0.0000000001
40
0
40
0
40
0
40
1
40
1
40
1
10
-50.100729097364479
20
-16.020558043110771
30
0
10
-49.916554321287208
20
-15.660394294846459
30
0
10
-49.578899969099098
20
-15.475196703064844
30
0
0
SPLINE
5
502
100
AcDbEntity
8
0
100
AcDbSpline
70
0
71
2
72
6
73
3
74
0
42
0.000000001
43
0.0000000001
44
0.0000000001
40
0
40
0
40
0
40
1
40
1
40
1
10
-49.578899969099098
20
-15.475196703064844
30
0
10
-49.241246809003883
20
-15.289998813260004
30
0
10
-48.850388158796363
20
-15.289998813260004
30
0
0
SPLINE
5
503
100
AcDbEntity
8
0
100
AcDbSpline
70
0
71
2
72
6
73
3
74
0
42
0.000000001
43
0.0000000001
44
0.0000000001
40
0
40
0
40
0
40
1
40
1
40
1
10
-48.850388158796363
20
-15.289998813260004
30
0
10
-48.426786293027931
20
-15.289998813260004
30
0
10
-48.093225587842994
20
-15.494637354004785
30
0
0
SPLINE
5
504
100
AcDbEntity
8
0
100
AcDbSpline
70
0
71
2
72
6
73
3
74
0
42
0.000000001
43
0.0000000001
44
0.0000000001
40
0
40
0
40
0
40
1
40
1
40
1
10
-48.093225587842994
20
-15.494637354004785
30
0
10
-47.75966428661161
20
-15.699275596726343
30
0
10
-47.58776806735807
20
-16.053300364602016
30
0
0
SPLINE
5
505
100
AcDbEntity
8
0
100
AcDbSpline
70
0
71
2
72
6
73
3
74
0
42
0.000000001
43
0.0000000001
44
0.0000000001
40
0
40
0
40
0
40
1
40
1
40
1
10
-47.58776806735807
20
-16.053300364602016
30
0
10
-47.41587184810453
20
-16.407324834454464
30
0
10
-47.41587184810453
20
-16.802277131665157
30
0
0
SPLINE
5
506
100
AcDbEntity
8
0
100
AcDbSpline
70
0
71
2
72
6
73
3
74
0
42
0.000000001
43
0.0000000001
44
0.0000000001
40
0
40
0
40
0
40
1
40
1
40
1
10
-47.825148929594093
20
-16.796138002264904
30
0
10
-47.825148929594093
20
-16.253845854390072
30
0
10
-48.116758693693214
20
-15.941772325623438
30
0
0
SPLINE
5
507
100
AcDbEntity
8
0
100
AcDbSpline
70
0
71
2
72
6
73
3
74
0
42
0.000000001
43
0.0000000001
44
0.0000000001
40
0
40
0
40
0
40
1
40
1
40
1
10
-48.116758693693214
20
-15.941772325623438
30
0
10
-48.408368457792335
20
-15.629698498833582
30
0
10
-48.848341335294776
20
-15.629698498833582
30
0
0
SPLINE
5
508
100
AcDbEntity
8
0
100
AcDbSpline
70
0
71
2
72
6
73
3
74
0
42
0.000000001
43
0.0000000001
44
0.0000000001
40
0
40
0
40
0
40
1
40
1
40
1
10
-48.848341335294776
20
-15.629698498833582
30
0
10
-49.296499122617774
20
-15.629698498833582
30
0
10
-49.586063255308204
20
-15.94484196482937
30
0
0
SPLINE
5
509
100
AcDbEntity
8
0
100
AcDbSpline
70
0
71
2
72
6
73
3
74
0
42
0.000000001
43
0.0000000001
44
0.0000000001
40
0
40
0
40
0
40
1
40
1
40
1
10
-49.586063255308204
20
-15.94484196482937
30
0
10
-49.875626195905738
20
-16.259985132801933
30
0
10
-49.875626195905738
20
-16.839112057078285
30
0
0
SPLINE
5
510
100
AcDbEntity
8
0
100
AcDbSpline
70
0
71
2
72
6
73
3
74
0
42
0.000000001
43
0.0000000001
44
0.0000000001
40
0
40
0
40
0
40
1
40
1
40
1
10
-49.875626195905738
20
-16.839112057078285
30
0
10
-49.875626195905738
20
-17.205414934742851
30
0
10
-49.751820196149879
20
-17.478607310641213
30
0
0
SPLINE
5
511
100
AcDbEntity
8
0
100
AcDbSpline
70
0
71
2
72
6
73
3
74
0
42
0.000000001
43
0.0000000001
44
0.0000000001
40
0
40
0
40
0
40
1
40
1
40
1
10
-49.751820196149879
20
-17.478607310641213
30
0
10
-49.62801419639402
20
-17.751799686539574
30
0
10
-49.389609922407203
20
-17.902209027398033
30
0
0
SPLINE
5
512
100
AcDbEntity
8
0
100
AcDbSpline
70
0
71
2
72
6
73
3
74
0
42
0.000000001
43
0.0000000001
44
0.0000000001
40
0
40
0
40
0
40
1
40
1
40
1
10
-49.389609922407203
20
-17.902209027398033
30
0
10
-49.151205648420387
20
-18.052618368256493
30
0
10
-48.854480613706642
20
-18.052618368256496
30
0
0
SPLINE
5
513
100
AcDbEntity
8
0
100
AcDbSpline
70
0
71
2
72
6
73
3
74
0
42
0.000000001
43
0.0000000001
44
0.0000000001
40
0
40
0
40
0
40
1
40
1
40
1
10
-48.854480613706642
20
-18.052618368256496
30
0
10
-48.432925571439796
20
-18.052618368256496
30
0
10
-48.129037250516944
20
-17.763054831612514
30
0
0
SPLINE
5
514
100
AcDbEntity
8
0
100
AcDbSpline
70
0
71
2
72
6
73
3
74
0
42
0.000000001
43
0.0000000001
44
0.0000000001
40
0
40
0
40
0
40
1
40
1
40
1
10
-48.129037250516944
20
-17.763054831612514
30
0
10
-47.825148929594093
20
-17.473491294968532
30
0
10
-47.825148929594093
20
-16.796138002264904
30
0
0
LINE
5
515
100
AcDbEntity
8
0
100
AcDbLine
10
-50.802639354703956
20
-15.341158373940392
30
0
11
-50.802639354703956
21
-18.341158493149681
31
0
0
LINE
5
516
100
AcDbEntity
8
0
100
AcDbLine
10
-50.802639354703956
20
-18.341158493149681
30
0
11
-52.132789720533424
21
-18.341158493149681
31
0
0
SPLINE
5
517
100
AcDbEntity
8
0
100
AcDbSpline
70
0
71
2
72
6
73
3
74
0
42
0.000000001
43
0.0000000001
44
0.0000000001
40
0
40
0
40
0
40
1
40
1
40
1
10
-52.132789720533424
20
-18.341158493149681
30
0
10
-52.533881296155982
20
-18.341158493149681
30
0
10
-52.742611993787818
20
-18.260326250183983
30
0
0
SPLINE
5
518
100
AcDbEntity
8
0
100
AcDbSpline
70
0
71
2
72
6
73
3
74
0
42
0.000000001
43
0.0000000001
44
0.0000000001
40
0
40
0
40
0
40
1
40
1
40
1
10
-52.742611993787818
20
-18.260326250183983
30
0
10
-52.951342691419654
20
-18.179494007218285
30
0
10
-53.076172698972755
20
-17.974855466473503
30
0
0
SPLINE
5
519
100
AcDbEntity
8
0
100
AcDbSpline
70
0
71
2
72
6
73
3
74
0
42
0.000000001
43
0.0000000001
44
0.0000000001
40
0
40
0
40
0
40
1
40
1
40
1
10
-53.076172698972755
20
-17.974855466473503
30
0
10
-53.201002706525856
20
-17.770217074740334
30
0
10
-53.201002706525856
20
-17.522604479182167
30
0
0
SPLINE
5
520
100
AcDbEntity
8
0
100
AcDbSpline
70
0
71
2
72
6
73
3
74
0
42
0.000000001
43
0.0000000001
44
0.0000000001
40
0
40
0
40
0
40
1
40
1
40
1
10
-53.201002706525856
20
-17.522604479182167
30
0
10
-53.201002706525856
20
-17.2033685582761
30
0
10
-52.994317640302711
20
-16.984405382264061
30
0
0
SPLINE
5
521
100
AcDbEntity
8
0
100
AcDbSpline
70
0
71
2
72
6
73
3
74
0
42
0.000000001
43
0.0000000001
44
0.0000000001
40
0
40
0
40
0
40
1
40
1
40
1
10
-52.994317640302711
20
-16.984405382264061
30
0
10
-52.787632574079566
20
-16.765442206252022
30
0
10
-52.355845798490577
20
-16.706096990693016
30
0
0
SPLINE
5
522
100
AcDbEntity
8
0
100
AcDbSpline
70
0
71
2
72
6
73
3
74
0
42
0.000000001
43
0.0000000001
44
0.0000000001
40
0
40
0
40
0
40
1
40
1
40
1
10
-52.355845798490577
20
-16.706096990693016
30
0
10
-52.5134166374188
20
-16.630380912411614
30
0
10
-52.595272888181739
20
-16.556710763562126
30
0
0
SPLINE
5
523
100
AcDbEntity
8
0
100
AcDbSpline
70
0
71
2
72
6
73
3
74
0
42
0.000000001
43
0.0000000001
44
0.0000000001
40
0
40
0
40
0
40
1
40
1
40
1
10
-52.595272888181739
20
-16.556710763562126
30
0
10
-52.769214738843971
20
-16.397092803109093
30
0
10
-52.924739946363502
20
-16.157666011441155
30
0
0
LINE
5
524
100
AcDbEntity
8
0
100
AcDbLine
10
-52.924739946363502
20
-16.157666011441155
30
0
11
-53.446569074628883
21
-15.341158373940392
31
0
0
LINE
5
525
100
AcDbEntity
8
0
100
AcDbLine
10
-53.446569074628883
20
-15.341158373940392
30
0
11
-52.947250236509376
21
-15.341158373940392
31
0
0
LINE
5
526
100
AcDbEntity
8
0
100
AcDbLine
10
-52.947250236509376
20
-15.341158373940392
30
0
11
-52.550252307889991
21
-15.96530572949688
31
0
0
SPLINE
5
527
100
AcDbEntity
8
0
100
AcDbSpline
70
0
71
2
72
6
73
3
74
0
42
0.000000001
43
0.0000000001
44
0.0000000001
40
0
40
0
40
0
40
1
40
1
40
1
10
-52.550252307889991
20
-15.96530572949688
30
0
10
-52.376309265134864
20
-16.23542861520092
30
0
10
-52.263757814405494
20
-16.378675265896721
30
0
0
SPLINE
5
528
100
AcDbEntity
8
0
100
AcDbSpline
70
0
71
2
72
6
73
3
74
0
42
0.000000001
43
0.0000000001
44
0.0000000001
40
0
40
0
40
0
40
1
40
1
40
1
10
-52.263757814405494
20
-16.378675265896721
30
0
10
-52.15120755576902
20
-16.521922512638969
30
0
10
-52.062189210889869
20
-16.579221053708
30
0
0
SPLINE
5
529
100
AcDbEntity
8
0
100
AcDbSpline
70
0
71
2
72
6
73
3
74
0
42
0.000000001
43
0.0000000001
44
0.0000000001
40
0
40
0
40
0
40
1
40
1
40
1
10
-52.062189210889869
20
-16.579221053708
30
0
10
-51.973170866010719
20
-16.636519892800255
30
0
10
-51.881084074018531
20
-16.659030182946129
30
0
0
SPLINE
5
530
100
AcDbEntity
8
0
100
AcDbSpline
70
0
71
2
72
6
73
3
74
0
42
0.000000001
43
0.0000000001
44
0.0000000001
40
0
40
0
40
0
40
1
40
1
40
1
10
-51.881084074018531
20
-16.659030182946129
30
0
10
-51.813553203580909
20
-16.673354818213387
30
0
10
-51.660074819562965
20
-16.673354818213387
30
0
0
LINE
5
531
100
AcDbEntity
8
0
100
AcDbLine
10
-51.660074819562965
20
-16.673354818213387
30
0
11
-51.199638475416236
21
-16.673354818213387
31
0
0
LINE
5
532
100
AcDbEntity
8
0
100
AcDbLine
10
-51.199638475416236
20
-16.673354818213387
30
0
11
-51.199638475416236
21
-15.341158373940392
31
0
0
LINE
5
533
100
AcDbEntity
8
0
100
AcDbLine
10
-51.199638475416236
20
-15.341158373940392
30
0
11
-50.802639354703956
21
-15.341158373940392
31
0
0
LINE
5
534
100
AcDbEntity
8
0
100
AcDbLine
10
-51.199638475416236
20
-17.017147554743691
30
0
11
-52.052980293272071
21
-17.017147554743691
31
0
0
SPLINE
5
535
100
AcDbEntity
8
0
100
AcDbSpline
70
0
71
2
72
6
73
3
74
0
42
0.000000001
43
0.0000000001
44
0.0000000001
40
0
40
0
40
0
40
1
40
1
40
1
10
-52.052980293272071
20
-17.017147554743691
30
0
10
-52.325149406431251
20
-17.017147554743691
30
0
10
-52.478628982542091
20
-17.073423131096764
30
0
0
SPLINE
5
536
100
AcDbEntity
8
0
100
AcDbSpline
70
0
71
2
72
6
73
3
74
0
42
0.000000001
43
0.0000000001
44
0.0000000001
40
0
40
0
40
0
40
1
40
1
40
1
10
-52.478628982542091
20
-17.073423131096764
30
0
10
-52.632107366560035
20
-17.129698707449837
30
0
10
-52.711916793821388
20
-17.25350500522892
30
0
0
SPLINE
5
537
100
AcDbEntity
8
0
100
AcDbSpline
70
0
71
2
72
6
73
3
74
0
42
0.000000001
43
0.0000000001
44
0.0000000001
40
0
40
0
40
0
40
1
40
1
40
1
10
-52.711916793821388
20
-17.25350500522892
30
0
10
-52.791725028989845
20
-17.377311153996391
30
0
10
-52.791725028989845
20
-17.522604479182167
30
0
0
SPLINE
5
538
100
AcDbEntity
8
0
100
AcDbSpline
70
0
71
2
72
6
73
3
74
0
42
0.000000001
43
0.0000000001
44
0.0000000001
40
0
40
0
40
0
40
1
40
1
40
1
10
-52.791725028989845
20
-17.522604479182167
30
0
10
-52.791725028989845
20
-17.735428525793953
30
0
10
-52.637223829267555
20
-17.872536345112724
30
0
0
SPLINE
5
539
100
AcDbEntity
8
0
100
AcDbSpline
70
0
71
2
72
6
73
3
74
0
42
0.000000001
43
0.0000000001
44
0.0000000001
40
0
40
0
40
0
40
1
40
1
40
1
10
-52.637223829267555
20
-17.872536345112724
30
0
10
-52.482721437452369
20
-18.009644015419884
30
0
10
-52.149160732267433
20
-18.009644015419884
30
0
0
LINE
5
540
100
AcDbEntity
8
0
100
AcDbLine
10
-52.149160732267433
20
-18.009644015419884
30
0
11
-51.199638475416236
21
-18.009644015419884
31
0
0
LINE
5
541
100
AcDbEntity
8
0
100
AcDbLine
10
-51.199638475416236
20
-18.009644015419884
30
0
11
-51.199638475416236
21
-17.017147554743691
31
0
0
LINE
5
542
100
AcDbEntity
8
0
100
AcDbLine
10
36.206880507670689
20
-47.2134164301428
30
0
11
35.054765837994751
21
-50.21341654935209
31
0
0
LINE
5
543
100
AcDbEntity
8
0
100
AcDbLine
10
35.054765837994751
20
-50.21341654935209
30
0
11
34.627071442810234
21
-50.21341654935209
31
0
0
LINE
5
544
100
AcDbEntity
8
0
100
AcDbLine
10
34.627071442810234
20
-50.21341654935209
30
0
11
33.399240794387993
21
-47.2134164301428
31
0
0
LINE
5
545
100
AcDbEntity
8
0
100
AcDbLine
10
33.399240794387993
20
-47.2134164301428
30
0
11
33.851491632667717
21
-47.2134164301428
31
0
0
LINE
5
546
100
AcDbEntity
8
0
100
AcDbLine
10
33.851491632667717
20
-47.2134164301428
30
0
11
34.201423349586662
21
-48.122011157658974
31
0
0
LINE
5
547
100
AcDbEntity
8
0
100
AcDbLine
10
34.201423349586662
20
-48.122011157658974
30
0
11
35.455857264605697
21
-48.122011157658974
31
0
0
LINE
5
548
100
AcDbEntity
8
0
100
AcDbLine
10
35.455857264605697
20
-48.122011157658974
30
0
11
35.785325254110035
21
-47.2134164301428
31
0
0
LINE
5
549
100
AcDbEntity
8
0
100
AcDbLine
10
35.785325254110035
20
-47.2134164301428
30
0
11
36.206880507670689
21
-47.2134164301428
31
0
0
LINE
5
550
100
AcDbEntity
8
0
100
AcDbLine
10
35.3412597354328
20
-48.445340129521767
30
0
11
34.324206533638176
21
-48.445340129521767
31
0
0
LINE
5
551
100
AcDbEntity
8
0
100
AcDbLine
10
34.324206533638176
20
-48.445340129521767
30
0
11
34.637303325143989
21
-49.276172253278176
31
0
0
SPLINE
5
552
100
AcDbEntity
8
0
100
AcDbSpline
70
0
71
2
72
6
73
3
74
0
42
0.000000001
43
0.0000000001
44
0.0000000001
40
0
40
0
40
0
40
1
40
1
40
1
10
34.637303325143989
20
-49.276172253278176
30
0
10
34.780550273863014
20
-49.654753389743249
30
0
10
34.850127371755775
20
-49.898273381379525
30
0
0
SPLINE
5
553
100
AcDbEntity
8
0
100
AcDbSpline
70
0
71
2
72
6
73
3
74
0
42
0.000000001
43
0.0000000001
44
0.0000000001
40
0
40
0
40
0
40
1
40
1
40
1
10
34.850127371755775
20
-49.898273381379525
30
0
10
34.90742621084803
20
-49.609732958463113
30
0
10
35.011791783181366
20
-49.325285437491814
30
0
0
LINE
5
554
100
AcDbEntity
8
0
100
AcDbLine
10
35.011791783181366
20
-49.325285437491814
30
0
11
35.3412597354328
21
-48.445340129521767
31
0
0
LINE
5
555
100
AcDbEntity
8
0
100
AcDbLine
10
33.386962237564262
20
-47.2134164301428
30
0
11
32.226662161556419
21
-48.776854458239953
31
0
0
LINE
5
556
100
AcDbEntity
8
0
100
AcDbLine
10
32.226662161556419
20
-48.776854458239953
30
0
11
33.249854567257103
21
-50.21341654935209
31
0
0
LINE
5
557
100
AcDbEntity
8
0
100
AcDbLine
10
33.249854567257103
20
-50.21341654935209
30
0
11
32.777139666286644
21
-50.21341654935209
31
0
0
LINE
5
558
100
AcDbEntity
8
0
100
AcDbLine
10
32.777139666286644
20
-50.21341654935209
30
0
11
32.23280114194506
21
-49.443975868609826
31
0
0
SPLINE
5
559
100
AcDbEntity
8
0
100
AcDbSpline
70
0
71
2
72
6
73
3
74
0
42
0.000000001
43
0.0000000001
44
0.0000000001
40
0
40
0
40
0
40
1
40
1
40
1
10
32.23280114194506
20
-49.443975868609826
30
0
10
32.062951448169883
20
-49.204548778918664
30
0
10
31.991327824798759
20
-49.075626614478509
30
0
0
SPLINE
5
560
100
AcDbEntity
8
0
100
AcDbSpline
70
0
71
2
72
6
73
3
74
0
42
0.000000001
43
0.0000000001
44
0.0000000001
40
0
40
0
40
0
40
1
40
1
40
1
10
31.991327824798759
20
-49.075626614478509
30
0
10
31.891054930893119
20
-49.239337327865044
30
0
10
31.75394726058596
20
-49.41737282553045
30
0
0
LINE
5
561
100
AcDbEntity
8
0
100
AcDbLine
10
31.75394726058596
20
-49.41737282553045
30
0
11
31.150263967720207
21
-50.21341654935209
31
0
0
LINE
5
562
100
AcDbEntity
8
0
100
AcDbLine
10
31.150263967720207
20
-50.21341654935209
30
0
11
30.71847659608477
21
-50.21341654935209
31
0
0
LINE
5
563
100
AcDbEntity
8
0
100
AcDbLine
10
30.71847659608477
20
-50.21341654935209
30
0
11
31.772364797798332
21
-48.799364599374215
31
0
0
LINE
5
564
100
AcDbEntity
8
0
100
AcDbLine
10
31.772364797798332
20
-48.799364599374215
30
0
11
30.636621537414726
21
-47.2134164301428
31
0
0
LINE
5
565
100
AcDbEntity
8
0
100
AcDbLine
10
30.636621537414726
20
-47.2134164301428
30
0
11
31.127753677574333
21
-47.2134164301428
31
0
0
LINE
5
566
100
AcDbEntity
8
0
100
AcDbLine
10
31.127753677574333
20
-47.2134164301428
30
0
11
31.882869425026115
21
-48.283675643590371
31
0
0
SPLINE
5
567
100
AcDbEntity
8
0
100
AcDbSpline
70
0
71
2
72
6
73
3
74
0
42
0.000000001
43
0.0000000001
44
0.0000000001
40
0
40
0
40
0
40
1
40
1
40
1
10
31.882869425026115
20
-48.283675643590371
30
0
10
31.946307542530235
20
-48.375763031629006
30
0
10
32.013838114944633
20
-48.48422143140165
30
0
0
SPLINE
5
568
100
AcDbEntity
8
0
100
AcDbSpline
70
0
71
2
72
6
73
3
74
0
42
0.000000001
43
0.0000000001
44
0.0000000001
40
0
40
0
40
0
40
1
40
1
40
1
10
32.013838114944633
20
-48.48422143140165
30
0
10
32.114111008850273
20
-48.320510419991891
30
0
10
32.157085063663658
20
-48.259119125989358
30
0
0
LINE
5
569
100
AcDbEntity
8
0
100
AcDbLine
10
32.157085063663658
20
-48.259119125989358
30
0
11
32.910154583660301
21
-47.2134164301428
31
0
0
LINE
5
570
100
AcDbEntity
8
0
100
AcDbLine
10
32.910154583660301
20
-47.2134164301428
30
0
11
33.386962237564262
21
-47.2134164301428
31
0
0
LINE
5
571
100
AcDbEntity
8
0
100
AcDbLine
10
30.219158950058159
20
-47.2134164301428
30
0
11
30.219158950058159
21
-50.21341654935209
31
0
0
LINE
5
572
100
AcDbEntity
8
0
100
AcDbLine
10
30.219158950058159
20
-50.21341654935209
30
0
11
29.822160425392326
21
-50.21341654935209
31
0
0
LINE
5
573
100
AcDbEntity
8
0
100
AcDbLine
10
29.822160425392326
20
-50.21341654935209
30
0
11
29.822160425392326
21
-47.2134164301428
31
0
0
LINE
5
574
100
AcDbEntity
8
0
100
AcDbLine
10
29.822160425392326
20
-47.2134164301428
30
0
11
30.219158950058159
21
-47.2134164301428
31
0
0
LINE
5
575
100
AcDbEntity
8
0
100
AcDbLine
10
29.257358136383232
20
-48.17726376929609
30
0
11
28.882869901863273
21
-48.210005792764107
31
0
0
SPLINE
5
576
100
AcDbEntity
8
0
100
AcDbSpline
70
0
71
2
72
6
73
3
74
0
42
0.000000001
43
0.0000000001
44
0.0000000001
40
0
40
0
40
0
40
1
40
1
40
1
10
28.882869901863273
20
-48.210005792764107
30
0
10
28.856266560760673
20
-47.984903487351815
30
0
10
28.759063306060966
20
-47.840633424905221
30
0
0
SPLINE
5
577
100
AcDbEntity
8
0
100
AcDbSpline
70
0
71
2
72
6
73
3
74
0
42
0.000000001
43
0.0000000001
44
0.0000000001
40
0
40
0
40
0
40
1
40
1
40
1
10
28.759063306060966
20
-47.840633424905221
30
0
10
28.661860051361259
20
-47.696363362458627
30
0
10
28.457221808639702
20
-47.607345613625924
30
0
0
SPLINE
5
578
100
AcDbEntity
8
0
100
AcDbSpline
70
0
71
2
72
6
73
3
74
0
42
0.000000001
43
0.0000000001
44
0.0000000001
40
0
40
0
40
0
40
1
40
1
40
1
10
28.457221808639702
20
-47.607345613625924
30
0
10
28.252582969871696
20
-47.518327864793221
30
0
10
27.996785464492973
20
-47.518327864793221
30
0
0
SPLINE
5
579
100
AcDbEntity
8
0
100
AcDbSpline
70
0
71
2
72
6
73
3
74
0
42
0.000000001
43
0.0000000001
44
0.0000000001
40
0
40
0
40
0
40
1
40
1
40
1
10
27.996785464492973
20
-47.518327864793221
30
0
10
27.769636335579094
20
-47.518327864793221
30
0
10
27.595693888870414
20
-47.585858437207619
30
0
0
SPLINE
5
580
100
AcDbEntity
8
0
100
AcDbSpline
70
0
71
2
72
6
73
3
74
0
42
0.000000001
43
0.0000000001
44
0.0000000001
40
0
40
0
40
0
40
1
40
1
40
1
10
27.595693888870414
20
-47.585858437207619
30
0
10
27.421750846115287
20
-47.653389009622018
30
0
10
27.336826148239311
20
-47.77105632701246
30
0
0
SPLINE
5
581
100
AcDbEntity
8
0
100
AcDbSpline
70
0
71
2
72
6
73
3
74
0
42
0.000000001
43
0.0000000001
44
0.0000000001
40
0
40
0
40
0
40
1
40
1
40
1
10
27.336826148239311
20
-47.77105632701246
30
0
10
27.251900854316887
20
-47.888723346379678
30
0
10
27.251900854316887
20
-48.0278775421652
30
0
0
SPLINE
5
582
100
AcDbEntity
8
0
100
AcDbSpline
70
0
71
2
72
6
73
3
74
0
42
0.000000001
43
0.0000000001
44
0.0000000001
40
0
40
0
40
0
40
1
40
1
40
1
10
27.251900854316887
20
-48.0278775421652
30
0
10
27.251900854316887
20
-48.169078263429085
30
0
10
27.333756509033378
20
-48.274467023995797
30
0
0
SPLINE
5
583
100
AcDbEntity
8
0
100
AcDbSpline
70
0
71
2
72
6
73
3
74
0
42
0.000000001
43
0.0000000001
44
0.0000000001
40
0
40
0
40
0
40
1
40
1
40
1
10
27.333756509033378
20
-48.274467023995797
30
0
10
27.415611567703422
20
-48.379855784562508
30
0
10
27.603879394737419
20
-48.451479109910409
30
0
0
SPLINE
5
584
100
AcDbEntity
8
0
100
AcDbSpline
70
0
71
2
72
6
73
3
74
0
42
0.000000001
43
0.0000000001
44
0.0000000001
40
0
40
0
40
0
40
1
40
1
40
1
10
27.603879394737419
20
-48.451479109910409
30
0
10
27.724615755287346
20
-48.498545917657296
30
0
10
28.137985887733635
20
-48.597795846846978
30
0
0
SPLINE
5
585
100
AcDbEntity
8
0
100
AcDbSpline
70
0
71
2
72
6
73
3
74
0
42
0.000000001
43
0.0000000001
44
0.0000000001
40
0
40
0
40
0
40
1
40
1
40
1
10
28.137985887733635
20
-48.597795846846978
30
0
10
28.551355424133476
20
-48.697045478013436
30
0
10
28.717112364975151
20
-48.785039964106957
30
0
0
SPLINE
5
586
100
AcDbEntity
8
0
100
AcDbSpline
70
0
71
2
72
6
73
3
74
0
42
0.000000001
43
0.0000000001
44
0.0000000001
40
0
40
0
40
0
40
1
40
1
40
1
10
28.717112364975151
20
-48.785039964106957
30
0
10
28.9319829370653
20
-48.897591116813103
30
0
10
29.037371697632011
20
-49.064371469405572
30
0
0
SPLINE
5
587
100
AcDbEntity
8
0
100
AcDbSpline
70
0
71
2
72
6
73
3
74
0
42
0.000000001
43
0.0000000001
44
0.0000000001
40
0
40
0
40
0
40
1
40
1
40
1
10
29.037371697632011
20
-49.064371469405572
30
0
10
29.142760458198723
20
-49.23115182199804
30
0
10
29.142760458198723
20
-49.437836739209573
30
0
0
SPLINE
5
588
100
AcDbEntity
8
0
100
AcDbSpline
70
0
71
2
72
6
73
3
74
0
42
0.000000001
43
0.0000000001
44
0.0000000001
40
0
40
0
40
0
40
1
40
1
40
1
10
29.142760458198723
20
-49.437836739209573
30
0
10
29.142760458198723
20
-49.664985570100228
30
0
10
29.013838591781791
20
-49.862461420682351
30
0
0
SPLINE
5
589
100
AcDbEntity
8
0
100
AcDbSpline
70
0
71
2
72
6
73
3
74
0
42
0.000000001
43
0.0000000001
44
0.0000000001
40
0
40
0
40
0
40
1
40
1
40
1
10
29.013838591781791
20
-49.862461420682351
30
0
10
28.884916129318412
20
-50.059937569287698
30
0
10
28.637303533760246
20
-50.1622569886717
30
0
0
SPLINE
5
590
100
AcDbEntity
8
0
100
AcDbSpline
70
0
71
2
72
6
73
3
74
0
42
0.000000001
43
0.0000000001
44
0.0000000001
40
0
40
0
40
0
40
1
40
1
40
1
10
28.637303533760246
20
-50.1622569886717
30
0
10
28.389690938202079
20
-50.264576110032479
30
0
10
28.086826029030021
20
-50.264576110032479
30
0
0
SPLINE
5
591
100
AcDbEntity
8
0
100
AcDbSpline
70
0
71
2
72
6
73
3
74
0
42
0.000000001
43
0.0000000001
44
0.0000000001
40
0
40
0
40
0
40
1
40
1
40
1
10
28.086826029030021
20
-50.264576110032479
30
0
10
27.753265323845085
20
-50.264576110032479
30
0
10
27.498490634170707
20
-50.157140823987405
30
0
0
SPLINE
5
592
100
AcDbEntity
8
0
100
AcDbSpline
70
0
71
2
72
6
73
3
74
0
42
0.000000001
43
0.0000000001
44
0.0000000001
40
0
40
0
40
0
40
1
40
1
40
1
10
27.498490634170707
20
-50.157140823987405
30
0
10
27.243715348449882
20
-50.049705835965554
30
0
10
27.106607976165947
20
-49.84097454228727
30
0
0
SPLINE
5
593
100
AcDbEntity
8
0
100
AcDbSpline
70
0
71
2
72
6
73
3
74
0
42
0.000000001
43
0.0000000001
44
0.0000000001
40
0
40
0
40
0
40
1
40
1
40
1
10
27.106607976165947
20
-49.84097454228727
30
0
10
26.969500007835563
20
-49.632243248608987
30
0
10
26.959267678466972
20
-49.368259641316811
30
0
0
LINE
5
594
100
AcDbEntity
8
0
100
AcDbLine
10
26.959267678466972
20
-49.368259641316811
30
0
11
27.339895787445244
21
-49.339610221770684
31
0
0
SPLINE
5
595
100
AcDbEntity
8
0
100
AcDbSpline
70
0
71
2
72
6
73
3
74
0
42
0.000000001
43
0.0000000001
44
0.0000000001
40
0
40
0
40
0
40
1
40
1
40
1
10
27.339895787445244
20
-49.339610221770684
30
0
10
27.370591583458122
20
-49.624057742741982
30
0
10
27.547603669372734
20
-49.769350918916146
30
0
0
SPLINE
5
596
100
AcDbEntity
8
0
100
AcDbSpline
70
0
71
2
72
6
73
3
74
0
42
0.000000001
43
0.0000000001
44
0.0000000001
40
0
40
0
40
0
40
1
40
1
40
1
10
27.547603669372734
20
-49.769350918916146
30
0
10
27.724615755287346
20
-49.914644393113534
30
0
10
28.070455017296013
20
-49.914644393113534
30
0
0
SPLINE
5
597
100
AcDbEntity
8
0
100
AcDbSpline
70
0
71
2
72
6
73
3
74
0
42
0.000000001
43
0.0000000001
44
0.0000000001
40
0
40
0
40
0
40
1
40
1
40
1
10
28.070455017296013
20
-49.914644393113534
30
0
10
28.430618467537101
20
-49.914644393113534
30
0
10
28.595352592674431
20
-49.782652589467446
30
0
0
SPLINE
5
598
100
AcDbEntity
8
0
100
AcDbSpline
70
0
71
2
72
6
73
3
74
0
42
0.000000001
43
0.0000000001
44
0.0000000001
40
0
40
0
40
0
40
1
40
1
40
1
10
28.595352592674431
20
-49.782652589467446
30
0
10
28.76008671781176
20
-49.650660785821358
30
0
10
28.76008671781176
20
-49.464439782288949
30
0
0
SPLINE
5
599
100
AcDbEntity
8
0
100
AcDbSpline
70
0
71
2
72
6
73
3
74
0
42
0.000000001
43
0.0000000001
44
0.0000000001
40
0
40
0
40
0
40
1
40
1
40
1
10
28.76008671781176
20
-49.464439782288949
30
0
10
28.76008671781176
20
-49.302775296357552
30
0
10
28.643442812172111
20
-49.19840964951841
30
0
0
SPLINE
5
600
100
AcDbEntity
8
0
100
AcDbSpline
70
0
71
2
72
6
73
3
74
0
42
0.000000001
43
0.0000000001
44
0.0000000001
40
0
40
0
40
0
40
1
40
1
40
1
10
28.643442812172111
20
-49.19840964951841
30
0
10
28.528845133987602
20
-49.094044151690881
30
0
10
28.044875087944206
20
-48.984562489179055
30
0
0
SPLINE
5
601
100
AcDbEntity
8
0
100
AcDbSpline
70
0
71
2
72
6
73
3
74
0
42
0.000000001
43
0.0000000001
44
0.0000000001
40
0
40
0
40
0
40
1
40
1
40
1
10
28.044875087944206
20
-48.984562489179055
30
0
10
27.56090504190081
20
-48.875080975678841
30
0
10
27.380823316780265
20
-48.793225469973962
30
0
0
SPLINE
5
602
100
AcDbEntity
8
0
100
AcDbSpline
70
0
71
2
72
6
73
3
74
0
42
0.000000001
43
0.0000000001
44
0.0000000001
40
0
40
0
40
0
40
1
40
1
40
1
10
27.380823316780265
20
-48.793225469973962
30
0
10
27.118885936943229
20
-48.672488811400811
30
0
10
26.994056525436577
20
-48.487291070607583
30
0
0
SPLINE
5
603
100
AcDbEntity
8
0
100
AcDbSpline
70
0
71
2
72
6
73
3
74
0
42
0.000000001
43
0.0000000001
44
0.0000000001
40
0
40
0
40
0
40
1
40
1
40
1
10
26.994056525436577
20
-48.487291070607583
30
0
10
26.869227113929924
20
-48.302093180802743
30
0
10
26.869227113929924
20
-48.060619863656441
30
0
0
SPLINE
5
604
100
AcDbEntity
8
0
100
AcDbSpline
70
0
71
2
72
6
73
3
74
0
42
0.000000001
43
0.0000000001
44
0.0000000001
40
0
40
0
40
0
40
1
40
1
40
1
10
26.869227113929924
20
-48.060619863656441
30
0
10
26.869227113929924
20
-47.821192773965279
30
0
10
27.006335082260307
20
-47.609391841081063
30
0
0
SPLINE
5
605
100
AcDbEntity
8
0
100
AcDbSpline
70
0
71
2
72
6
73
3
74
0
42
0.000000001
43
0.0000000001
44
0.0000000001
40
0
40
0
40
0
40
1
40
1
40
1
10
27.006335082260307
20
-47.609391841081063
30
0
10
27.143442454544243
20
-47.397590908196847
30
0
10
27.400263967720207
20
-47.279923888829629
30
0
0
SPLINE
5
606
100
AcDbEntity
8
0
100
AcDbSpline
70
0
71
2
72
6
73
3
74
0
42
0.000000001
43
0.0000000001
44
0.0000000001
40
0
40
0
40
0
40
1
40
1
40
1
10
27.400263967720207
20
-47.279923888829629
30
0
10
27.657085480896171
20
-47.162256869462411
30
0
10
27.978367629257377
20
-47.162256869462411
30
0
0
SPLINE
5
607
100
AcDbEntity
8
0
100
AcDbSpline
70
0
71
2
72
6
73
3
74
0
42
0.000000001
43
0.0000000001
44
0.0000000001
40
0
40
0
40
0
40
1
40
1
40
1
10
27.978367629257377
20
-47.162256869462411
30
0
10
28.385598483291801
20
-47.162256869462411
30
0
10
28.660837235656913
20
-47.280947002557198
30
0
0
SPLINE
5
608
100
AcDbEntity
8
0
100
AcDbSpline
70
0
71
2
72
6
73
3
74
0
42
0.000000001
43
0.0000000001
44
0.0000000001
40
0
40
0
40
0
40
1
40
1
40
1
10
28.660837235656913
20
-47.280947002557198
30
0
10
28.936075988022026
20
-47.39963743367521
30
0
10
29.092624011245903
20
-47.638041409638802
30
0
0
SPLINE
5
609
100
AcDbEntity
8
0
100
AcDbSpline
70
0
71
2
72
6
73
3
74
0
42
0.000000001
43
0.0000000001
44
0.0000000001
40
0
40
0
40
0
40
1
40
1
40
1
10
29.092624011245903
20
-47.638041409638802
30
0
10
29.249172630516227
20
-47.876445087579171
30
0
10
29.257358136383232
20
-48.17726376929609
30
0
0
LINE
5
610
100
AcDbEntity
8
0
100
AcDbLine
10
23.924479308334526
20
-47.2134164301428
30
0
11
24.292827668396171
21
-47.2134164301428
31
0
0
LINE
5
611
100
AcDbEntity
8
0
100
AcDbLine
10
24.292827668396171
20
-47.2134164301428
30
0
11
24.292827668396171
21
-49.560619774249474
31
0
0
SPLINE
5
612
100
AcDbEntity
8
0
100
AcDbSpline
70
0
71
2
72
6
73
3
74
0
42
0.000000001
43
0.0000000001
44
0.0000000001
40
0
40
0
40
0
40
1
40
1
40
1
10
24.292827668396171
20
-49.560619774249474
30
0
10
24.425843777862724
20
-49.433743837264458
30
0
10
24.641736569610771
20
-49.306868049291054
30
0
0
SPLINE
5
613
100
AcDbEntity
8
0
100
AcDbSpline
70
0
71
2
72
6
73
3
74
0
42
0.000000001
43
0.0000000001
44
0.0000000001
40
0
40
0
40
0
40
1
40
1
40
1
10
24.641736569610771
20
-49.306868049291054
30
0
10
24.857630553451713
20
-49.179992112306039
30
0
10
25.029526772705253
20
-49.116554292825143
30
0
0
LINE
5
614
100
AcDbEntity
8
0
100
AcDbLine
10
25.029526772705253
20
-49.116554292825143
30
0
11
25.029526772705253
21
-49.472625139144341
31
0
0
SPLINE
5
615
100
AcDbEntity
8
0
100
AcDbSpline
70
0
71
2
72
6
73
3
74
0
42
0.000000001
43
0.0000000001
44
0.0000000001
40
0
40
0
40
0
40
1
40
1
40
1
10
25.029526772705253
20
-49.472625139144341
30
0
10
24.720523181167778
20
-49.617918464330117
30
0
10
24.489281001297172
20
-49.824603530553262
30
0
0
SPLINE
5
616
100
AcDbEntity
8
0
100
AcDbSpline
70
0
71
2
72
6
73
3
74
0
42
0.000000001
43
0.0000000001
44
0.0000000001
40
0
40
0
40
0
40
1
40
1
40
1
10
24.489281001297172
20
-49.824603530553262
30
0
10
24.258040013519462
20
-50.031288298753182
30
0
10
24.161859574524101
20
-50.225694808152596
30
0
0
LINE
5
617
100
AcDbEntity
8
0
100
AcDbLine
10
24.161859574524101
20
-50.225694808152596
30
0
11
23.924479308334526
21
-50.225694808152596
31
0
0
LINE
5
618
100
AcDbEntity
8
0
100
AcDbLine
10
23.924479308334526
20
-50.225694808152596
30
0
11
23.924479308334526
21
-47.2134164301428
31
0
0
LINE
5
619
100
AcDbEntity
8
0
100
AcDbLine
10
-51.268108623334221
20
-46.978506726137759
30
0
11
-52.42022329301016
21
-49.978506845347049
31
0
0
LINE
5
620
100
AcDbEntity
8
0
100
AcDbLine
10
-52.42022329301016
20
-49.978506845347049
30
0
11
-52.847917688194677
21
-49.978506845347049
31
0
0
LINE
5
621
100
AcDbEntity
8
0
100
AcDbLine
10
-52.847917688194677
20
-49.978506845347049
30
0
11
-54.075748336616918
21
-46.978506726137759
31
0
0
LINE
5
622
100
AcDbEntity
8
0
100
AcDbLine
10
-54.075748336616918
20
-46.978506726137759
30
0
11
-53.623497498337194
21
-46.978506726137759
31
0
0
LINE
5
623
100
AcDbEntity
8
0
100
AcDbLine
10
-53.623497498337194
20
-46.978506726137759
30
0
11
-53.273565781418249
21
-47.887101453653933
31
0
0
LINE
5
624
100
AcDbEntity
8
0
100
AcDbLine
10
-53.273565781418249
20
-47.887101453653933
30
0
11
-52.019131866399213
21
-47.887101453653933
31
0
0
LINE
5
625
100
AcDbEntity
8
0
100
AcDbLine
10
-52.019131866399213
20
-47.887101453653933
30
0
11
-51.689663876894876
21
-46.978506726137759
31
0
0
LINE
5
626
100
AcDbEntity
8
0
100
AcDbLine
10
-51.689663876894876
20
-46.978506726137759
30
0
11
-51.268108623334221
21
-46.978506726137759
31
0
0
LINE
5
627
100
AcDbEntity
8
0
100
AcDbLine
10
-52.133729395572111
20
-48.210430425516726
30
0
11
-53.150782597366735
21
-48.210430425516726
31
0
0
LINE
5
628
100
AcDbEntity
8
0
100
AcDbLine
10
-53.150782597366735
20
-48.210430425516726
30
0
11
-52.837685805860922
21
-49.041262549273135
31
0
0
SPLINE
5
629
100
AcDbEntity
8
0
100
AcDbSpline
70
0
71
2
72
6
73
3
74
0
42
0.000000001
43
0.0000000001
44
0.0000000001
40
0
40
0
40
0
40
1
40
1
40
1
10
-52.837685805860922
20
-49.041262549273135
30
0
10
-52.694438857141897
20
-49.419843685738208
30
0
10
-52.624861759249136
20
-49.663363677374484
30
0
0
SPLINE
5
630
100
AcDbEntity
8
0
100
AcDbSpline
70
0
71
2
72
6
73
3
74
0
42
0.000000001
43
0.0000000001
44
0.0000000001
40
0
40
0
40
0
40
1
40
1
40
1
10
-52.624861759249136
20
-49.663363677374484
30
0
10
-52.567562920156881
20
-49.374823254458072
30
0
10
-52.463197347823545
20
-49.090375733486773
30
0
0
LINE
5
631
100
AcDbEntity
8
0
100
AcDbLine
10
-52.463197347823545
20
-49.090375733486773
30
0
11
-52.133729395572111
21
-48.210430425516726
31
0
0
LINE
5
632
100
AcDbEntity
8
0
100
AcDbLine
10
-54.088026893440649
20
-46.978506726137759
30
0
11
-55.248326969448492
21
-48.541944754234912
31
0
0
LINE
5
633
100
AcDbEntity
8
0
100
AcDbLine
10
-55.248326969448492
20
-48.541944754234912
30
0
11
-54.225134563747808
21
-49.978506845347049
31
0
0
LINE
5
634
100
AcDbEntity
8
0
100
AcDbLine
10
-54.225134563747808
20
-49.978506845347049
30
0
11
-54.697849464718267
21
-49.978506845347049
31
0
0
LINE
5
635
100
AcDbEntity
8
0
100
AcDbLine
10
-54.697849464718267
20
-49.978506845347049
30
0
11
-55.24218798905985
21
-49.209066164604785
31
0
0
SPLINE
5
636
100
AcDbEntity
8
0
100
AcDbSpline
70
0
71
2
72
6
73
3
74
0
42
0.000000001
43
0.0000000001
44
0.0000000001
40
0
40
0
40
0
40
1
40
1
40
1
10
-55.24218798905985
20
-49.209066164604785
30
0
10
-55.412037682835027
20
-48.969639074913623
30
0
10
-55.483661306206152
20
-48.840716910473468
30
0
0
SPLINE
5
637
100
AcDbEntity
8
0
100
AcDbSpline
70
0
71
2
72
6
73
3
74
0
42
0.000000001
43
0.0000000001
44
0.0000000001
40
0
40
0
40
0
40
1
40
1
40
1
10
-55.483661306206152
20
-48.840716910473468
30
0
10
-55.583934200111791
20
-49.004427623860003
30
0
10
-55.721041870418951
20
-49.182463121525409
30
0
0
LINE
5
638
100
AcDbEntity
8
0
100
AcDbLine
10
-55.721041870418951
20
-49.182463121525409
30
0
11
-56.324725163284704
21
-49.978506845347049
31
0
0
LINE
5
639
100
AcDbEntity
8
0
100
AcDbLine
10
-56.324725163284704
20
-49.978506845347049
30
0
11
-56.756512534920141
21
-49.978506845347049
31
0
0
LINE
5
640
100
AcDbEntity
8
0
100
AcDbLine
10
-56.756512534920141
20
-49.978506845347049
30
0
11
-55.702624333206579
21
-48.564454895369174
31
0
0
LINE
5
641
100
AcDbEntity
8
0
100
AcDbLine
10
-55.702624333206579
20
-48.564454895369174
30
0
11
-56.838367593590185
21
-46.978506726137759
31
0
0
LINE
5
642
100
AcDbEntity
8
0
100
AcDbLine
10
-56.838367593590185
20
-46.978506726137759
30
0
11
-56.347235453430578
21
-46.978506726137759
31
0
0
LINE
5
643
100
AcDbEntity
8
0
100
AcDbLine
10
-56.347235453430578
20
-46.978506726137759
30
0
11
-55.592119705978796
21
-48.04876593958533
31
0
0
SPLINE
5
644
100
AcDbEntity
8
0
100
AcDbSpline
70
0
71
2
72
6
73
3
74
0
42
0.000000001
43
0.0000000001
44
0.0000000001
40
0
40
0
40
0
40
1
40
1
40
1
10
-55.592119705978796
20
-48.04876593958533
30
0
10
-55.528681588474676
20
-48.140853327623965
30
0
10
-55.461151016060278
20
-48.249311727396609
30
0
0
SPLINE
5
645
100
AcDbEntity
8
0
100
AcDbSpline
70
0
71
2
72
6
73
3
74
0
42
0.000000001
43
0.0000000001
44
0.0000000001
40
0
40
0
40
0
40
1
40
1
40
1
10
-55.461151016060278
20
-48.249311727396609
30
0
10
-55.360878122154638
20
-48.08560071598685
30
0
10
-55.317904067341253
20
-48.024209421984317
30
0
0
LINE
5
646
100
AcDbEntity
8
0
100
AcDbLine
10
-55.317904067341253
20
-48.024209421984317
30
0
11
-54.56483454734461
21
-46.978506726137759
31
0
0
LINE
5
647
100
AcDbEntity
8
0
100
AcDbLine
10
-54.56483454734461
20
-46.978506726137759
30
0
11
-54.088026893440649
21
-46.978506726137759
31
0
0
LINE
5
648
100
AcDbEntity
8
0
100
AcDbLine
10
-57.255830180946752
20
-46.978506726137759
30
0
11
-57.255830180946752
21
-49.978506845347049
31
0
0
LINE
5
649
100
AcDbEntity
8
0
100
AcDbLine
10
-57.255830180946752
20
-49.978506845347049
30
0
11
-57.652828705612585
21
-49.978506845347049
31
0
0
LINE
5
650
100
AcDbEntity
8
0
100
AcDbLine
10
-57.652828705612585
20
-49.978506845347049
30
0
11
-57.652828705612585
21
-46.978506726137759
31
0
0
LINE
5
651
100
AcDbEntity
8
0
100
AcDbLine
10
-57.652828705612585
20
-46.978506726137759
30
0
11
-57.255830180946752
21
-46.978506726137759
31
0
0
LINE
5
652
100
AcDbEntity
8
0
100
AcDbLine
10
-58.217630994621679
20
-47.942354065291049
30
0
11
-58.592119229141638
21
-47.975096088759067
31
0
0
SPLINE
5
653
100
AcDbEntity
8
0
100
AcDbSpline
70
0
71
2
72
6
73
3
74
0
42
0.000000001
43
0.0000000001
44
0.0000000001
40
0
40
0
40
0
40
1
40
1
40
1
10
-58.592119229141638
20
-47.975096088759067
30
0
10
-58.618722570244238
20
-47.749993783346774
30
0
10
-58.715925824943945
20
-47.60572372090018
30
0
0
SPLINE
5
654
100
AcDbEntity
8
0
100
AcDbSpline
70
0
71
2
72
6
73
3
74
0
42
0.000000001
43
0.0000000001
44
0.0000000001
40
0
40
0
40
0
40
1
40
1
40
1
10
-58.715925824943945
20
-47.60572372090018
30
0
10
-58.813129079643652
20
-47.461453658453586
30
0
10
-59.017767322365209
20
-47.372435909620883
30
0
0
SPLINE
5
655
100
AcDbEntity
8
0
100
AcDbSpline
70
0
71
2
72
6
73
3
74
0
42
0.000000001
43
0.0000000001
44
0.0000000001
40
0
40
0
40
0
40
1
40
1
40
1
10
-59.017767322365209
20
-47.372435909620883
30
0
10
-59.222406161133215
20
-47.28341816078818
30
0
10
-59.478203666511938
20
-47.28341816078818
30
0
0
SPLINE
5
656
100
AcDbEntity
8
0
100
AcDbSpline
70
0
71
2
72
6
73
3
74
0
42
0.000000001
43
0.0000000001
44
0.0000000001
40
0
40
0
40
0
40
1
40
1
40
1
10
-59.478203666511938
20
-47.28341816078818
30
0
10
-59.705352795425817
20
-47.28341816078818
30
0
10
-59.879295242134496
20
-47.350948733202578
30
0
0
SPLINE
5
657
100
AcDbEntity
8
0
100
AcDbSpline
70
0
71
2
72
6
73
3
74
0
42
0.000000001
43
0.0000000001
44
0.0000000001
40
0
40
0
40
0
40
1
40
1
40
1
10
-59.879295242134496
20
-47.350948733202578
30
0
10
-60.053238284889623
20
-47.418479305616977
30
0
10
-60.1381629827656
20
-47.536146623007411
30
0
0
SPLINE
5
658
100
AcDbEntity
8
0
100
AcDbSpline
70
0
71
2
72
6
73
3
74
0
42
0.000000001
43
0.0000000001
44
0.0000000001
40
0
40
0
40
0
40
1
40
1
40
1
10
-60.1381629827656
20
-47.536146623007411
30
0
10
-60.223088276688024
20
-47.653813642374629
30
0
10
-60.223088276688024
20
-47.792967838160152
30
0
0
SPLINE
5
659
100
AcDbEntity
8
0
100
AcDbSpline
70
0
71
2
72
6
73
3
74
0
42
0.000000001
43
0.0000000001
44
0.0000000001
40
0
40
0
40
0
40
1
40
1
40
1
10
-60.223088276688024
20
-47.792967838160152
30
0
10
-60.223088276688024
20
-47.934168559424037
30
0
10
-60.141232621971533
20
-48.039557319990749
30
0
0
SPLINE
5
660
100
AcDbEntity
8
0
100
AcDbSpline
70
0
71
2
72
6
73
3
74
0
42
0.000000001
43
0.0000000001
44
0.0000000001
40
0
40
0
40
0
40
1
40
1
40
1
10
-60.141232621971533
20
-48.039557319990749
30
0
10
-60.059377563301489
20
-48.144946080557467
30
0
10
-59.871109736267492
20
-48.216569405905368
30
0
0
SPLINE
5
661
100
AcDbEntity
8
0
100
AcDbSpline
70
0
71
2
72
6
73
3
74
0
42
0.000000001
43
0.0000000001
44
0.0000000001
40
0
40
0
40
0
40
1
40
1
40
1
10
-59.871109736267492
20
-48.216569405905368
30
0
10
-59.750373375717565
20
-48.263636213652255
30
0
10
-59.337003243271276
20
-48.362886142841937
30
0
0
SPLINE
5
662
100
AcDbEntity
8
0
100
AcDbSpline
70
0
71
2
72
6
73
3
74
0
42
0.000000001
43
0.0000000001
44
0.0000000001
40
0
40
0
40
0
40
1
40
1
40
1
10
-59.337003243271276
20
-48.362886142841937
30
0
10
-58.923633706871435
20
-48.462135774008395
30
0
10
-58.75787676602976
20
-48.550130260101916
30
0
0
SPLINE
5
663
100
AcDbEntity
8
0
100
AcDbSpline
70
0
71
2
72
6
73
3
74
0
42
0.000000001
43
0.0000000001
44
0.0000000001
40
0
40
0
40
0
40
1
40
1
40
1
10
-58.75787676602976
20
-48.550130260101916
30
0
10
-58.543006193939611
20
-48.662681412808062
30
0
10
-58.4376174333729
20
-48.829461765400531
30
0
0
SPLINE
5
664
100
AcDbEntity
8
0
100
AcDbSpline
70
0
71
2
72
6
73
3
74
0
42
0.000000001
43
0.0000000001
44
0.0000000001
40
0
40
0
40
0
40
1
40
1
40
1
10
-58.4376174333729
20
-48.829461765400531
30
0
10
-58.332228672806188
20
-48.996242117992999
30
0
10
-58.332228672806188
20
-49.202927035204532
30
0
0
SPLINE
5
665
100
AcDbEntity
8
0
100
AcDbSpline
70
0
71
2
72
6
73
3
74
0
42
0.000000001
43
0.0000000001
44
0.0000000001
40
0
40
0
40
0
40
1
40
1
40
1
10
-58.332228672806188
20
-49.202927035204532
30
0
10
-58.332228672806188
20
-49.430075866095187
30
0
10
-58.461150539223119
20
-49.62755171667731
30
0
0
SPLINE
5
666
100
AcDbEntity
8
0
100
AcDbSpline
70
0
71
2
72
6
73
3
74
0
42
0.000000001
43
0.0000000001
44
0.0000000001
40
0
40
0
40
0
40
1
40
1
40
1
10
-58.461150539223119
20
-49.62755171667731
30
0
10
-58.590073001686498
20
-49.825027865282657
30
0
10
-58.837685597244665
20
-49.927347284666659
30
0
0
SPLINE
5
667
100
AcDbEntity
8
0
100
AcDbSpline
70
0
71
2
72
6
73
3
74
0
42
0.000000001
43
0.0000000001
44
0.0000000001
40
0
40
0
40
0
40
1
40
1
40
1
10
-58.837685597244665
20
-49.927347284666659
30
0
10
-59.085298192802831
20
-50.029666406027438
30
0
10
-59.388163101974889
20
-50.029666406027438
30
0
0
SPLINE
5
668
100
AcDbEntity
8
0
100
AcDbSpline
70
0
71
2
72
6
73
3
74
0
42
0.000000001
43
0.0000000001
44
0.0000000001
40
0
40
0
40
0
40
1
40
1
40
1
10
-59.388163101974889
20
-50.029666406027438
30
0
10
-59.721723807159826
20
-50.029666406027438
30
0
10
-59.976498496834203
20
-49.922231119982364
30
0
0
SPLINE
5
669
100
AcDbEntity
8
0
100
AcDbSpline
70
0
71
2
72
6
73
3
74
0
42
0.000000001
43
0.0000000001
44
0.0000000001
40
0
40
0
40
0
40
1
40
1
40
1
10
-59.976498496834203
20
-49.922231119982364
30
0
10
-60.231273782555029
20
-49.814796131960513
30
0
10
-60.368381154838964
20
-49.606064838282229
30
0
0
SPLINE
5
670
100
AcDbEntity
8
0
100
AcDbSpline
70
0
71
2
72
6
73
3
74
0
42
0.000000001
43
0.0000000001
44
0.0000000001
40
0
40
0
40
0
40
1
40
1
40
1
10
-60.368381154838964
20
-49.606064838282229
30
0
10
-60.505489123169347
20
-49.397333544603939
30
0
10
-60.515721452537939
20
-49.133349937311763
30
0
0
LINE
5
671
100
AcDbEntity
8
0
100
AcDbLine
10
-60.515721452537939
20
-49.133349937311763
30
0
11
-60.135093343559667
21
-49.104700517765636
31
0
0
SPLINE
5
672
100
AcDbEntity
8
0
100
AcDbSpline
70
0
71
2
72
6
73
3
74
0
42
0.000000001
43
0.0000000001
44
0.0000000001
40
0
40
0
40
0
40
1
40
1
40
1
10
-60.135093343559667
20
-49.104700517765643
30
0
10
-60.104397547546789
20
-49.389148038736941
30
0
10
-59.927385461632177
20
-49.534441214911105
30
0
0
SPLINE
5
673
100
AcDbEntity
8
0
100
AcDbSpline
70
0
71
2
72
6
73
3
74
0
42
0.000000001
43
0.0000000001
44
0.0000000001
40
0
40
0
40
0
40
1
40
1
40
1
10
-59.927385461632177
20
-49.534441214911105
30
0
10
-59.750373375717565
20
-49.679734689108493
30
0
10
-59.404534113708898
20
-49.679734689108493
30
0
0
SPLINE
5
674
100
AcDbEntity
8
0
100
AcDbSpline
70
0
71
2
72
6
73
3
74
0
42
0.000000001
43
0.0000000001
44
0.0000000001
40
0
40
0
40
0
40
1
40
1
40
1
10
-59.404534113708898
20
-49.679734689108493
30
0
10
-59.044370663467809
20
-49.679734689108493
30
0
10
-58.87963653833048
20
-49.547742885462405
30
0
0
SPLINE
5
675
100
AcDbEntity
8
0
100
AcDbSpline
70
0
71
2
72
6
73
3
74
0
42
0.000000001
43
0.0000000001
44
0.0000000001
40
0
40
0
40
0
40
1
40
1
40
1
10
-58.87963653833048
20
-49.547742885462405
30
0
10
-58.714902413193151
20
-49.415751081816317
30
0
10
-58.714902413193151
20
-49.229530078283908
30
0
0
SPLINE
5
676
100
AcDbEntity
8
0
100
AcDbSpline
70
0
71
2
72
6
73
3
74
0
42
0.000000001
43
0.0000000001
44
0.0000000001
40
0
40
0
40
0
40
1
40
1
40
1
10
-58.714902413193151
20
-49.229530078283908
30
0
10
-58.714902413193151
20
-49.067865592352511
30
0
10
-58.8315463188328
20
-48.963499945513369
30
0
0
SPLINE
5
677
100
AcDbEntity
8
0
100
AcDbSpline
70
0
71
2
72
6
73
3
74
0
42
0.000000001
43
0.0000000001
44
0.0000000001
40
0
40
0
40
0
40
1
40
1
40
1
10
-58.8315463188328
20
-48.963499945513369
30
0
10
-58.946143997017309
20
-48.85913444768584
30
0
10
-59.430114043060705
20
-48.749652785174014
30
0
0
SPLINE
5
678
100
AcDbEntity
8
0
100
AcDbSpline
70
0
71
2
72
6
73
3
74
0
42
0.000000001
43
0.0000000001
44
0.0000000001
40
0
40
0
40
0
40
1
40
1
40
1
10
-59.430114043060705
20
-48.749652785174014
30
0
10
-59.914084089104101
20
-48.6401712716738
30
0
10
-60.094165814224645
20
-48.558315765968921
30
0
0
SPLINE
5
679
100
AcDbEntity
8
0
100
AcDbSpline
70
0
71
2
72
6
73
3
74
0
42
0.000000001
43
0.0000000001
44
0.0000000001
40
0
40
0
40
0
40
1
40
1
40
1
10
-60.094165814224645
20
-48.558315765968921
30
0
10
-60.356103194061681
20
-48.43757910739577
30
0
10
-60.480932605568334
20
-48.252381366602535
30
0
0
SPLINE
5
680
100
AcDbEntity
8
0
100
AcDbSpline
70
0
71
2
72
6
73
3
74
0
42
0.000000001
43
0.0000000001
44
0.0000000001
40
0
40
0
40
0
40
1
40
1
40
1
10
-60.480932605568334
20
-48.252381366602535
30
0
10
-60.605762017074987
20
-48.067183476797695
30
0
10
-60.605762017074987
20
-47.825710159651393
30
0
0
SPLINE
5
681
100
AcDbEntity
8
0
100
AcDbSpline
70
0
71
2
72
6
73
3
74
0
42
0.000000001
43
0.0000000001
44
0.0000000001
40
0
40
0
40
0
40
1
40
1
40
1
10
-60.605762017074987
20
-47.825710159651393
30
0
10
-60.605762017074987
20
-47.586283069960231
30
0
10
-60.468654048744604
20
-47.374482137076015
30
0
0
SPLINE
5
682
100
AcDbEntity
8
0
100
AcDbSpline
70
0
71
2
72
6
73
3
74
0
42
0.000000001
43
0.0000000001
44
0.0000000001
40
0
40
0
40
0
40
1
40
1
40
1
10
-60.468654048744604
20
-47.374482137076015
30
0
10
-60.331546676460668
20
-47.162681204191799
30
0
10
-60.074725163284704
20
-47.045014184824588
30
0
0
SPLINE
5
683
100
AcDbEntity
8
0
100
AcDbSpline
70
0
71
2
72
6
73
3
74
0
42
0.000000001
43
0.0000000001
44
0.0000000001
40
0
40
0
40
0
40
1
40
1
40
1
10
-60.074725163284704
20
-47.045014184824588
30
0
10
-59.81790365010874
20
-46.92734716545737
30
0
10
-59.496621501747534
20
-46.92734716545737
30
0
0
SPLINE
5
684
100
AcDbEntity
8
0
100
AcDbSpline
70
0
71
2
72
6
73
3
74
0
42
0.000000001
43
0.0000000001
44
0.0000000001
40
0
40
0
40
0
40
1
40
1
40
1
10
-59.496621501747534
20
-46.92734716545737
30
0
10
-59.08939064771311
20
-46.92734716545737
30
0
10
-58.814151895347997
20
-47.046037298552157
30
0
0
SPLINE
5
685
100
AcDbEntity
8
0
100
AcDbSpline
70
0
71
2
72
6
73
3
74
0
42
0.000000001
43
0.0000000001
44
0.0000000001
40
0
40
0
40
0
40
1
40
1
40
1
10
-58.814151895347997
20
-47.046037298552157
30
0
10
-58.538913142982885
20
-47.164727729670169
30
0
10
-58.382365119759008
20
-47.403131705633761
30
0
0
SPLINE
5
686
100
AcDbEntity
8
0
100
AcDbSpline
70
0
71
2
72
6
73
3
74
0
42
0.000000001
43
0.0000000001
44
0.0000000001
40
0
40
0
40
0
40
1
40
1
40
1
10
-58.382365119759008
20
-47.403131705633761
30
0
10
-58.225816500488683
20
-47.64153538357413
30
0
10
-58.217630994621679
20
-47.942354065291049
30
0
0
LINE
5
687
100
AcDbEntity
8
0
100
AcDbLine
10
-64.098941695991925
20
-47.3325311959902
30
0
11
-64.098941695991925
21
-46.978506726137752
31
0
0
LINE
5
688
100
AcDbEntity
8
0
100
AcDbLine
10
-64.098941695991925
20
-46.978506726137752
30
0
11
-62.115994108024999
21
-46.978506726137752
31
0
0
SPLINE
5
689
100
AcDbEntity
8
0
100
AcDbSpline
70
0
71
2
72
6
73
3
74
0
42
0.000000001
43
0.0000000001
44
0.0000000001
40
0
40
0
40
0
40
1
40
1
40
1
10
-62.115994108024999
20
-46.978506726137752
30
0
10
-62.111901653114721
20
-47.111521643511409
30
0
10
-62.158969056908056
20
-47.234304827562923
30
0
0
SPLINE
5
690
100
AcDbEntity
8
0
100
AcDbSpline
70
0
71
2
72
6
73
3
74
0
42
0.000000001
43
0.0000000001
44
0.0000000001
40
0
40
0
40
0
40
1
40
1
40
1
10
-62.158969056908056
20
-47.234304827562923
30
0
10
-62.234684837166235
20
-47.436896842829341
30
0
10
-62.401464593712255
20
-47.633349877707118
30
0
0
SPLINE
5
691
100
AcDbEntity
8
0
100
AcDbSpline
70
0
71
2
72
6
73
3
74
0
42
0.000000001
43
0.0000000001
44
0.0000000001
40
0
40
0
40
0
40
1
40
1
40
1
10
-62.401464593712255
20
-47.633349877707118
30
0
10
-62.568245542351171
20
-47.829802614561672
30
0
10
-62.883388412300512
20
-48.087647241465206
30
0
0
SPLINE
5
692
100
AcDbEntity
8
0
100
AcDbSpline
70
0
71
2
72
6
73
3
74
0
42
0.000000001
43
0.0000000001
44
0.0000000001
40
0
40
0
40
0
40
1
40
1
40
1
10
-62.883388412300512
20
-48.087647241465206
30
0
10
-63.37247432500498
20
-48.488738668076152
30
0
10
-63.54437054425852
20
-48.723049742094631
30
0
0
SPLINE
5
693
100
AcDbEntity
8
0
100
AcDbSpline
70
0
71
2
72
6
73
3
74
0
42
0.000000001
43
0.0000000001
44
0.0000000001
40
0
40
0
40
0
40
1
40
1
40
1
10
-63.54437054425852
20
-48.723049742094631
30
0
10
-63.71626676351206
20
-48.957360816113109
30
0
10
-63.71626676351206
20
-49.166092109791393
30
0
0
SPLINE
5
694
100
AcDbEntity
8
0
100
AcDbSpline
70
0
71
2
72
6
73
3
74
0
42
0.000000001
43
0.0000000001
44
0.0000000001
40
0
40
0
40
0
40
1
40
1
40
1
10
-63.71626676351206
20
-49.166092109791393
30
0
10
-63.71626676351206
20
-49.38505513679182
30
0
10
-63.559718740288183
20
-49.535464626661891
30
0
0
SPLINE
5
695
100
AcDbEntity
8
0
100
AcDbSpline
70
0
71
2
72
6
73
3
74
0
42
0.000000001
43
0.0000000001
44
0.0000000001
40
0
40
0
40
0
40
1
40
1
40
1
10
-63.559718740288183
20
-49.535464626661891
30
0
10
-63.403170717064306
20
-49.685873669497127
30
0
10
-63.151465070549413
20
-49.685873669497127
30
0
0
SPLINE
5
696
100
AcDbEntity
8
0
100
AcDbSpline
70
0
71
2
72
6
73
3
74
0
42
0.000000001
43
0.0000000001
44
0.0000000001
40
0
40
0
40
0
40
1
40
1
40
1
10
-63.151465070549413
20
-49.685873669497127
30
0
10
-62.885435235802099
20
-49.685873669497127
30
0
10
-62.725817573372289
20
-49.526255709044094
30
0
0
SPLINE
5
697
100
AcDbEntity
8
0
100
AcDbSpline
70
0
71
2
72
6
73
3
74
0
42
0.000000001
43
0.0000000001
44
0.0000000001
40
0
40
0
40
0
40
1
40
1
40
1
10
-62.725817573372289
20
-49.526255709044094
30
0
10
-62.566198718849584
20
-49.36663774859106
30
0
10
-62.564153087440893
20
-49.084236604086513
30
0
0
LINE
5
698
100
AcDbEntity
8
0
100
AcDbLine
10
-62.564153087440893
20
-49.084236604086513
30
0
11
-62.185571801964208
21
-49.123117905966396
31
0
0
SPLINE
5
699
100
AcDbEntity
8
0
100
AcDbSpline
70
0
71
2
72
6
73
3
74
0
42
0.000000001
43
0.0000000001
44
0.0000000001
40
0
40
0
40
0
40
1
40
1
40
1
10
-62.185571801964208
20
-49.123117905966396
30
0
10
-62.224453103844091
20
-49.546719473711605
30
0
10
-62.478204381767675
20
-49.768752437941188
30
0
0
SPLINE
5
700
100
AcDbEntity
8
0
100
AcDbSpline
70
0
71
2
72
6
73
3
74
0
42
0.000000001
43
0.0000000001
44
0.0000000001
40
0
40
0
40
0
40
1
40
1
40
1
10
-62.478204381767675
20
-49.768752437941188
30
0
10
-62.731955659691259
20
-49.990785104147548
30
0
10
-63.159651172462866
20
-49.990785104147548
30
0
0
SPLINE
5
701
100
AcDbEntity
8
0
100
AcDbSpline
70
0
71
2
72
6
73
3
74
0
42
0.000000001
43
0.0000000001
44
0.0000000001
40
0
40
0
40
0
40
1
40
1
40
1
10
-63.159651172462866
20
-49.990785104147548
30
0
10
-63.591437948051855
20
-49.990785104147548
30
0
10
-63.843143594566747
20
-49.751358014456386
30
0
0
SPLINE
5
702
100
AcDbEntity
8
0
100
AcDbSpline
70
0
71
2
72
6
73
3
74
0
42
0.000000001
43
0.0000000001
44
0.0000000001
40
0
40
0
40
0
40
1
40
1
40
1
10
-63.843143594566747
20
-49.751358014456386
30
0
10
-64.094848048988752
20
-49.511930924765224
30
0
10
-64.094848048988752
20
-49.157906454912776
30
0
0
SPLINE
5
703
100
AcDbEntity
8
0
100
AcDbSpline
70
0
71
2
72
6
73
3
74
0
42
0.000000001
43
0.0000000001
44
0.0000000001
40
0
40
0
40
0
40
1
40
1
40
1
10
-64.094848048988752
20
-49.157906454912776
30
0
10
-64.094848048988752
20
-48.97782458078062
30
0
10
-64.02117909223216
20
-48.803881985060329
30
0
0
SPLINE
5
704
100
AcDbEntity
8
0
100
AcDbSpline
70
0
71
2
72
6
73
3
74
0
42
0.000000001
43
0.0000000001
44
0.0000000001
40
0
40
0
40
0
40
1
40
1
40
1
10
-64.02117909223216
20
-48.803881985060329
30
0
10
-63.947508943382665
20
-48.629939240328426
30
0
10
-63.776635539833471
20
-48.437579107395763
30
0
0
SPLINE
5
705
100
AcDbEntity
8
0
100
AcDbSpline
70
0
71
2
72
6
73
3
74
0
42
0.000000001
43
0.0000000001
44
0.0000000001
40
0
40
0
40
0
40
1
40
1
40
1
10
-63.776635539833471
20
-48.437579107395763
30
0
10
-63.605762136284277
20
-48.2452189744631
30
0
10
-63.208764207664892
20
-47.9096117437998
30
0
0
SPLINE
5
706
100
AcDbEntity
8
0
100
AcDbSpline
70
0
71
2
72
6
73
3
74
0
42
0.000000001
43
0.0000000001
44
0.0000000001
40
0
40
0
40
0
40
1
40
1
40
1
10
-63.208764207664892
20
-47.9096117437998
30
0
10
-62.877249133888647
20
-47.631303650251979
30
0
10
-62.783115518394872
20
-47.532053870073909
30
0
0
SPLINE
5
707
100
AcDbEntity
8
0
100
AcDbSpline
70
0
71
2
72
6
73
3
74
0
42
0.000000001
43
0.0000000001
44
0.0000000001
40
0
40
0
40
0
40
1
40
1
40
1
10
-62.783115518394872
20
-47.532053870073909
30
0
10
-62.688981902901098
20
-47.432804089895839
30
0
10
-62.627590310875341
20
-47.3325311959902
30
0
0
LINE
5
708
100
AcDbEntity
8
0
100
AcDbLine
10
-62.627590310875341
20
-47.3325311959902
30
0
11
-64.098941695991925
21
-47.3325311959902
31
0
0
ENDSEC
0
SECTION
2
OBJECTS
0
DICTIONARY
5
C
100
AcDbDictionary
3
ACAD_GROUP
350
D
3
ACAD_MLINESTYLE
350
17
0
DICTIONARY
5
D
100
AcDbDictionary
0
DICTIONARY
5
1A
330
C
100
AcDbDictionary
0
DICTIONARY
5
17
100
AcDbDictionary
0
ENDSEC
0
EOF
