999
"DXF R12 Output" (www.mydxf.blogspot.com)
 0 
SECTION
 2 
HEADER
 9 
$ACADVER
 1 
AC1009
 9 
$EXTMIN
 10 
 0 
 20 
 0 
 9 
$EXTMAX
 10 
 8.5 
 20 
 11 
 0 
ENDSEC
 0 
SECTION
 2 
ENTITIES
0
LINE
8
Layer 1
10
0.793749
20
297.794000
11
-0.793749
21
296.206000
0
LINE
8
Layer 1
10
0.000000
20
298.323000
11
0.000000
21
295.677000
0
LINE
8
Layer 1
10
2.116660
20
295.942000
11
1.058330
21
294.883670
0
LINE
8
Layer 1
10
1.587500
20
296.471000
11
0.529170
21
295.412670
0
LINE
8
Layer 1
10
1.058330
20
297.000000
11
0.000000
21
295.941670
0
LINE
8
0
10
280.669000
20
99.599500
11
280.669000
21
85.949700
0
LINE
8
0
10
280.669000
20
85.949700
11
264.919000
21
85.949700
0
LINE
8
0
10
264.919000
20
85.949700
11
264.919000
21
99.599500
0
LINE
8
0
10
264.919000
20
99.599500
11
280.669000
21
99.599500
0
LINE
8
0
10
232.903000
20
116.452000
11
232.701157
21
117.442953
0
LINE
8
0
10
232.701157
20
117.442953
11
232.154341
21
118.251857
0
LINE
8
0
10
232.154341
20
118.251857
11
231.344356
21
118.797070
0
LINE
8
0
10
231.344356
20
118.797070
11
230.353005
21
118.996950
0
LINE
8
0
10
230.353005
20
118.996950
11
229.361654
21
118.797070
0
LINE
8
0
10
229.361654
20
118.797070
11
228.551669
21
118.251857
0
LINE
8
0
10
228.551669
20
118.251857
11
228.004853
21
117.442953
0
LINE
8
0
10
228.004853
20
117.442953
11
227.803010
21
116.452000
0
LINE
8
0
10
227.803010
20
116.452000
11
228.004853
21
115.461047
0
LINE
8
0
10
228.004853
20
115.461047
11
228.551669
21
114.652143
0
LINE
8
0
10
228.551669
20
114.652143
11
229.361654
21
114.106930
0
LINE
8
0
10
229.361654
20
114.106930
11
230.353005
21
113.907050
0
LINE
8
0
10
230.353005
20
113.907050
11
231.344356
21
114.106930
0
LINE
8
0
10
231.344356
20
114.106930
11
232.154341
21
114.652143
0
LINE
8
0
10
232.154341
20
114.652143
11
232.701157
21
115.461047
0
LINE
8
0
10
232.701157
20
115.461047
11
232.903000
21
116.452000
0
LINE
8
0
10
232.903000
20
116.452000
11
232.903000
21
116.452000
0
LINE
8
0
10
221.108000
20
98.468400
11
219.790320
21
98.233141
0
LINE
8
0
10
219.790320
20
98.233141
11
218.665415
21
97.579368
0
LINE
8
0
10
218.665415
20
97.579368
11
217.826237
21
96.585079
0
LINE
8
0
10
217.826237
20
96.585079
11
217.365740
21
95.328270
0
LINE
8
0
10
221.108000
20
98.469800
11
239.719000
21
98.469800
0
LINE
8
0
10
243.461000
20
95.328300
11
243.000530
21
96.585041
0
LINE
8
0
10
243.000530
20
96.585041
11
242.161416
21
97.579296
0
LINE
8
0
10
242.161416
20
97.579296
11
241.036594
21
98.233078
0
LINE
8
0
10
241.036594
20
98.233078
11
239.719000
21
98.468400
0
LINE
8
0
10
243.461000
20
95.329200
11
243.970587
21
92.437310
0
LINE
8
0
10
240.228000
20
87.978500
11
241.055176
21
88.069594
0
LINE
8
0
10
241.055176
20
88.069594
11
241.833945
21
88.334533
0
LINE
8
0
10
241.833945
20
88.334533
11
242.537482
21
88.760808
0
LINE
8
0
10
242.537482
20
88.760808
11
243.138961
21
89.335910
0
LINE
8
0
10
243.138961
20
89.335910
11
243.600879
21
90.028117
0
LINE
8
0
10
243.600879
20
90.028117
11
243.898508
21
90.794988
0
LINE
8
0
10
243.898508
20
90.794988
11
244.024189
21
91.607932
0
LINE
8
0
10
244.024189
20
91.607932
11
243.970260
21
92.438360
0
LINE
8
0
10
240.228000
20
87.979000
11
220.599000
21
87.979000
0
LINE
8
0
10
216.856000
20
92.438300
11
216.802071
21
91.607872
0
LINE
8
0
10
216.802071
20
91.607872
11
216.927752
21
90.794928
0
LINE
8
0
10
216.927752
20
90.794928
11
217.225381
21
90.028057
0
LINE
8
0
10
217.225381
20
90.028057
11
217.687299
21
89.335850
0
LINE
8
0
10
217.687299
20
89.335850
11
218.288778
21
88.760748
0
LINE
8
0
10
218.288778
20
88.760748
11
218.992315
21
88.334473
0
LINE
8
0
10
218.992315
20
88.334473
11
219.771084
21
88.069534
0
LINE
8
0
10
219.771084
20
88.069534
11
220.598260
21
87.978440
0
LINE
8
0
10
216.856000
20
92.437300
11
217.365587
21
95.329190
0
LINE
8
0
10
89.339300
20
93.222600
11
89.172955
21
94.038543
0
LINE
8
0
10
89.172955
20
94.038543
11
88.722608
21
94.704561
0
LINE
8
0
10
88.722608
20
94.704561
11
88.055609
21
95.153453
0
LINE
8
0
10
88.055609
20
95.153453
11
87.239305
21
95.318017
0
LINE
8
0
10
87.239305
20
95.318017
11
86.423001
21
95.153453
0
LINE
8
0
10
86.423001
20
95.153453
11
85.756002
21
94.704561
0
LINE
8
0
10
85.756002
20
94.704561
11
85.305655
21
94.038543
0
LINE
8
0
10
85.305655
20
94.038543
11
85.139310
21
93.222600
0
LINE
8
0
10
85.139310
20
93.222600
11
85.305655
21
92.406657
0
LINE
8
0
10
85.305655
20
92.406657
11
85.756002
21
91.740639
0
LINE
8
0
10
85.756002
20
91.740639
11
86.423001
21
91.291747
0
LINE
8
0
10
86.423001
20
91.291747
11
87.239305
21
91.127183
0
LINE
8
0
10
87.239305
20
91.127183
11
88.055609
21
91.291747
0
LINE
8
0
10
88.055609
20
91.291747
11
88.722608
21
91.740639
0
LINE
8
0
10
88.722608
20
91.740639
11
89.172955
21
92.406657
0
LINE
8
0
10
89.172955
20
92.406657
11
89.339300
21
93.222600
0
LINE
8
0
10
89.339300
20
93.222600
11
89.339300
21
93.222600
0
LINE
8
0
10
114.363000
20
116.452000
11
114.161157
21
117.442953
0
LINE
8
0
10
114.161157
20
117.442953
11
113.614341
21
118.251857
0
LINE
8
0
10
113.614341
20
118.251857
11
112.804356
21
118.797070
0
LINE
8
0
10
112.804356
20
118.797070
11
111.813005
21
118.996950
0
LINE
8
0
10
111.813005
20
118.996950
11
110.821654
21
118.797070
0
LINE
8
0
10
110.821654
20
118.797070
11
110.011669
21
118.251857
0
LINE
8
0
10
110.011669
20
118.251857
11
109.464853
21
117.442953
0
LINE
8
0
10
109.464853
20
117.442953
11
109.263010
21
116.452000
0
LINE
8
0
10
109.263010
20
116.452000
11
109.464853
21
115.461047
0
LINE
8
0
10
109.464853
20
115.461047
11
110.011669
21
114.652143
0
LINE
8
0
10
110.011669
20
114.652143
11
110.821654
21
114.106930
0
LINE
8
0
10
110.821654
20
114.106930
11
111.813005
21
113.907050
0
LINE
8
0
10
111.813005
20
113.907050
11
112.804356
21
114.106930
0
LINE
8
0
10
112.804356
20
114.106930
11
113.614341
21
114.652143
0
LINE
8
0
10
113.614341
20
114.652143
11
114.161157
21
115.461047
0
LINE
8
0
10
114.161157
20
115.461047
11
114.363000
21
116.452000
0
LINE
8
0
10
114.363000
20
116.452000
11
114.363000
21
116.452000
0
LINE
8
0
10
190.681000
20
120.962000
11
189.606049
21
120.770079
0
LINE
8
0
10
189.606049
20
120.770079
11
188.688361
21
120.236737
0
LINE
8
0
10
188.688361
20
120.236737
11
188.003768
21
119.425604
0
LINE
8
0
10
188.003768
20
119.425604
11
187.628100
21
118.400310
0
LINE
8
0
10
190.681000
20
120.962000
11
222.986000
21
120.962000
0
LINE
8
0
10
226.039000
20
118.401000
11
225.663332
21
119.426294
0
LINE
8
0
10
225.663332
20
119.426294
11
224.978739
21
120.237427
0
LINE
8
0
10
224.978739
20
120.237427
11
224.061051
21
120.770769
0
LINE
8
0
10
224.061051
20
120.770769
11
222.986100
21
120.962690
0
LINE
8
0
10
226.039000
20
118.401000
11
226.536416
21
115.580550
0
LINE
8
0
10
223.483000
20
111.942000
11
224.793113
21
112.232447
0
LINE
8
0
10
224.793113
20
112.232447
11
225.857731
21
113.049357
0
LINE
8
0
10
225.857731
20
113.049357
11
226.477363
21
114.239655
0
LINE
8
0
10
226.477363
20
114.239655
11
226.535900
21
115.580300
0
LINE
8
0
10
223.483000
20
111.942000
11
190.183000
21
111.942000
0
LINE
8
0
10
187.130000
20
115.581000
11
187.188537
21
114.240355
0
LINE
8
0
10
187.188537
20
114.240355
11
187.808169
21
113.050057
0
LINE
8
0
10
187.808169
20
113.050057
11
188.872787
21
112.233147
0
LINE
8
0
10
188.872787
20
112.233147
11
190.182900
21
111.942700
0
LINE
8
0
10
187.130000
20
115.580000
11
187.627231
21
118.400450
0
LINE
8
0
10
185.863000
20
116.452000
11
185.661157
21
117.442953
0
LINE
8
0
10
185.661157
20
117.442953
11
185.114341
21
118.251857
0
LINE
8
0
10
185.114341
20
118.251857
11
184.304356
21
118.797070
0
LINE
8
0
10
184.304356
20
118.797070
11
183.313005
21
118.996950
0
LINE
8
0
10
183.313005
20
118.996950
11
182.321654
21
118.797070
0
LINE
8
0
10
182.321654
20
118.797070
11
181.511669
21
118.251857
0
LINE
8
0
10
181.511669
20
118.251857
11
180.964853
21
117.442953
0
LINE
8
0
10
180.964853
20
117.442953
11
180.763010
21
116.452000
0
LINE
8
0
10
180.763010
20
116.452000
11
180.964853
21
115.461047
0
LINE
8
0
10
180.964853
20
115.461047
11
181.511669
21
114.652143
0
LINE
8
0
10
181.511669
20
114.652143
11
182.321654
21
114.106930
0
LINE
8
0
10
182.321654
20
114.106930
11
183.313005
21
113.907050
0
LINE
8
0
10
183.313005
20
113.907050
11
184.304356
21
114.106930
0
LINE
8
0
10
184.304356
20
114.106930
11
185.114341
21
114.652143
0
LINE
8
0
10
185.114341
20
114.652143
11
185.661157
21
115.461047
0
LINE
8
0
10
185.661157
20
115.461047
11
185.863000
21
116.452000
0
LINE
8
0
10
185.863000
20
116.452000
11
185.863000
21
116.452000
0
LINE
8
0
10
215.854000
20
93.223400
11
215.688972
21
94.040815
0
LINE
8
0
10
215.688972
20
94.040815
11
215.238924
21
94.708324
0
LINE
8
0
10
215.238924
20
94.708324
11
214.571415
21
95.158371
0
LINE
8
0
10
214.571415
20
95.158371
11
213.754000
21
95.323400
0
LINE
8
0
10
213.754000
20
95.323400
11
212.936585
21
95.158371
0
LINE
8
0
10
212.936585
20
95.158371
11
212.269076
21
94.708324
0
LINE
8
0
10
212.269076
20
94.708324
11
211.819028
21
94.040815
0
LINE
8
0
10
211.819028
20
94.040815
11
211.654000
21
93.223400
0
LINE
8
0
10
211.654000
20
93.223400
11
211.935347
21
92.173400
0
LINE
8
0
10
211.935347
20
92.173400
11
212.704000
21
91.404747
0
LINE
8
0
10
212.704000
20
91.404747
11
213.754000
21
91.123400
0
LINE
8
0
10
213.754000
20
91.123400
11
214.804000
21
91.404747
0
LINE
8
0
10
214.804000
20
91.404747
11
215.572653
21
92.173400
0
LINE
8
0
10
215.572653
20
92.173400
11
215.854000
21
93.223400
0
LINE
8
0
10
215.854000
20
93.223400
11
215.854000
21
93.223400
0
LINE
8
0
10
176.836000
20
93.222600
11
176.669655
21
94.038543
0
LINE
8
0
10
176.669655
20
94.038543
11
176.219308
21
94.704561
0
LINE
8
0
10
176.219308
20
94.704561
11
175.552309
21
95.153453
0
LINE
8
0
10
175.552309
20
95.153453
11
174.736005
21
95.318017
0
LINE
8
0
10
174.736005
20
95.318017
11
173.919701
21
95.153453
0
LINE
8
0
10
173.919701
20
95.153453
11
173.252702
21
94.704561
0
LINE
8
0
10
173.252702
20
94.704561
11
172.802355
21
94.038543
0
LINE
8
0
10
172.802355
20
94.038543
11
172.636010
21
93.222600
0
LINE
8
0
10
172.636010
20
93.222600
11
172.802355
21
92.406657
0
LINE
8
0
10
172.802355
20
92.406657
11
173.252702
21
91.740639
0
LINE
8
0
10
173.252702
20
91.740639
11
173.919701
21
91.291747
0
LINE
8
0
10
173.919701
20
91.291747
11
174.736005
21
91.127183
0
LINE
8
0
10
174.736005
20
91.127183
11
175.552309
21
91.291747
0
LINE
8
0
10
175.552309
20
91.291747
11
176.219308
21
91.740639
0
LINE
8
0
10
176.219308
20
91.740639
11
176.669655
21
92.406657
0
LINE
8
0
10
176.669655
20
92.406657
11
176.836000
21
93.222600
0
LINE
8
0
10
176.836000
20
93.222600
11
176.836000
21
93.222600
0
LINE
8
0
10
201.830000
20
93.222600
11
201.663655
21
94.038543
0
LINE
8
0
10
201.663655
20
94.038543
11
201.213308
21
94.704561
0
LINE
8
0
10
201.213308
20
94.704561
11
200.546309
21
95.153453
0
LINE
8
0
10
200.546309
20
95.153453
11
199.730005
21
95.318017
0
LINE
8
0
10
199.730005
20
95.318017
11
198.913701
21
95.153453
0
LINE
8
0
10
198.913701
20
95.153453
11
198.246702
21
94.704561
0
LINE
8
0
10
198.246702
20
94.704561
11
197.796355
21
94.038543
0
LINE
8
0
10
197.796355
20
94.038543
11
197.630010
21
93.222600
0
LINE
8
0
10
197.630010
20
93.222600
11
197.796355
21
92.406657
0
LINE
8
0
10
197.796355
20
92.406657
11
198.246702
21
91.740639
0
LINE
8
0
10
198.246702
20
91.740639
11
198.913701
21
91.291747
0
LINE
8
0
10
198.913701
20
91.291747
11
199.730005
21
91.127183
0
LINE
8
0
10
199.730005
20
91.127183
11
200.546309
21
91.291747
0
LINE
8
0
10
200.546309
20
91.291747
11
201.213308
21
91.740639
0
LINE
8
0
10
201.213308
20
91.740639
11
201.663655
21
92.406657
0
LINE
8
0
10
201.663655
20
92.406657
11
201.830000
21
93.222600
0
LINE
8
0
10
201.830000
20
93.222600
11
201.830000
21
93.222600
0
LINE
8
0
10
249.173000
20
93.223400
11
249.006655
21
94.039343
0
LINE
8
0
10
249.006655
20
94.039343
11
248.556308
21
94.705361
0
LINE
8
0
10
248.556308
20
94.705361
11
247.889309
21
95.154253
0
LINE
8
0
10
247.889309
20
95.154253
11
247.073005
21
95.318817
0
LINE
8
0
10
247.073005
20
95.318817
11
246.256701
21
95.154253
0
LINE
8
0
10
246.256701
20
95.154253
11
245.589702
21
94.705361
0
LINE
8
0
10
245.589702
20
94.705361
11
245.139355
21
94.039343
0
LINE
8
0
10
245.139355
20
94.039343
11
244.973010
21
93.223400
0
LINE
8
0
10
244.973010
20
93.223400
11
245.139355
21
92.407457
0
LINE
8
0
10
245.139355
20
92.407457
11
245.589702
21
91.741439
0
LINE
8
0
10
245.589702
20
91.741439
11
246.256701
21
91.292547
0
LINE
8
0
10
246.256701
20
91.292547
11
247.073005
21
91.127983
0
LINE
8
0
10
247.073005
20
91.127983
11
247.889309
21
91.292547
0
LINE
8
0
10
247.889309
20
91.292547
11
248.556308
21
91.741439
0
LINE
8
0
10
248.556308
20
91.741439
11
249.006655
21
92.407457
0
LINE
8
0
10
249.006655
20
92.407457
11
249.173000
21
93.223400
0
LINE
8
0
10
249.173000
20
93.223400
11
249.173000
21
93.223400
0
LINE
8
0
10
114.333000
20
93.222600
11
114.166655
21
94.038543
0
LINE
8
0
10
114.166655
20
94.038543
11
113.716308
21
94.704561
0
LINE
8
0
10
113.716308
20
94.704561
11
113.049309
21
95.153453
0
LINE
8
0
10
113.049309
20
95.153453
11
112.233005
21
95.318017
0
LINE
8
0
10
112.233005
20
95.318017
11
111.416701
21
95.153453
0
LINE
8
0
10
111.416701
20
95.153453
11
110.749702
21
94.704561
0
LINE
8
0
10
110.749702
20
94.704561
11
110.299355
21
94.038543
0
LINE
8
0
10
110.299355
20
94.038543
11
110.133010
21
93.222600
0
LINE
8
0
10
110.133010
20
93.222600
11
110.299355
21
92.406657
0
LINE
8
0
10
110.299355
20
92.406657
11
110.749702
21
91.740639
0
LINE
8
0
10
110.749702
20
91.740639
11
111.416701
21
91.291747
0
LINE
8
0
10
111.416701
20
91.291747
11
112.233005
21
91.127183
0
LINE
8
0
10
112.233005
20
91.127183
11
113.049309
21
91.291747
0
LINE
8
0
10
113.049309
20
91.291747
11
113.716308
21
91.740639
0
LINE
8
0
10
113.716308
20
91.740639
11
114.166655
21
92.406657
0
LINE
8
0
10
114.166655
20
92.406657
11
114.333000
21
93.222600
0
LINE
8
0
10
114.333000
20
93.222600
11
114.333000
21
93.222600
0
LINE
8
0
10
129.493000
20
93.223400
11
129.211653
21
94.273400
0
LINE
8
0
10
129.211653
20
94.273400
11
128.443000
21
95.042053
0
LINE
8
0
10
128.443000
20
95.042053
11
127.393000
21
95.323400
0
LINE
8
0
10
127.393000
20
95.323400
11
126.343000
21
95.042053
0
LINE
8
0
10
126.343000
20
95.042053
11
125.574347
21
94.273400
0
LINE
8
0
10
125.574347
20
94.273400
11
125.293000
21
93.223400
0
LINE
8
0
10
125.293000
20
93.223400
11
125.574347
21
92.173400
0
LINE
8
0
10
125.574347
20
92.173400
11
126.343000
21
91.404747
0
LINE
8
0
10
126.343000
20
91.404747
11
127.393000
21
91.123400
0
LINE
8
0
10
127.393000
20
91.123400
11
128.443000
21
91.404747
0
LINE
8
0
10
128.443000
20
91.404747
11
129.211653
21
92.173400
0
LINE
8
0
10
129.211653
20
92.173400
11
129.493000
21
93.223400
0
LINE
8
0
10
129.493000
20
93.223400
11
129.493000
21
93.223400
0
LINE
8
0
10
115.669000
20
67.450800
11
115.471101
21
68.422307
0
LINE
8
0
10
115.471101
20
68.422307
11
114.935003
21
69.215334
0
LINE
8
0
10
114.935003
20
69.215334
11
114.140906
21
69.749844
0
LINE
8
0
10
114.140906
20
69.749844
11
113.169005
21
69.945800
0
LINE
8
0
10
113.169005
20
69.945800
11
112.197104
21
69.749844
0
LINE
8
0
10
112.197104
20
69.749844
11
111.403007
21
69.215334
0
LINE
8
0
10
111.403007
20
69.215334
11
110.866909
21
68.422307
0
LINE
8
0
10
110.866909
20
68.422307
11
110.669010
21
67.450800
0
LINE
8
0
10
110.669010
20
67.450800
11
110.866909
21
66.479293
0
LINE
8
0
10
110.866909
20
66.479293
11
111.403007
21
65.686266
0
LINE
8
0
10
111.403007
20
65.686266
11
112.197104
21
65.151756
0
LINE
8
0
10
112.197104
20
65.151756
11
113.169005
21
64.955800
0
LINE
8
0
10
113.169005
20
64.955800
11
114.140906
21
65.151756
0
LINE
8
0
10
114.140906
20
65.151756
11
114.935003
21
65.686266
0
LINE
8
0
10
114.935003
20
65.686266
11
115.471101
21
66.479293
0
LINE
8
0
10
115.471101
20
66.479293
11
115.669000
21
67.450800
0
LINE
8
0
10
115.669000
20
67.450800
11
115.669000
21
67.450800
0
LINE
8
0
10
161.403000
20
116.452000
11
161.201157
21
117.442953
0
LINE
8
0
10
161.201157
20
117.442953
11
160.654341
21
118.251857
0
LINE
8
0
10
160.654341
20
118.251857
11
159.844356
21
118.797070
0
LINE
8
0
10
159.844356
20
118.797070
11
158.853005
21
118.996950
0
LINE
8
0
10
158.853005
20
118.996950
11
157.861654
21
118.797070
0
LINE
8
0
10
157.861654
20
118.797070
11
157.051669
21
118.251857
0
LINE
8
0
10
157.051669
20
118.251857
11
156.504853
21
117.442953
0
LINE
8
0
10
156.504853
20
117.442953
11
156.303010
21
116.452000
0
LINE
8
0
10
156.303010
20
116.452000
11
156.504853
21
115.461047
0
LINE
8
0
10
156.504853
20
115.461047
11
157.051669
21
114.652143
0
LINE
8
0
10
157.051669
20
114.652143
11
157.861654
21
114.106930
0
LINE
8
0
10
157.861654
20
114.106930
11
158.853005
21
113.907050
0
LINE
8
0
10
158.853005
20
113.907050
11
159.844356
21
114.106930
0
LINE
8
0
10
159.844356
20
114.106930
11
160.654341
21
114.652143
0
LINE
8
0
10
160.654341
20
114.652143
11
161.201157
21
115.461047
0
LINE
8
0
10
161.201157
20
115.461047
11
161.403000
21
116.452000
0
LINE
8
0
10
161.403000
20
116.452000
11
161.403000
21
116.452000
0
LINE
8
0
10
162.813000
20
93.223400
11
162.647972
21
94.040815
0
LINE
8
0
10
162.647972
20
94.040815
11
162.197924
21
94.708324
0
LINE
8
0
10
162.197924
20
94.708324
11
161.530415
21
95.158371
0
LINE
8
0
10
161.530415
20
95.158371
11
160.713000
21
95.323400
0
LINE
8
0
10
160.713000
20
95.323400
11
159.895585
21
95.158371
0
LINE
8
0
10
159.895585
20
95.158371
11
159.228076
21
94.708324
0
LINE
8
0
10
159.228076
20
94.708324
11
158.778028
21
94.040815
0
LINE
8
0
10
158.778028
20
94.040815
11
158.613000
21
93.223400
0
LINE
8
0
10
158.613000
20
93.223400
11
158.778028
21
92.405985
0
LINE
8
0
10
158.778028
20
92.405985
11
159.228076
21
91.738476
0
LINE
8
0
10
159.228076
20
91.738476
11
159.895585
21
91.288429
0
LINE
8
0
10
159.895585
20
91.288429
11
160.713000
21
91.123400
0
LINE
8
0
10
160.713000
20
91.123400
11
161.530415
21
91.288429
0
LINE
8
0
10
161.530415
20
91.288429
11
162.197924
21
91.738476
0
LINE
8
0
10
162.197924
20
91.738476
11
162.647972
21
92.405985
0
LINE
8
0
10
162.647972
20
92.405985
11
162.813000
21
93.223400
0
LINE
8
0
10
162.813000
20
93.223400
11
162.813000
21
93.223400
0
LINE
8
0
10
157.100000
20
95.328300
11
156.639530
21
96.585041
0
LINE
8
0
10
156.639530
20
96.585041
11
155.800416
21
97.579296
0
LINE
8
0
10
155.800416
20
97.579296
11
154.675594
21
98.233078
0
LINE
8
0
10
154.675594
20
98.233078
11
153.358000
21
98.468400
0
LINE
8
0
10
157.100000
20
95.329200
11
157.609587
21
92.437310
0
LINE
8
0
10
153.868000
20
87.978500
11
154.695176
21
88.069594
0
LINE
8
0
10
154.695176
20
88.069594
11
155.473945
21
88.334533
0
LINE
8
0
10
155.473945
20
88.334533
11
156.177482
21
88.760808
0
LINE
8
0
10
156.177482
20
88.760808
11
156.778961
21
89.335910
0
LINE
8
0
10
156.778961
20
89.335910
11
157.240879
21
90.028117
0
LINE
8
0
10
157.240879
20
90.028117
11
157.538508
21
90.794988
0
LINE
8
0
10
157.538508
20
90.794988
11
157.664189
21
91.607932
0
LINE
8
0
10
157.664189
20
91.607932
11
157.610260
21
92.438360
0
LINE
8
0
10
153.868000
20
87.979000
11
134.238000
21
87.979000
0
LINE
8
0
10
130.495000
20
92.438300
11
130.441071
21
91.607872
0
LINE
8
0
10
130.441071
20
91.607872
11
130.566752
21
90.794928
0
LINE
8
0
10
130.566752
20
90.794928
11
130.864381
21
90.028057
0
LINE
8
0
10
130.864381
20
90.028057
11
131.326299
21
89.335850
0
LINE
8
0
10
131.326299
20
89.335850
11
131.927778
21
88.760748
0
LINE
8
0
10
131.927778
20
88.760748
11
132.631315
21
88.334473
0
LINE
8
0
10
132.631315
20
88.334473
11
133.410084
21
88.069534
0
LINE
8
0
10
133.410084
20
88.069534
11
134.237260
21
87.978440
0
LINE
8
0
10
130.495000
20
92.437300
11
131.004587
21
95.329190
0
LINE
8
0
10
134.747000
20
98.468400
11
133.429320
21
98.233141
0
LINE
8
0
10
133.429320
20
98.233141
11
132.304415
21
97.579368
0
LINE
8
0
10
132.304415
20
97.579368
11
131.465237
21
96.585079
0
LINE
8
0
10
131.465237
20
96.585079
11
131.004740
21
95.328270
0
LINE
8
0
10
134.747000
20
98.469800
11
153.358000
21
98.469800
0
LINE
8
0
10
115.669000
20
184.451000
11
115.471101
21
185.422507
0
LINE
8
0
10
115.471101
20
185.422507
11
114.935003
21
186.215534
0
LINE
8
0
10
114.935003
20
186.215534
11
114.140906
21
186.750044
0
LINE
8
0
10
114.140906
20
186.750044
11
113.169005
21
186.946000
0
LINE
8
0
10
113.169005
20
186.946000
11
112.197104
21
186.750044
0
LINE
8
0
10
112.197104
20
186.750044
11
111.403007
21
186.215534
0
LINE
8
0
10
111.403007
20
186.215534
11
110.866909
21
185.422507
0
LINE
8
0
10
110.866909
20
185.422507
11
110.669010
21
184.451000
0
LINE
8
0
10
110.669010
20
184.451000
11
110.866909
21
183.479493
0
LINE
8
0
10
110.866909
20
183.479493
11
111.403007
21
182.686466
0
LINE
8
0
10
111.403007
20
182.686466
11
112.197104
21
182.151956
0
LINE
8
0
10
112.197104
20
182.151956
11
113.169005
21
181.956000
0
LINE
8
0
10
113.169005
20
181.956000
11
114.140906
21
182.151956
0
LINE
8
0
10
114.140906
20
182.151956
11
114.935003
21
182.686466
0
LINE
8
0
10
114.935003
20
182.686466
11
115.471101
21
183.479493
0
LINE
8
0
10
115.471101
20
183.479493
11
115.669000
21
184.451000
0
LINE
8
0
10
115.669000
20
184.451000
11
115.669000
21
184.451000
0
LINE
8
0
10
69.668900
20
125.951000
11
69.471001
21
126.922507
0
LINE
8
0
10
69.471001
20
126.922507
11
68.934903
21
127.715534
0
LINE
8
0
10
68.934903
20
127.715534
11
68.140806
21
128.250044
0
LINE
8
0
10
68.140806
20
128.250044
11
67.168905
21
128.446000
0
LINE
8
0
10
67.168905
20
128.446000
11
66.197004
21
128.250044
0
LINE
8
0
10
66.197004
20
128.250044
11
65.402907
21
127.715534
0
LINE
8
0
10
65.402907
20
127.715534
11
64.866809
21
126.922507
0
LINE
8
0
10
64.866809
20
126.922507
11
64.668910
21
125.951000
0
LINE
8
0
10
64.668910
20
125.951000
11
64.866809
21
124.979493
0
LINE
8
0
10
64.866809
20
124.979493
11
65.402907
21
124.186466
0
LINE
8
0
10
65.402907
20
124.186466
11
66.197004
21
123.651956
0
LINE
8
0
10
66.197004
20
123.651956
11
67.168905
21
123.456000
0
LINE
8
0
10
67.168905
20
123.456000
11
68.140806
21
123.651956
0
LINE
8
0
10
68.140806
20
123.651956
11
68.934903
21
124.186466
0
LINE
8
0
10
68.934903
20
124.186466
11
69.471001
21
124.979493
0
LINE
8
0
10
69.471001
20
124.979493
11
69.668900
21
125.951000
0
LINE
8
0
10
69.668900
20
125.951000
11
69.668900
21
125.951000
0
LINE
8
0
10
116.128000
20
118.401000
11
116.503668
21
119.426294
0
LINE
8
0
10
116.503668
20
119.426294
11
117.188261
21
120.237427
0
LINE
8
0
10
117.188261
20
120.237427
11
118.105949
21
120.770769
0
LINE
8
0
10
118.105949
20
120.770769
11
119.180900
21
120.962690
0
LINE
8
0
10
119.180900
20
120.962690
11
151.486000
21
120.962000
0
LINE
8
0
10
151.486000
20
120.962000
11
152.560951
21
120.770079
0
LINE
8
0
10
152.560951
20
120.770079
11
153.478639
21
120.236737
0
LINE
8
0
10
153.478639
20
120.236737
11
154.163232
21
119.425604
0
LINE
8
0
10
154.163232
20
119.425604
11
154.538900
21
118.400310
0
LINE
8
0
10
154.538900
20
118.400310
11
155.036141
21
115.580310
0
LINE
8
0
10
155.036141
20
115.580310
11
154.977604
21
114.239665
0
LINE
8
0
10
154.977604
20
114.239665
11
154.357972
21
113.049367
0
LINE
8
0
10
154.357972
20
113.049367
11
153.293354
21
112.232457
0
LINE
8
0
10
153.293354
20
112.232457
11
151.983241
21
111.942010
0
LINE
8
0
10
151.983241
20
111.942010
11
118.683000
21
111.942000
0
LINE
8
0
10
118.683000
20
111.942000
11
117.372887
21
112.232447
0
LINE
8
0
10
117.372887
20
112.232447
11
116.308269
21
113.049357
0
LINE
8
0
10
116.308269
20
113.049357
11
115.688637
21
114.239655
0
LINE
8
0
10
115.688637
20
114.239655
11
115.630100
21
115.580300
0
LINE
8
0
10
115.630100
20
115.580300
11
116.128000
21
118.401000
0
LINE
8
0
10
255.669000
20
184.451000
11
255.471101
21
185.422507
0
LINE
8
0
10
255.471101
20
185.422507
11
254.935003
21
186.215534
0
LINE
8
0
10
254.935003
20
186.215534
11
254.140906
21
186.750044
0
LINE
8
0
10
254.140906
20
186.750044
11
253.169005
21
186.946000
0
LINE
8
0
10
253.169005
20
186.946000
11
252.197104
21
186.750044
0
LINE
8
0
10
252.197104
20
186.750044
11
251.403007
21
186.215534
0
LINE
8
0
10
251.403007
20
186.215534
11
250.866909
21
185.422507
0
LINE
8
0
10
250.866909
20
185.422507
11
250.669010
21
184.451000
0
LINE
8
0
10
250.669010
20
184.451000
11
250.866909
21
183.479493
0
LINE
8
0
10
250.866909
20
183.479493
11
251.403007
21
182.686466
0
LINE
8
0
10
251.403007
20
182.686466
11
252.197104
21
182.151956
0
LINE
8
0
10
252.197104
20
182.151956
11
253.169005
21
181.956000
0
LINE
8
0
10
253.169005
20
181.956000
11
254.140906
21
182.151956
0
LINE
8
0
10
254.140906
20
182.151956
11
254.935003
21
182.686466
0
LINE
8
0
10
254.935003
20
182.686466
11
255.471101
21
183.479493
0
LINE
8
0
10
255.471101
20
183.479493
11
255.669000
21
184.451000
0
LINE
8
0
10
255.669000
20
184.451000
11
255.669000
21
184.451000
0
LINE
8
0
10
255.669000
20
67.450800
11
255.471101
21
68.422307
0
LINE
8
0
10
255.471101
20
68.422307
11
254.935003
21
69.215334
0
LINE
8
0
10
254.935003
20
69.215334
11
254.140906
21
69.749844
0
LINE
8
0
10
254.140906
20
69.749844
11
253.169005
21
69.945800
0
LINE
8
0
10
253.169005
20
69.945800
11
252.197104
21
69.749844
0
LINE
8
0
10
252.197104
20
69.749844
11
251.403007
21
69.215334
0
LINE
8
0
10
251.403007
20
69.215334
11
250.866909
21
68.422307
0
LINE
8
0
10
250.866909
20
68.422307
11
250.669010
21
67.450800
0
LINE
8
0
10
250.669010
20
67.450800
11
250.866909
21
66.479293
0
LINE
8
0
10
250.866909
20
66.479293
11
251.403007
21
65.686266
0
LINE
8
0
10
251.403007
20
65.686266
11
252.197104
21
65.151756
0
LINE
8
0
10
252.197104
20
65.151756
11
253.169005
21
64.955800
0
LINE
8
0
10
253.169005
20
64.955800
11
254.140906
21
65.151756
0
LINE
8
0
10
254.140906
20
65.151756
11
254.935003
21
65.686266
0
LINE
8
0
10
254.935003
20
65.686266
11
255.471101
21
66.479293
0
LINE
8
0
10
255.471101
20
66.479293
11
255.669000
21
67.450800
0
LINE
8
0
10
255.669000
20
67.450800
11
255.669000
21
67.450800
0
LINE
8
0
10
301.669000
20
125.951000
11
301.582458
21
126.603294
0
LINE
8
0
10
301.582458
20
126.603294
11
301.334059
21
127.201000
0
LINE
8
0
10
301.334059
20
127.201000
11
300.940629
21
127.714972
0
LINE
8
0
10
300.940629
20
127.714972
11
300.418995
21
128.116064
0
LINE
8
0
10
300.418995
20
128.116064
11
299.810822
21
128.367266
0
LINE
8
0
10
299.810822
20
128.367266
11
299.168995
21
128.451000
0
LINE
8
0
10
299.168995
20
128.451000
11
298.527168
21
128.367266
0
LINE
8
0
10
298.527168
20
128.367266
11
297.918995
21
128.116064
0
LINE
8
0
10
297.918995
20
128.116064
11
297.397361
21
127.714972
0
LINE
8
0
10
297.397361
20
127.714972
11
297.003931
21
127.201000
0
LINE
8
0
10
297.003931
20
127.201000
11
296.755534
21
126.603294
0
LINE
8
0
10
296.755534
20
126.603294
11
296.668995
21
125.951000
0
LINE
8
0
10
296.668995
20
125.951000
11
296.755535
21
125.298706
0
LINE
8
0
10
296.755535
20
125.298706
11
297.003934
21
124.701000
0
LINE
8
0
10
297.003934
20
124.701000
11
297.397364
21
124.187028
0
LINE
8
0
10
297.397364
20
124.187028
11
297.918997
21
123.785936
0
LINE
8
0
10
297.918997
20
123.785936
11
298.527170
21
123.534734
0
LINE
8
0
10
298.527170
20
123.534734
11
299.168997
21
123.451000
0
LINE
8
0
10
299.168997
20
123.451000
11
299.810825
21
123.534734
0
LINE
8
0
10
299.810825
20
123.534734
11
300.418997
21
123.785936
0
LINE
8
0
10
300.418997
20
123.785936
11
300.940631
21
124.187028
0
LINE
8
0
10
300.940631
20
124.187028
11
301.334061
21
124.701000
0
LINE
8
0
10
301.334061
20
124.701000
11
301.582459
21
125.298706
0
LINE
8
0
10
301.582459
20
125.298706
11
301.668997
21
125.951000
0
LINE
8
0
10
301.668997
20
125.951000
11
301.669000
21
125.951000
0
LINE
8
0
10
258.469000
20
165.951000
11
280.669000
21
165.951000
0
LINE
8
0
10
280.669000
20
165.951000
11
280.669000
21
135.551000
0
LINE
8
0
10
280.669000
20
135.551000
11
258.469000
21
135.551000
0
LINE
8
0
10
258.469000
20
135.551000
11
258.469000
21
165.951000
0
LINE
8
0
10
238.469000
20
165.761000
11
211.469000
21
165.761000
0
LINE
8
0
10
211.469000
20
165.761000
11
211.469000
21
134.261000
0
LINE
8
0
10
211.469000
20
134.261000
11
238.469000
21
134.261000
0
LINE
8
0
10
238.469000
20
134.261000
11
238.469000
21
165.761000
0
LINE
8
0
10
196.333000
20
92.440400
11
196.383239
21
91.666790
0
LINE
8
0
10
196.383239
20
91.666790
11
196.266156
21
90.909467
0
LINE
8
0
10
196.266156
20
90.909467
11
195.988890
21
90.195066
0
LINE
8
0
10
195.988890
20
90.195066
11
195.558576
21
89.550220
0
LINE
8
0
10
195.558576
20
89.550220
11
194.998249
21
89.014468
0
LINE
8
0
10
194.998249
20
89.014468
11
194.342848
21
88.617360
0
LINE
8
0
10
194.342848
20
88.617360
11
193.617361
21
88.370550
0
LINE
8
0
10
193.617361
20
88.370550
11
192.846780
21
88.285690
0
LINE
8
0
10
192.846780
20
88.285690
11
181.620000
21
88.285700
0
LINE
8
0
10
181.620000
20
88.285700
11
180.849419
21
88.370560
0
LINE
8
0
10
180.849419
20
88.370560
11
180.123932
21
88.617370
0
LINE
8
0
10
180.123932
20
88.617370
11
179.468531
21
89.014478
0
LINE
8
0
10
179.468531
20
89.014478
11
178.908204
21
89.550230
0
LINE
8
0
10
178.908204
20
89.550230
11
178.477890
21
90.195076
0
LINE
8
0
10
178.477890
20
90.195076
11
178.200624
21
90.909477
0
LINE
8
0
10
178.200624
20
90.909477
11
178.083541
21
91.666800
0
LINE
8
0
10
178.083541
20
91.666800
11
178.133780
21
92.440410
0
LINE
8
0
10
178.133780
20
92.440410
11
178.626439
21
95.234410
0
LINE
8
0
10
178.626439
20
95.234410
11
179.055428
21
96.405227
0
LINE
8
0
10
179.055428
20
96.405227
11
179.837188
21
97.331486
0
LINE
8
0
10
179.837188
20
97.331486
11
180.885126
21
97.940527
0
LINE
8
0
10
180.885126
20
97.940527
11
182.112649
21
98.159690
0
LINE
8
0
10
182.112649
20
98.159690
11
192.354000
21
98.159600
0
LINE
8
0
10
192.354000
20
98.159600
11
193.581526
21
97.940440
0
LINE
8
0
10
193.581526
20
97.940440
11
194.629467
21
97.331400
0
LINE
8
0
10
194.629467
20
97.331400
11
195.411230
21
96.405139
0
LINE
8
0
10
195.411230
20
96.405139
11
195.840220
21
95.234320
0
LINE
8
0
10
195.840220
20
95.234320
11
196.333000
21
92.440400
0
LINE
8
0
10
108.836000
20
92.440400
11
108.886239
21
91.666790
0
LINE
8
0
10
108.886239
20
91.666790
11
108.769156
21
90.909467
0
LINE
8
0
10
108.769156
20
90.909467
11
108.491890
21
90.195066
0
LINE
8
0
10
108.491890
20
90.195066
11
108.061576
21
89.550220
0
LINE
8
0
10
108.061576
20
89.550220
11
107.501249
21
89.014468
0
LINE
8
0
10
107.501249
20
89.014468
11
106.845848
21
88.617360
0
LINE
8
0
10
106.845848
20
88.617360
11
106.120361
21
88.370550
0
LINE
8
0
10
106.120361
20
88.370550
11
105.349780
21
88.285690
0
LINE
8
0
10
105.349780
20
88.285690
11
94.122700
21
88.285700
0
LINE
8
0
10
94.122700
20
88.285700
11
93.352120
21
88.370562
0
LINE
8
0
10
93.352120
20
88.370562
11
92.626636
21
88.617373
0
LINE
8
0
10
92.626636
20
88.617373
11
91.971236
21
89.014482
0
LINE
8
0
10
91.971236
20
89.014482
11
91.410911
21
89.550234
0
LINE
8
0
10
91.410911
20
89.550234
11
90.980598
21
90.195079
0
LINE
8
0
10
90.980598
20
90.195079
11
90.703333
21
90.909480
0
LINE
8
0
10
90.703333
20
90.909480
11
90.586251
21
91.666801
0
LINE
8
0
10
90.586251
20
91.666801
11
90.636490
21
92.440410
0
LINE
8
0
10
90.636490
20
92.440410
11
91.129149
21
95.234410
0
LINE
8
0
10
91.129149
20
95.234410
11
91.558138
21
96.405227
0
LINE
8
0
10
91.558138
20
96.405227
11
92.339898
21
97.331486
0
LINE
8
0
10
92.339898
20
97.331486
11
93.387836
21
97.940527
0
LINE
8
0
10
93.387836
20
97.940527
11
94.615359
21
98.159690
0
LINE
8
0
10
94.615359
20
98.159690
11
104.857000
21
98.159600
0
LINE
8
0
10
104.857000
20
98.159600
11
106.084523
21
97.940437
0
LINE
8
0
10
106.084523
20
97.940437
11
107.132461
21
97.331396
0
LINE
8
0
10
107.132461
20
97.331396
11
107.914221
21
96.405137
0
LINE
8
0
10
107.914221
20
96.405137
11
108.343210
21
95.234320
0
LINE
8
0
10
108.343210
20
95.234320
11
108.836000
21
92.440400
0
LINE
8
0
10
287.044000
20
92.775800
11
286.809540
21
93.650800
0
LINE
8
0
10
286.809540
20
93.650800
11
286.168995
21
94.291344
0
LINE
8
0
10
286.168995
20
94.291344
11
285.293995
21
94.525800
0
LINE
8
0
10
285.293995
20
94.525800
11
284.418995
21
94.291344
0
LINE
8
0
10
284.418995
20
94.291344
11
283.778451
21
93.650800
0
LINE
8
0
10
283.778451
20
93.650800
11
283.543995
21
92.775800
0
LINE
8
0
10
283.543995
20
92.775800
11
283.778453
21
91.900800
0
LINE
8
0
10
283.778453
20
91.900800
11
284.418997
21
91.260256
0
LINE
8
0
10
284.418997
20
91.260256
11
285.293998
21
91.025800
0
LINE
8
0
10
285.293998
20
91.025800
11
286.168997
21
91.260256
0
LINE
8
0
10
286.168997
20
91.260256
11
286.809542
21
91.900800
0
LINE
8
0
10
286.809542
20
91.900800
11
287.043997
21
92.775800
0
LINE
8
0
10
287.043997
20
92.775800
11
287.044000
21
92.775800
0
LINE
8
0
10
262.044000
20
92.775800
11
261.905274
21
93.455635
0
LINE
8
0
10
261.905274
20
93.455635
11
261.529962
21
94.010532
0
LINE
8
0
10
261.529962
20
94.010532
11
260.974170
21
94.384517
0
LINE
8
0
10
260.974170
20
94.384517
11
260.294005
21
94.521617
0
LINE
8
0
10
260.294005
20
94.521617
11
259.613840
21
94.384517
0
LINE
8
0
10
259.613840
20
94.384517
11
259.058048
21
94.010532
0
LINE
8
0
10
259.058048
20
94.010532
11
258.682736
21
93.455635
0
LINE
8
0
10
258.682736
20
93.455635
11
258.544010
21
92.775800
0
LINE
8
0
10
258.544010
20
92.775800
11
258.682736
21
92.095965
0
LINE
8
0
10
258.682736
20
92.095965
11
259.058048
21
91.541068
0
LINE
8
0
10
259.058048
20
91.541068
11
259.613840
21
91.167083
0
LINE
8
0
10
259.613840
20
91.167083
11
260.294005
21
91.029983
0
LINE
8
0
10
260.294005
20
91.029983
11
260.974170
21
91.167083
0
LINE
8
0
10
260.974170
20
91.167083
11
261.529962
21
91.541068
0
LINE
8
0
10
261.529962
20
91.541068
11
261.905274
21
92.095965
0
LINE
8
0
10
261.905274
20
92.095965
11
262.044000
21
92.775800
0
LINE
8
0
10
262.044000
20
92.775800
11
262.044000
21
92.775800
0
LINE
8
0
10
280.669000
20
112.851000
11
280.669000
21
124.451000
0
LINE
8
0
10
280.669000
20
124.451000
11
269.169000
21
124.451000
0
LINE
8
0
10
269.169000
20
124.451000
11
269.169000
21
112.851000
0
LINE
8
0
10
269.169000
20
112.851000
11
280.669000
21
112.851000
0
LINE
8
0
10
305.669000
20
85.950800
11
305.546667
21
83.479857
0
LINE
8
0
10
305.546667
20
83.479857
11
305.184193
21
81.050767
0
LINE
8
0
10
305.184193
20
81.050767
11
304.588371
21
78.679921
0
LINE
8
0
10
304.588371
20
78.679921
11
303.765988
21
76.383714
0
LINE
8
0
10
303.765988
20
76.383714
11
302.723837
21
74.178539
0
LINE
8
0
10
302.723837
20
74.178539
11
301.468706
21
72.080787
0
LINE
8
0
10
301.468706
20
72.080787
11
300.007387
21
70.106854
0
LINE
8
0
10
300.007387
20
70.106854
11
298.346670
21
68.273130
0
LINE
8
0
10
298.346670
20
68.273130
11
296.512946
21
66.612413
0
LINE
8
0
10
296.512946
20
66.612413
11
294.539013
21
65.151094
0
LINE
8
0
10
294.539013
20
65.151094
11
292.441261
21
63.895963
0
LINE
8
0
10
292.441261
20
63.895963
11
290.236086
21
62.853812
0
LINE
8
0
10
290.236086
20
62.853812
11
287.939879
21
62.031429
0
LINE
8
0
10
287.939879
20
62.031429
11
285.569033
21
61.435607
0
LINE
8
0
10
285.569033
20
61.435607
11
283.139943
21
61.073133
0
LINE
8
0
10
283.139943
20
61.073133
11
280.669000
21
60.950800
0
LINE
8
0
10
280.669000
20
60.950800
11
85.668900
21
60.950800
0
LINE
8
0
10
85.668900
20
60.950800
11
83.197957
21
61.073133
0
LINE
8
0
10
83.197957
20
61.073133
11
80.768867
21
61.435607
0
LINE
8
0
10
80.768867
20
61.435607
11
78.398021
21
62.031429
0
LINE
8
0
10
78.398021
20
62.031429
11
76.101814
21
62.853812
0
LINE
8
0
10
76.101814
20
62.853812
11
73.896639
21
63.895963
0
LINE
8
0
10
73.896639
20
63.895963
11
71.798887
21
65.151094
0
LINE
8
0
10
71.798887
20
65.151094
11
69.824954
21
66.612413
0
LINE
8
0
10
69.824954
20
66.612413
11
67.991230
21
68.273130
0
LINE
8
0
10
67.991230
20
68.273130
11
66.330513
21
70.106854
0
LINE
8
0
10
66.330513
20
70.106854
11
64.869194
21
72.080787
0
LINE
8
0
10
64.869194
20
72.080787
11
63.614063
21
74.178539
0
LINE
8
0
10
63.614063
20
74.178539
11
62.571912
21
76.383714
0
LINE
8
0
10
62.571912
20
76.383714
11
61.749529
21
78.679921
0
LINE
8
0
10
61.749529
20
78.679921
11
61.153707
21
81.050767
0
LINE
8
0
10
61.153707
20
81.050767
11
60.791233
21
83.479857
0
LINE
8
0
10
60.791233
20
83.479857
11
60.668900
21
85.950800
0
LINE
8
0
10
60.668900
20
85.950800
11
60.668900
21
165.951000
0
LINE
8
0
10
60.668900
20
165.951000
11
60.791233
21
168.421943
0
LINE
8
0
10
60.791233
20
168.421943
11
61.153707
21
170.851033
0
LINE
8
0
10
61.153707
20
170.851033
11
61.749529
21
173.221879
0
LINE
8
0
10
61.749529
20
173.221879
11
62.571912
21
175.518086
0
LINE
8
0
10
62.571912
20
175.518086
11
63.614063
21
177.723261
0
LINE
8
0
10
63.614063
20
177.723261
11
64.869194
21
179.821013
0
LINE
8
0
10
64.869194
20
179.821013
11
66.330513
21
181.794946
0
LINE
8
0
10
66.330513
20
181.794946
11
67.991230
21
183.628670
0
LINE
8
0
10
67.991230
20
183.628670
11
69.824954
21
185.289387
0
LINE
8
0
10
69.824954
20
185.289387
11
71.798887
21
186.750706
0
LINE
8
0
10
71.798887
20
186.750706
11
73.896639
21
188.005837
0
LINE
8
0
10
73.896639
20
188.005837
11
76.101814
21
189.047988
0
LINE
8
0
10
76.101814
20
189.047988
11
78.398021
21
189.870371
0
LINE
8
0
10
78.398021
20
189.870371
11
80.768867
21
190.466193
0
LINE
8
0
10
80.768867
20
190.466193
11
83.197957
21
190.828667
0
LINE
8
0
10
83.197957
20
190.828667
11
85.668900
21
190.951000
0
LINE
8
0
10
85.668900
20
190.951000
11
280.669000
21
190.951000
0
LINE
8
0
10
280.669000
20
190.951000
11
283.139943
21
190.828667
0
LINE
8
0
10
283.139943
20
190.828667
11
285.569033
21
190.466193
0
LINE
8
0
10
285.569033
20
190.466193
11
287.939879
21
189.870371
0
LINE
8
0
10
287.939879
20
189.870371
11
290.236086
21
189.047988
0
LINE
8
0
10
290.236086
20
189.047988
11
292.441261
21
188.005837
0
LINE
8
0
10
292.441261
20
188.005837
11
294.539013
21
186.750706
0
LINE
8
0
10
294.539013
20
186.750706
11
296.512946
21
185.289387
0
LINE
8
0
10
296.512946
20
185.289387
11
298.346670
21
183.628670
0
LINE
8
0
10
298.346670
20
183.628670
11
300.007387
21
181.794946
0
LINE
8
0
10
300.007387
20
181.794946
11
301.468706
21
179.821013
0
LINE
8
0
10
301.468706
20
179.821013
11
302.723837
21
177.723261
0
LINE
8
0
10
302.723837
20
177.723261
11
303.765988
21
175.518086
0
LINE
8
0
10
303.765988
20
175.518086
11
304.588371
21
173.221879
0
LINE
8
0
10
304.588371
20
173.221879
11
305.184193
21
170.851033
0
LINE
8
0
10
305.184193
20
170.851033
11
305.546667
21
168.421943
0
LINE
8
0
10
305.546667
20
168.421943
11
305.669000
21
165.951000
0
LINE
8
0
10
305.669000
20
165.951000
11
305.669000
21
85.950800
0
LINE
8
0
10
173.844000
20
80.433100
11
246.045000
21
80.433100
0
LINE
8
0
10
246.045000
20
80.433100
11
247.025007
21
80.530060
0
LINE
8
0
10
247.025007
20
80.530060
11
247.958419
21
80.813700
0
LINE
8
0
10
247.958419
20
80.813700
11
248.819005
21
81.273156
0
LINE
8
0
10
248.819005
20
81.273156
11
249.580537
21
81.897563
0
LINE
8
0
10
249.580537
20
81.897563
11
250.204944
21
82.659095
0
LINE
8
0
10
250.204944
20
82.659095
11
250.664400
21
83.519681
0
LINE
8
0
10
250.664400
20
83.519681
11
250.948040
21
84.453093
0
LINE
8
0
10
250.948040
20
84.453093
11
251.045000
21
85.433100
0
LINE
8
0
10
251.045000
20
85.433100
11
251.045000
21
119.109000
0
LINE
8
0
10
251.045000
20
119.109000
11
250.948040
21
120.089007
0
LINE
8
0
10
250.948040
20
120.089007
11
250.664400
21
121.022419
0
LINE
8
0
10
250.664400
20
121.022419
11
250.204944
21
121.883005
0
LINE
8
0
10
250.204944
20
121.883005
11
249.580537
21
122.644537
0
LINE
8
0
10
249.580537
20
122.644537
11
248.819005
21
123.268944
0
LINE
8
0
10
248.819005
20
123.268944
11
247.958419
21
123.728400
0
LINE
8
0
10
247.958419
20
123.728400
11
247.025007
21
124.012040
0
LINE
8
0
10
247.025007
20
124.012040
11
246.045000
21
124.109000
0
LINE
8
0
10
246.045000
20
124.109000
11
173.844000
21
124.109000
0
LINE
8
0
10
173.844000
20
124.109000
11
172.863995
21
124.012039
0
LINE
8
0
10
172.863995
20
124.012039
11
171.930587
21
123.728398
0
LINE
8
0
10
171.930587
20
123.728398
11
171.070003
21
123.268943
0
LINE
8
0
10
171.070003
20
123.268943
11
170.308473
21
122.644537
0
LINE
8
0
10
170.308473
20
122.644537
11
169.684067
21
121.883007
0
LINE
8
0
10
169.684067
20
121.883007
11
169.224612
21
121.022423
0
LINE
8
0
10
169.224612
20
121.022423
11
168.940971
21
120.089015
0
LINE
8
0
10
168.940971
20
120.089015
11
168.844010
21
119.109010
0
LINE
8
0
10
168.844010
20
119.109010
11
168.844000
21
85.433100
0
LINE
8
0
10
168.844000
20
85.433100
11
168.945582
21
84.425428
0
LINE
8
0
10
168.945582
20
84.425428
11
169.236924
21
83.486878
0
LINE
8
0
10
169.236924
20
83.486878
11
169.697920
21
82.637558
0
LINE
8
0
10
169.697920
20
82.637558
11
170.308463
21
81.897573
0
LINE
8
0
10
170.308463
20
81.897573
11
171.048448
21
81.287030
0
LINE
8
0
10
171.048448
20
81.287030
11
171.897768
21
80.826034
0
LINE
8
0
10
171.897768
20
80.826034
11
172.836318
21
80.534692
0
LINE
8
0
10
172.836318
20
80.534692
11
173.843990
21
80.433110
0
LINE
8
0
10
173.843990
20
80.433110
11
173.844000
21
80.433100
0
LINE
8
0
10
86.347500
20
80.433100
11
158.549000
21
80.433100
0
LINE
8
0
10
158.549000
20
80.433100
11
159.529007
21
80.530060
0
LINE
8
0
10
159.529007
20
80.530060
11
160.462419
21
80.813700
0
LINE
8
0
10
160.462419
20
80.813700
11
161.323005
21
81.273156
0
LINE
8
0
10
161.323005
20
81.273156
11
162.084537
21
81.897563
0
LINE
8
0
10
162.084537
20
81.897563
11
162.708944
21
82.659095
0
LINE
8
0
10
162.708944
20
82.659095
11
163.168400
21
83.519681
0
LINE
8
0
10
163.168400
20
83.519681
11
163.452040
21
84.453093
0
LINE
8
0
10
163.452040
20
84.453093
11
163.549000
21
85.433100
0
LINE
8
0
10
163.549000
20
85.433100
11
163.549000
21
119.109000
0
LINE
8
0
10
163.549000
20
119.109000
11
163.452040
21
120.089007
0
LINE
8
0
10
163.452040
20
120.089007
11
163.168400
21
121.022419
0
LINE
8
0
10
163.168400
20
121.022419
11
162.708944
21
121.883005
0
LINE
8
0
10
162.708944
20
121.883005
11
162.084537
21
122.644537
0
LINE
8
0
10
162.084537
20
122.644537
11
161.323005
21
123.268944
0
LINE
8
0
10
161.323005
20
123.268944
11
160.462419
21
123.728400
0
LINE
8
0
10
160.462419
20
123.728400
11
159.529007
21
124.012040
0
LINE
8
0
10
159.529007
20
124.012040
11
158.549000
21
124.109000
0
LINE
8
0
10
158.549000
20
124.109000
11
86.347500
21
124.109000
0
LINE
8
0
10
86.347500
20
124.109000
11
85.367495
21
124.012039
0
LINE
8
0
10
85.367495
20
124.012039
11
84.434087
21
123.728398
0
LINE
8
0
10
84.434087
20
123.728398
11
83.573503
21
123.268943
0
LINE
8
0
10
83.573503
20
123.268943
11
82.811973
21
122.644537
0
LINE
8
0
10
82.811973
20
122.644537
11
82.187567
21
121.883007
0
LINE
8
0
10
82.187567
20
121.883007
11
81.728112
21
121.022423
0
LINE
8
0
10
81.728112
20
121.022423
11
81.444471
21
120.089015
0
LINE
8
0
10
81.444471
20
120.089015
11
81.347510
21
119.109010
0
LINE
8
0
10
81.347510
20
119.109010
11
81.347500
21
85.433100
0
LINE
8
0
10
81.347500
20
85.433100
11
81.444461
21
84.453095
0
LINE
8
0
10
81.444461
20
84.453095
11
81.728102
21
83.519687
0
LINE
8
0
10
81.728102
20
83.519687
11
82.187557
21
82.659103
0
LINE
8
0
10
82.187557
20
82.659103
11
82.811963
21
81.897573
0
LINE
8
0
10
82.811963
20
81.897573
11
83.573493
21
81.273167
0
LINE
8
0
10
83.573493
20
81.273167
11
84.434077
21
80.813712
0
LINE
8
0
10
84.434077
20
80.813712
11
85.367485
21
80.530071
0
LINE
8
0
10
85.367485
20
80.530071
11
86.347490
21
80.433110
0
LINE
8
0
10
86.347490
20
80.433110
11
86.347500
21
80.433100
0
LINE
8
0
10
238.554000
20
86.238100
11
238.554000
21
83.237700
0
LINE
8
0
10
238.554000
20
83.237700
11
236.385000
21
83.237700
0
LINE
8
0
10
236.385000
20
83.237700
11
236.385000
21
83.592300
0
LINE
8
0
10
236.385000
20
83.592300
11
238.157000
21
83.592300
0
LINE
8
0
10
238.157000
20
83.592300
11
238.157000
21
84.510400
0
LINE
8
0
10
238.157000
20
84.510400
11
236.497000
21
84.510400
0
LINE
8
0
10
236.497000
20
84.510400
11
236.497000
21
84.862300
0
LINE
8
0
10
236.497000
20
84.862300
11
238.157000
21
84.862300
0
LINE
8
0
10
238.157000
20
84.862300
11
238.157000
21
85.883500
0
LINE
8
0
10
238.157000
20
85.883500
11
236.315000
21
85.883500
0
LINE
8
0
10
236.315000
20
85.883500
11
236.315000
21
86.238100
0
LINE
8
0
10
236.315000
20
86.238100
11
238.554000
21
86.238100
0
LINE
8
0
10
235.771000
20
86.238100
11
235.771000
21
83.237700
0
LINE
8
0
10
235.771000
20
83.237700
11
235.364000
21
83.237700
0
LINE
8
0
10
235.364000
20
83.237700
11
233.788140
21
85.595130
0
LINE
8
0
10
233.788000
20
85.595100
11
233.788000
21
83.237700
0
LINE
8
0
10
233.788000
20
83.237700
11
233.407000
21
83.237700
0
LINE
8
0
10
233.407000
20
83.237700
11
233.407000
21
86.238100
0
LINE
8
0
10
233.407000
20
86.238100
11
233.814000
21
86.238100
0
LINE
8
0
10
233.814000
20
86.238100
11
235.389590
21
83.880670
0
LINE
8
0
10
235.390000
20
83.880700
11
235.390000
21
86.238100
0
LINE
8
0
10
235.390000
20
86.238100
11
235.771000
21
86.238100
0
LINE
8
0
10
230.599000
20
85.187700
11
230.202126
21
85.288242
0
LINE
8
0
10
230.202000
20
85.287100
11
230.651180
21
86.033007
0
LINE
8
0
10
230.652000
20
86.033000
11
231.444974
21
86.289820
0
LINE
8
0
10
231.445000
20
86.289800
11
232.233881
21
86.092323
0
LINE
8
0
10
232.234000
20
86.092400
11
232.696483
21
85.520438
0
LINE
8
0
10
232.696000
20
85.520400
11
232.854594
21
84.716171
0
LINE
8
0
10
232.855000
20
84.716200
11
232.675941
21
83.898670
0
LINE
8
0
10
232.676000
20
83.898600
11
232.166453
21
83.368587
0
LINE
8
0
10
232.166000
20
83.368600
11
231.438511
21
83.187496
0
LINE
8
0
10
231.438000
20
83.187500
11
230.680838
21
83.416695
0
LINE
8
0
10
230.681000
20
83.416700
11
230.253307
21
84.061309
0
LINE
8
0
10
230.254000
20
84.060600
11
230.644789
21
84.153204
0
LINE
8
0
10
230.644000
20
84.153400
11
230.946866
21
83.676592
0
LINE
8
0
10
230.947000
20
83.676600
11
231.446318
21
83.527214
0
LINE
8
0
10
231.447000
20
83.527200
11
232.025101
21
83.692959
0
LINE
8
0
10
232.025000
20
83.693000
11
232.351398
21
84.138087
0
LINE
8
0
10
232.351000
20
84.138100
11
232.445136
21
84.714158
0
LINE
8
0
10
232.445000
20
84.714100
11
232.333470
21
85.382244
0
LINE
8
0
10
232.334000
20
85.382300
11
231.987140
21
85.808969
0
LINE
8
0
10
231.987000
20
85.808900
11
231.477450
21
85.950103
0
LINE
8
0
10
231.477000
20
85.950100
11
230.912200
21
85.757740
0
LINE
8
0
10
230.913000
20
85.757800
11
230.599903
21
85.186859
0
LINE
8
0
10
230.037000
20
86.291000
11
229.167316
21
83.187440
0
LINE
8
0
10
229.167000
20
83.187400
11
228.872000
21
83.187400
0
LINE
8
0
10
228.872000
20
83.187400
11
229.739832
21
86.290960
0
LINE
8
0
10
229.740000
20
86.291000
11
230.037000
21
86.291000
0
LINE
8
0
10
228.565000
20
86.238100
11
228.565000
21
83.237700
0
LINE
8
0
10
228.565000
20
83.237700
11
228.168000
21
83.237700
0
LINE
8
0
10
228.168000
20
83.237700
11
228.168000
21
85.883500
0
LINE
8
0
10
228.168000
20
85.883500
11
226.691000
21
85.883500
0
LINE
8
0
10
226.691000
20
85.883500
11
226.691000
21
86.238100
0
LINE
8
0
10
226.691000
20
86.238100
11
228.565000
21
86.238100
0
LINE
8
0
10
226.151000
20
86.238100
11
226.151000
21
83.237700
0
LINE
8
0
10
226.151000
20
83.237700
11
225.754000
21
83.237700
0
LINE
8
0
10
225.754000
20
83.237700
11
225.754000
21
86.238100
0
LINE
8
0
10
225.754000
20
86.238100
11
226.151000
21
86.238100
0
LINE
8
0
10
225.066000
20
86.238100
11
225.066000
21
83.237700
0
LINE
8
0
10
225.066000
20
83.237700
11
224.469000
21
83.237700
0
LINE
8
0
10
224.469000
20
83.237700
11
223.758859
21
85.362300
0
LINE
8
0
10
223.758000
20
85.362800
11
223.614755
21
85.806866
0
LINE
8
0
10
223.615000
20
85.806900
11
223.455382
21
85.325999
0
LINE
8
0
10
223.455000
20
85.325300
11
222.736922
21
83.237740
0
LINE
8
0
10
222.737000
20
83.237700
11
222.203000
21
83.237700
0
LINE
8
0
10
222.203000
20
83.237700
11
222.203000
21
86.238100
0
LINE
8
0
10
222.203000
20
86.238100
11
222.586000
21
86.238100
0
LINE
8
0
10
222.586000
20
86.238100
11
222.586000
21
83.727200
0
LINE
8
0
10
222.586000
20
83.727200
11
223.457801
21
86.238090
0
LINE
8
0
10
223.458000
20
86.238100
11
223.816000
21
86.238100
0
LINE
8
0
10
223.816000
20
86.238100
11
224.683568
21
83.684870
0
LINE
8
0
10
224.683000
20
83.684900
11
224.683000
21
86.238100
0
LINE
8
0
10
224.683000
20
86.238100
11
225.066000
21
86.238100
0
LINE
8
0
10
152.193000
20
86.238100
11
152.193000
21
83.237700
0
LINE
8
0
10
152.193000
20
83.237700
11
150.024000
21
83.237700
0
LINE
8
0
10
150.024000
20
83.237700
11
150.024000
21
83.592300
0
LINE
8
0
10
150.024000
20
83.592300
11
151.796000
21
83.592300
0
LINE
8
0
10
151.796000
20
83.592300
11
151.796000
21
84.510400
0
LINE
8
0
10
151.796000
20
84.510400
11
150.136000
21
84.510400
0
LINE
8
0
10
150.136000
20
84.510400
11
150.136000
21
84.862300
0
LINE
8
0
10
150.136000
20
84.862300
11
151.796000
21
84.862300
0
LINE
8
0
10
151.796000
20
84.862300
11
151.796000
21
85.883500
0
LINE
8
0
10
151.796000
20
85.883500
11
149.954000
21
85.883500
0
LINE
8
0
10
149.954000
20
85.883500
11
149.954000
21
86.238100
0
LINE
8
0
10
149.954000
20
86.238100
11
152.193000
21
86.238100
0
LINE
8
0
10
149.410000
20
86.238100
11
149.410000
21
83.237700
0
LINE
8
0
10
149.410000
20
83.237700
11
149.003000
21
83.237700
0
LINE
8
0
10
149.003000
20
83.237700
11
147.427140
21
85.595130
0
LINE
8
0
10
147.427000
20
85.595100
11
147.427000
21
83.237700
0
LINE
8
0
10
147.427000
20
83.237700
11
147.046000
21
83.237700
0
LINE
8
0
10
147.046000
20
83.237700
11
147.046000
21
86.238100
0
LINE
8
0
10
147.046000
20
86.238100
11
147.453000
21
86.238100
0
LINE
8
0
10
147.453000
20
86.238100
11
149.028590
21
83.880670
0
LINE
8
0
10
149.029000
20
83.880700
11
149.029000
21
86.238100
0
LINE
8
0
10
149.029000
20
86.238100
11
149.410000
21
86.238100
0
LINE
8
0
10
144.239000
20
85.187700
11
143.842125
21
85.288242
0
LINE
8
0
10
143.842000
20
85.287100
11
144.291180
21
86.033007
0
LINE
8
0
10
144.291000
20
86.033000
11
145.083974
21
86.289820
0
LINE
8
0
10
145.084000
20
86.289800
11
145.872881
21
86.092323
0
LINE
8
0
10
145.873000
20
86.092400
11
146.335483
21
85.520438
0
LINE
8
0
10
146.335000
20
85.520400
11
146.493594
21
84.716171
0
LINE
8
0
10
146.494000
20
84.716200
11
146.314941
21
83.898670
0
LINE
8
0
10
146.315000
20
83.898600
11
145.805453
21
83.368587
0
LINE
8
0
10
145.805000
20
83.368600
11
145.077511
21
83.187496
0
LINE
8
0
10
145.078000
20
83.187500
11
144.320838
21
83.416695
0
LINE
8
0
10
144.320000
20
83.416700
11
143.892307
21
84.061309
0
LINE
8
0
10
143.893000
20
84.060600
11
144.283789
21
84.153204
0
LINE
8
0
10
144.284000
20
84.153400
11
144.586866
21
83.676592
0
LINE
8
0
10
144.586000
20
83.676600
11
145.085318
21
83.527214
0
LINE
8
0
10
145.086000
20
83.527200
11
145.664101
21
83.692959
0
LINE
8
0
10
145.664000
20
83.693000
11
145.990400
21
84.138087
0
LINE
8
0
10
145.990000
20
84.138100
11
146.084133
21
84.714158
0
LINE
8
0
10
146.084000
20
84.714100
11
145.972470
21
85.382244
0
LINE
8
0
10
145.973000
20
85.382300
11
145.626140
21
85.808969
0
LINE
8
0
10
145.626000
20
85.808900
11
145.116450
21
85.950103
0
LINE
8
0
10
145.116000
20
85.950100
11
144.551200
21
85.757740
0
LINE
8
0
10
144.552000
20
85.757800
11
144.238903
21
85.186859
0
LINE
8
0
10
143.676000
20
86.291000
11
142.806316
21
83.187440
0
LINE
8
0
10
142.806000
20
83.187400
11
142.511000
21
83.187400
0
LINE
8
0
10
142.511000
20
83.187400
11
143.378832
21
86.290960
0
LINE
8
0
10
143.379000
20
86.291000
11
143.676000
21
86.291000
0
LINE
8
0
10
142.204000
20
86.238100
11
142.204000
21
83.237700
0
LINE
8
0
10
142.204000
20
83.237700
11
141.808000
21
83.237700
0
LINE
8
0
10
141.808000
20
83.237700
11
141.808000
21
85.883500
0
LINE
8
0
10
141.808000
20
85.883500
11
140.330000
21
85.883500
0
LINE
8
0
10
140.330000
20
85.883500
11
140.330000
21
86.238100
0
LINE
8
0
10
140.330000
20
86.238100
11
142.204000
21
86.238100
0
LINE
8
0
10
139.790000
20
86.238100
11
139.790000
21
83.237700
0
LINE
8
0
10
139.790000
20
83.237700
11
139.393000
21
83.237700
0
LINE
8
0
10
139.393000
20
83.237700
11
139.393000
21
86.238100
0
LINE
8
0
10
139.393000
20
86.238100
11
139.790000
21
86.238100
0
LINE
8
0
10
138.705000
20
86.238100
11
138.705000
21
83.237700
0
LINE
8
0
10
138.705000
20
83.237700
11
138.108000
21
83.237700
0
LINE
8
0
10
138.108000
20
83.237700
11
137.397859
21
85.362300
0
LINE
8
0
10
137.398000
20
85.362800
11
137.254755
21
85.806866
0
LINE
8
0
10
137.254000
20
85.806900
11
137.094382
21
85.325999
0
LINE
8
0
10
137.095000
20
85.325300
11
136.376657
21
83.237740
0
LINE
8
0
10
136.376000
20
83.237700
11
135.842000
21
83.237700
0
LINE
8
0
10
135.842000
20
83.237700
11
135.842000
21
86.238100
0
LINE
8
0
10
135.842000
20
86.238100
11
136.225000
21
86.238100
0
LINE
8
0
10
136.225000
20
86.238100
11
136.225000
21
83.727200
0
LINE
8
0
10
136.225000
20
83.727200
11
137.096801
21
86.238090
0
LINE
8
0
10
137.097000
20
86.238100
11
137.455000
21
86.238100
0
LINE
8
0
10
137.455000
20
86.238100
11
138.322568
21
83.684870
0
LINE
8
0
10
138.322000
20
83.684900
11
138.322000
21
86.238100
0
LINE
8
0
10
138.322000
20
86.238100
11
138.705000
21
86.238100
0
LINE
8
0
10
188.174000
20
86.661400
11
188.174000
21
83.661000
0
LINE
8
0
10
188.174000
20
83.661000
11
187.777000
21
83.661000
0
LINE
8
0
10
187.777000
20
83.661000
11
187.777000
21
86.661400
0
LINE
8
0
10
187.777000
20
86.661400
11
188.174000
21
86.661400
0
LINE
8
0
10
187.198000
20
85.200000
11
187.097728
21
84.534157
0
LINE
8
0
10
187.097728
20
84.534157
11
186.796911
21
84.030490
0
LINE
8
0
10
186.797000
20
84.030500
11
186.337586
21
83.713568
0
LINE
8
0
10
186.337586
20
83.713568
11
185.761530
21
83.607924
0
LINE
8
0
10
185.762000
20
83.607900
11
185.013024
21
83.806398
0
LINE
8
0
10
185.013000
20
83.806400
11
184.504474
21
84.359947
0
LINE
8
0
10
184.504000
20
84.360000
11
184.329034
21
85.165250
0
LINE
8
0
10
184.329000
20
85.165200
11
184.513174
21
85.981708
0
LINE
8
0
10
184.513000
20
85.981700
11
185.034829
21
86.527058
0
LINE
8
0
10
185.035000
20
86.527100
11
185.763511
21
86.712298
0
LINE
8
0
10
185.764000
20
86.712300
11
186.521162
21
86.507664
0
LINE
8
0
10
186.521000
20
86.507600
11
187.026454
21
85.948936
0
LINE
8
0
10
187.026000
20
85.949000
11
187.197897
21
85.200026
0
LINE
8
0
10
186.789000
20
85.206100
11
186.716097
21
85.690837
0
LINE
8
0
10
186.716097
20
85.690837
11
186.497390
21
86.060465
0
LINE
8
0
10
186.497000
20
86.060500
11
186.168299
21
86.294555
0
LINE
8
0
10
186.168299
20
86.294555
11
185.765417
21
86.372573
0
LINE
8
0
10
185.766000
20
86.372600
11
185.357492
21
86.293814
0
LINE
8
0
10
185.357492
20
86.293814
11
185.028279
21
86.057458
0
LINE
8
0
10
185.028000
20
86.057400
11
184.810828
21
85.676260
0
LINE
8
0
10
184.810828
20
85.676260
11
184.738438
21
85.163131
0
LINE
8
0
10
184.739000
20
85.163200
11
184.862806
21
84.523706
0
LINE
8
0
10
184.862000
20
84.523700
11
185.224209
21
84.100097
0
LINE
8
0
10
185.225000
20
84.100100
11
185.760130
21
83.949693
0
LINE
8
0
10
185.760000
20
83.949700
11
186.152138
21
84.022091
0
LINE
8
0
10
186.152138
20
84.022091
11
186.485442
21
84.239262
0
LINE
8
0
10
186.485000
20
84.239200
11
186.712917
21
84.625710
0
LINE
8
0
10
186.712917
20
84.625710
11
186.788889
21
85.206116
0
LINE
8
0
10
100.678000
20
86.661400
11
100.678000
21
83.661000
0
LINE
8
0
10
100.678000
20
83.661000
11
100.280000
21
83.661000
0
LINE
8
0
10
100.280000
20
83.661000
11
100.280000
21
86.661400
0
LINE
8
0
10
100.280000
20
86.661400
11
100.678000
21
86.661400
0
LINE
8
0
10
99.701400
20
85.200000
11
99.601127
21
84.534157
0
LINE
8
0
10
99.601127
20
84.534157
11
99.300308
21
84.030490
0
LINE
8
0
10
99.300300
20
84.030500
11
98.840888
21
83.713568
0
LINE
8
0
10
98.840888
20
83.713568
11
98.264830
21
83.607924
0
LINE
8
0
10
98.264900
20
83.607900
11
97.515926
21
83.806398
0
LINE
8
0
10
97.515900
20
83.806400
11
97.007374
21
84.359947
0
LINE
8
0
10
97.007400
20
84.360000
11
96.832434
21
85.165250
0
LINE
8
0
10
96.832400
20
85.165200
11
97.016574
21
85.981708
0
LINE
8
0
10
97.016600
20
85.981700
11
97.538426
21
86.527058
0
LINE
8
0
10
97.538400
20
86.527100
11
98.266913
21
86.712298
0
LINE
8
0
10
98.266900
20
86.712300
11
99.024060
21
86.507664
0
LINE
8
0
10
99.024100
20
86.507600
11
99.529557
21
85.948936
0
LINE
8
0
10
99.529500
20
85.949000
11
99.701397
21
85.200026
0
LINE
8
0
10
99.292200
20
85.206100
11
99.219297
21
85.690837
0
LINE
8
0
10
99.219297
20
85.690837
11
99.000590
21
86.060465
0
LINE
8
0
10
99.000600
20
86.060500
11
98.671899
21
86.294555
0
LINE
8
0
10
98.671899
20
86.294555
11
98.269017
21
86.372573
0
LINE
8
0
10
98.269000
20
86.372600
11
97.860492
21
86.293814
0
LINE
8
0
10
97.860492
20
86.293814
11
97.531279
21
86.057458
0
LINE
8
0
10
97.531200
20
86.057400
11
97.314028
21
85.676260
0
LINE
8
0
10
97.314028
20
85.676260
11
97.241638
21
85.163131
0
LINE
8
0
10
97.241700
20
85.163200
11
97.365506
21
84.523706
0
LINE
8
0
10
97.365500
20
84.523700
11
97.727709
21
84.100097
0
LINE
8
0
10
97.727700
20
84.100100
11
98.262830
21
83.949693
0
LINE
8
0
10
98.262800
20
83.949700
11
98.654938
21
84.022091
0
LINE
8
0
10
98.654938
20
84.022091
11
98.988242
21
84.239262
0
LINE
8
0
10
98.988300
20
84.239200
11
99.216217
21
84.625710
0
LINE
8
0
10
99.216217
20
84.625710
11
99.292189
21
85.206116
0
LINE
8
0
10
213.114000
20
110.627000
11
213.114000
21
107.627000
0
LINE
8
0
10
213.114000
20
107.627000
11
212.516000
21
107.627000
0
LINE
8
0
10
212.516000
20
107.627000
11
211.806124
21
109.751600
0
LINE
8
0
10
211.806000
20
109.751000
11
211.662755
21
110.195066
0
LINE
8
0
10
211.663000
20
110.195000
11
211.503382
21
109.714099
0
LINE
8
0
10
211.503000
20
109.715000
11
210.784657
21
107.627440
0
LINE
8
0
10
210.785000
20
107.627000
11
210.251000
21
107.627000
0
LINE
8
0
10
210.251000
20
107.627000
11
210.251000
21
110.627000
0
LINE
8
0
10
210.251000
20
110.627000
11
210.634000
21
110.627000
0
LINE
8
0
10
210.634000
20
110.627000
11
210.634000
21
108.116000
0
LINE
8
0
10
210.634000
20
108.116000
11
211.505801
21
110.626890
0
LINE
8
0
10
211.506000
20
110.627000
11
211.864000
21
110.627000
0
LINE
8
0
10
211.864000
20
110.627000
11
212.731832
21
108.073770
0
LINE
8
0
10
212.731000
20
108.074000
11
212.731000
21
110.627000
0
LINE
8
0
10
212.731000
20
110.627000
11
213.114000
21
110.627000
0
LINE
8
0
10
209.731000
20
109.166000
11
209.630727
21
108.500157
0
LINE
8
0
10
209.630727
20
108.500157
11
209.329908
21
107.996490
0
LINE
8
0
10
209.330000
20
107.996000
11
208.870587
21
107.679066
0
LINE
8
0
10
208.870587
20
107.679066
11
208.294530
21
107.573421
0
LINE
8
0
10
208.295000
20
107.574000
11
207.546024
21
107.772498
0
LINE
8
0
10
207.546000
20
107.772000
11
207.037474
21
108.325547
0
LINE
8
0
10
207.037000
20
108.326000
11
206.862034
21
109.131250
0
LINE
8
0
10
206.862000
20
109.131000
11
207.046174
21
109.947508
0
LINE
8
0
10
207.046000
20
109.947000
11
207.567829
21
110.492361
0
LINE
8
0
10
207.568000
20
110.493000
11
208.296511
21
110.678198
0
LINE
8
0
10
208.297000
20
110.678000
11
209.054162
21
110.473361
0
LINE
8
0
10
209.054000
20
110.473000
11
209.559457
21
109.914338
0
LINE
8
0
10
209.559000
20
109.915000
11
209.730897
21
109.166024
0
LINE
8
0
10
209.322000
20
109.172000
11
209.249098
21
109.656737
0
LINE
8
0
10
209.249098
20
109.656737
11
209.030390
21
110.026365
0
LINE
8
0
10
209.030000
20
110.026000
11
208.701301
21
110.260055
0
LINE
8
0
10
208.701301
20
110.260055
11
208.298420
21
110.338073
0
LINE
8
0
10
208.299000
20
110.338000
11
207.890490
21
110.259214
0
LINE
8
0
10
207.890490
20
110.259214
11
207.561279
21
110.022858
0
LINE
8
0
10
207.561000
20
110.023000
11
207.343829
21
109.641862
0
LINE
8
0
10
207.343829
20
109.641862
11
207.271438
21
109.128731
0
LINE
8
0
10
207.272000
20
109.129000
11
207.395804
21
108.489506
0
LINE
8
0
10
207.395000
20
108.489000
11
207.757211
21
108.065400
0
LINE
8
0
10
207.758000
20
108.066000
11
208.293127
21
107.915590
0
LINE
8
0
10
208.293000
20
107.915000
11
208.685139
21
107.987391
0
LINE
8
0
10
208.685139
20
107.987391
11
209.018444
21
108.204562
0
LINE
8
0
10
209.018000
20
108.205000
11
209.245915
21
108.591511
0
LINE
8
0
10
209.245915
20
108.591511
11
209.321887
21
109.171916
0
LINE
8
0
10
205.587000
20
110.627000
11
205.587000
21
107.982000
0
LINE
8
0
10
205.587000
20
107.982000
11
206.576000
21
107.982000
0
LINE
8
0
10
206.576000
20
107.982000
11
206.576000
21
107.627000
0
LINE
8
0
10
206.576000
20
107.627000
11
204.198000
21
107.627000
0
LINE
8
0
10
204.198000
20
107.627000
11
204.198000
21
107.982000
0
LINE
8
0
10
204.198000
20
107.982000
11
205.190000
21
107.982000
0
LINE
8
0
10
205.190000
20
107.982000
11
205.190000
21
110.627000
0
LINE
8
0
10
205.190000
20
110.627000
11
205.587000
21
110.627000
0
LINE
8
0
10
203.987000
20
109.166000
11
203.886727
21
108.500157
0
LINE
8
0
10
203.886727
20
108.500157
11
203.585908
21
107.996490
0
LINE
8
0
10
203.586000
20
107.996000
11
203.126587
21
107.679066
0
LINE
8
0
10
203.126587
20
107.679066
11
202.550530
21
107.573421
0
LINE
8
0
10
202.551000
20
107.574000
11
201.802024
21
107.772498
0
LINE
8
0
10
201.802000
20
107.772000
11
201.293474
21
108.325547
0
LINE
8
0
10
201.293000
20
108.326000
11
201.118034
21
109.131250
0
LINE
8
0
10
201.118000
20
109.131000
11
201.302174
21
109.947508
0
LINE
8
0
10
201.302000
20
109.947000
11
201.823829
21
110.492361
0
LINE
8
0
10
201.824000
20
110.493000
11
202.552511
21
110.678198
0
LINE
8
0
10
202.553000
20
110.678000
11
203.310162
21
110.473361
0
LINE
8
0
10
203.310000
20
110.473000
11
203.815457
21
109.914338
0
LINE
8
0
10
203.815000
20
109.915000
11
203.986897
21
109.166024
0
LINE
8
0
10
203.578000
20
109.172000
11
203.505098
21
109.656737
0
LINE
8
0
10
203.505098
20
109.656737
11
203.286390
21
110.026365
0
LINE
8
0
10
203.286000
20
110.026000
11
202.957301
21
110.260055
0
LINE
8
0
10
202.957301
20
110.260055
11
202.554420
21
110.338073
0
LINE
8
0
10
202.555000
20
110.338000
11
202.146490
21
110.259214
0
LINE
8
0
10
202.146490
20
110.259214
11
201.817279
21
110.022858
0
LINE
8
0
10
201.817000
20
110.023000
11
201.599829
21
109.641862
0
LINE
8
0
10
201.599829
20
109.641862
11
201.527438
21
109.128731
0
LINE
8
0
10
201.527000
20
109.129000
11
201.650804
21
108.489506
0
LINE
8
0
10
201.651000
20
108.489000
11
202.013211
21
108.065400
0
LINE
8
0
10
202.013000
20
108.066000
11
202.548127
21
107.915590
0
LINE
8
0
10
202.548000
20
107.915000
11
202.940138
21
107.987391
0
LINE
8
0
10
202.940138
20
107.987391
11
203.273444
21
108.204562
0
LINE
8
0
10
203.274000
20
108.205000
11
203.501915
21
108.591511
0
LINE
8
0
10
203.501915
20
108.591511
11
203.577887
21
109.171916
0
LINE
8
0
10
200.600000
20
110.627000
11
200.600000
21
107.627000
0
LINE
8
0
10
200.600000
20
107.627000
11
199.270000
21
107.627000
0
LINE
8
0
10
199.270000
20
107.627000
11
198.660179
21
107.707833
0
LINE
8
0
10
198.660000
20
107.708000
11
198.326440
21
107.993472
0
LINE
8
0
10
198.327000
20
107.993000
11
198.202170
21
108.445249
0
LINE
8
0
10
198.202000
20
108.445000
11
198.408687
21
108.983199
0
LINE
8
0
10
198.409000
20
108.984000
11
199.047471
21
109.262307
0
LINE
8
0
10
199.047000
20
109.262000
11
198.807574
21
109.411386
0
LINE
8
0
10
198.808000
20
109.411000
11
198.478533
21
109.810044
0
LINE
8
0
10
198.478000
20
109.810000
11
197.956163
21
110.627561
0
LINE
8
0
10
197.956000
20
110.627000
11
198.456000
21
110.627000
0
LINE
8
0
10
198.456000
20
110.627000
11
198.853007
21
110.002584
0
LINE
8
0
10
198.853000
20
110.003000
11
199.139496
21
109.589629
0
LINE
8
0
10
199.139000
20
109.589000
11
199.340567
21
109.388457
0
LINE
8
0
10
199.341000
20
109.389000
11
199.522104
21
109.309188
0
LINE
8
0
10
199.522000
20
109.309000
11
199.743009
21
109.294686
0
LINE
8
0
10
199.743000
20
109.294000
11
200.203000
21
109.294000
0
LINE
8
0
10
200.203000
20
109.294000
11
200.203000
21
110.627000
0
LINE
8
0
10
200.203000
20
110.627000
11
200.600000
21
110.627000
0
LINE
8
0
10
200.203000
20
108.950000
11
199.350000
21
108.950000
0
LINE
8
0
10
199.350000
20
108.951000
11
198.924352
21
108.894726
0
LINE
8
0
10
198.924000
20
108.895000
11
198.690712
21
108.714917
0
LINE
8
0
10
198.691000
20
108.714000
11
198.611191
21
108.444901
0
LINE
8
0
10
198.611000
20
108.445000
11
198.765501
21
108.095068
0
LINE
8
0
10
198.766000
20
108.095000
11
199.254063
21
107.957893
0
LINE
8
0
10
199.254000
20
107.958000
11
200.203000
21
107.958000
0
LINE
8
0
10
200.203000
20
107.958000
11
200.203000
21
108.950000
0
LINE
8
0
10
141.614000
20
110.627000
11
141.614000
21
107.627000
0
LINE
8
0
10
141.614000
20
107.627000
11
141.016000
21
107.627000
0
LINE
8
0
10
141.016000
20
107.627000
11
140.305859
21
109.751600
0
LINE
8
0
10
140.306000
20
109.751000
11
140.162755
21
110.195066
0
LINE
8
0
10
140.163000
20
110.195000
11
140.003382
21
109.714099
0
LINE
8
0
10
140.004000
20
109.715000
11
139.285657
21
107.627440
0
LINE
8
0
10
139.285000
20
107.627000
11
138.751000
21
107.627000
0
LINE
8
0
10
138.751000
20
107.627000
11
138.751000
21
110.627000
0
LINE
8
0
10
138.751000
20
110.627000
11
139.134000
21
110.627000
0
LINE
8
0
10
139.134000
20
110.627000
11
139.134000
21
108.116000
0
LINE
8
0
10
139.134000
20
108.116000
11
140.005536
21
110.626890
0
LINE
8
0
10
140.005000
20
110.627000
11
140.364000
21
110.627000
0
LINE
8
0
10
140.364000
20
110.627000
11
141.231568
21
108.073770
0
LINE
8
0
10
141.231000
20
108.074000
11
141.231000
21
110.627000
0
LINE
8
0
10
141.231000
20
110.627000
11
141.614000
21
110.627000
0
LINE
8
0
10
138.231000
20
109.166000
11
138.130727
21
108.500157
0
LINE
8
0
10
138.130727
20
108.500157
11
137.829908
21
107.996490
0
LINE
8
0
10
137.830000
20
107.996000
11
137.370587
21
107.679066
0
LINE
8
0
10
137.370587
20
107.679066
11
136.794530
21
107.573421
0
LINE
8
0
10
136.795000
20
107.574000
11
136.046024
21
107.772498
0
LINE
8
0
10
136.046000
20
107.772000
11
135.537474
21
108.325547
0
LINE
8
0
10
135.537000
20
108.326000
11
135.362034
21
109.131250
0
LINE
8
0
10
135.362000
20
109.131000
11
135.546174
21
109.947508
0
LINE
8
0
10
135.547000
20
109.947000
11
136.068829
21
110.492361
0
LINE
8
0
10
136.068000
20
110.493000
11
136.796511
21
110.678198
0
LINE
8
0
10
136.797000
20
110.678000
11
137.554162
21
110.473361
0
LINE
8
0
10
137.554000
20
110.473000
11
138.059457
21
109.914338
0
LINE
8
0
10
138.059000
20
109.915000
11
138.230897
21
109.166024
0
LINE
8
0
10
137.822000
20
109.172000
11
137.749098
21
109.656737
0
LINE
8
0
10
137.749098
20
109.656737
11
137.530390
21
110.026365
0
LINE
8
0
10
137.530000
20
110.026000
11
137.201301
21
110.260055
0
LINE
8
0
10
137.201301
20
110.260055
11
136.798420
21
110.338073
0
LINE
8
0
10
136.799000
20
110.338000
11
136.390490
21
110.259214
0
LINE
8
0
10
136.390490
20
110.259214
11
136.061279
21
110.022858
0
LINE
8
0
10
136.061000
20
110.023000
11
135.843829
21
109.641862
0
LINE
8
0
10
135.843829
20
109.641862
11
135.771438
21
109.128731
0
LINE
8
0
10
135.772000
20
109.129000
11
135.895804
21
108.489506
0
LINE
8
0
10
135.895000
20
108.489000
11
136.257211
21
108.065400
0
LINE
8
0
10
136.258000
20
108.066000
11
136.793127
21
107.915590
0
LINE
8
0
10
136.793000
20
107.915000
11
137.185139
21
107.987391
0
LINE
8
0
10
137.185139
20
107.987391
11
137.518444
21
108.204562
0
LINE
8
0
10
137.518000
20
108.205000
11
137.745915
21
108.591511
0
LINE
8
0
10
137.745915
20
108.591511
11
137.821887
21
109.171916
0
LINE
8
0
10
134.088000
20
110.627000
11
134.088000
21
107.982000
0
LINE
8
0
10
134.088000
20
107.982000
11
135.076000
21
107.982000
0
LINE
8
0
10
135.076000
20
107.982000
11
135.076000
21
107.627000
0
LINE
8
0
10
135.076000
20
107.627000
11
132.698000
21
107.627000
0
LINE
8
0
10
132.698000
20
107.627000
11
132.698000
21
107.982000
0
LINE
8
0
10
132.698000
20
107.982000
11
133.690000
21
107.982000
0
LINE
8
0
10
133.690000
20
107.982000
11
133.690000
21
110.627000
0
LINE
8
0
10
133.690000
20
110.627000
11
134.088000
21
110.627000
0
LINE
8
0
10
132.487000
20
109.166000
11
132.386727
21
108.500157
0
LINE
8
0
10
132.386727
20
108.500157
11
132.085908
21
107.996490
0
LINE
8
0
10
132.086000
20
107.996000
11
131.626587
21
107.679066
0
LINE
8
0
10
131.626587
20
107.679066
11
131.050530
21
107.573421
0
LINE
8
0
10
131.051000
20
107.574000
11
130.302024
21
107.772498
0
LINE
8
0
10
130.302000
20
107.772000
11
129.793474
21
108.325547
0
LINE
8
0
10
129.793000
20
108.326000
11
129.618000
21
109.131000
0
LINE
8
0
10
129.618000
20
109.131000
11
129.802174
21
109.947508
0
LINE
8
0
10
129.802000
20
109.947000
11
130.323829
21
110.492361
0
LINE
8
0
10
130.324000
20
110.493000
11
131.052511
21
110.678198
0
LINE
8
0
10
131.053000
20
110.678000
11
131.810162
21
110.473361
0
LINE
8
0
10
131.810000
20
110.473000
11
132.315457
21
109.914338
0
LINE
8
0
10
132.315000
20
109.915000
11
132.486897
21
109.166024
0
LINE
8
0
10
132.078000
20
109.172000
11
132.005098
21
109.656737
0
LINE
8
0
10
132.005098
20
109.656737
11
131.786390
21
110.026365
0
LINE
8
0
10
131.786000
20
110.026000
11
131.457301
21
110.260055
0
LINE
8
0
10
131.457301
20
110.260055
11
131.054420
21
110.338073
0
LINE
8
0
10
131.055000
20
110.338000
11
130.646490
21
110.259214
0
LINE
8
0
10
130.646490
20
110.259214
11
130.317279
21
110.022858
0
LINE
8
0
10
130.317000
20
110.023000
11
130.099829
21
109.641862
0
LINE
8
0
10
130.099829
20
109.641862
11
130.027438
21
109.128731
0
LINE
8
0
10
130.027000
20
109.129000
11
130.150804
21
108.489506
0
LINE
8
0
10
130.151000
20
108.489000
11
130.513211
21
108.065400
0
LINE
8
0
10
130.513000
20
108.066000
11
131.048127
21
107.915590
0
LINE
8
0
10
131.049000
20
107.915000
11
131.441139
21
107.987391
0
LINE
8
0
10
131.441139
20
107.987391
11
131.774444
21
108.204562
0
LINE
8
0
10
131.774000
20
108.205000
11
132.001915
21
108.591511
0
LINE
8
0
10
132.001915
20
108.591511
11
132.077887
21
109.171916
0
LINE
8
0
10
129.100000
20
110.627000
11
129.100000
21
107.627000
0
LINE
8
0
10
129.100000
20
107.627000
11
127.770000
21
107.627000
0
LINE
8
0
10
127.770000
20
107.627000
11
127.160179
21
107.707833
0
LINE
8
0
10
127.160000
20
107.708000
11
126.826440
21
107.993472
0
LINE
8
0
10
126.827000
20
107.993000
11
126.702170
21
108.445249
0
LINE
8
0
10
126.702000
20
108.445000
11
126.908687
21
108.983199
0
LINE
8
0
10
126.909000
20
108.984000
11
127.547471
21
109.262307
0
LINE
8
0
10
127.547000
20
109.262000
11
127.307574
21
109.411386
0
LINE
8
0
10
127.308000
20
109.411000
11
126.978533
21
109.810044
0
LINE
8
0
10
126.978000
20
109.810000
11
126.456242
21
110.627561
0
LINE
8
0
10
126.456000
20
110.627000
11
126.956000
21
110.627000
0
LINE
8
0
10
126.956000
20
110.627000
11
127.353139
21
110.002584
0
LINE
8
0
10
127.353000
20
110.003000
11
127.639496
21
109.589629
0
LINE
8
0
10
127.639000
20
109.589000
11
127.840567
21
109.388457
0
LINE
8
0
10
127.841000
20
109.389000
11
128.022104
21
109.309188
0
LINE
8
0
10
128.022000
20
109.309000
11
128.243009
21
109.294686
0
LINE
8
0
10
128.243000
20
109.294000
11
128.704000
21
109.294000
0
LINE
8
0
10
128.704000
20
109.294000
11
128.704000
21
110.627000
0
LINE
8
0
10
128.704000
20
110.627000
11
129.100000
21
110.627000
0
LINE
8
0
10
128.704000
20
108.950000
11
127.850000
21
108.950000
0
LINE
8
0
10
127.850000
20
108.951000
11
127.424349
21
108.894726
0
LINE
8
0
10
127.424000
20
108.895000
11
127.190715
21
108.714917
0
LINE
8
0
10
127.191000
20
108.714000
11
127.111191
21
108.444901
0
LINE
8
0
10
127.111000
20
108.445000
11
127.265501
21
108.095068
0
LINE
8
0
10
127.266000
20
108.095000
11
127.754063
21
107.957893
0
LINE
8
0
10
127.754000
20
107.958000
11
128.704000
21
107.958000
0
LINE
8
0
10
128.704000
20
107.958000
11
128.704000
21
108.950000
0
LINE
8
0
10
216.110000
20
78.755700
11
214.957740
21
75.755330
0
LINE
8
0
10
214.958000
20
75.755300
11
214.530000
21
75.755300
0
LINE
8
0
10
214.530000
20
75.755300
11
213.302070
21
78.755670
0
LINE
8
0
10
213.302000
20
78.755700
11
213.755000
21
78.755700
0
LINE
8
0
10
213.755000
20
78.755700
11
214.104779
21
77.845534
0
LINE
8
0
10
214.104000
20
77.845500
11
215.359000
21
77.845500
0
LINE
8
0
10
215.359000
20
77.845500
11
215.688670
21
78.755666
0
LINE
8
0
10
215.688000
20
78.755700
11
216.110000
21
78.755700
0
LINE
8
0
10
215.244000
20
77.522700
11
214.227000
21
77.522700
0
LINE
8
0
10
214.227000
20
77.522700
11
214.540266
21
76.691909
0
LINE
8
0
10
214.540000
20
76.691800
11
214.752825
21
76.069699
0
LINE
8
0
10
214.753000
20
76.069700
11
214.914663
21
76.642686
0
LINE
8
0
10
214.915000
20
76.641700
11
215.244406
21
77.522761
0
LINE
8
0
10
213.290000
20
78.755700
11
212.129800
21
77.192010
0
LINE
8
0
10
212.130000
20
77.192000
11
213.153140
21
75.755310
0
LINE
8
0
10
213.153000
20
75.755300
11
212.680000
21
75.755300
0
LINE
8
0
10
212.680000
20
75.755300
11
212.135753
21
76.525237
0
LINE
8
0
10
212.136000
20
76.524000
11
211.894526
21
76.892350
0
LINE
8
0
10
211.894000
20
76.892400
11
211.656621
21
76.550654
0
LINE
8
0
10
211.657000
20
76.551700
11
211.053222
21
75.755305
0
LINE
8
0
10
211.053000
20
75.755300
11
210.621000
21
75.755300
0
LINE
8
0
10
210.621000
20
75.755300
11
211.675100
21
77.168170
0
LINE
8
0
10
211.675000
20
77.168200
11
210.539150
21
78.755700
0
LINE
8
0
10
210.540000
20
78.755700
11
211.031000
21
78.755700
0
LINE
8
0
10
211.031000
20
78.755700
11
211.786120
21
77.684140
0
LINE
8
0
10
211.786000
20
77.684300
11
211.916969
21
77.483754
0
LINE
8
0
10
211.917000
20
77.483800
11
212.060248
21
77.708902
0
LINE
8
0
10
212.060000
20
77.707900
11
212.813003
21
78.755650
0
LINE
8
0
10
212.813000
20
78.755700
11
213.290000
21
78.755700
0
LINE
8
0
10
210.122000
20
78.755700
11
210.122000
21
75.755300
0
LINE
8
0
10
210.122000
20
75.755300
11
209.725000
21
75.755300
0
LINE
8
0
10
209.725000
20
75.755300
11
209.725000
21
78.755700
0
LINE
8
0
10
209.725000
20
78.755700
11
210.122000
21
78.755700
0
LINE
8
0
10
209.160000
20
77.789900
11
208.785615
21
77.758150
0
LINE
8
0
10
208.786000
20
77.758000
11
208.662194
21
78.127374
0
LINE
8
0
10
208.662000
20
78.127400
11
208.360158
21
78.360685
0
LINE
8
0
10
208.360000
20
78.360700
11
207.899565
21
78.449719
0
LINE
8
0
10
207.900000
20
78.449700
11
207.498911
21
78.382171
0
LINE
8
0
10
207.499000
20
78.382200
11
207.240132
21
78.197000
0
LINE
8
0
10
207.240000
20
78.197000
11
207.155074
21
77.940180
0
LINE
8
0
10
207.155000
20
77.940100
11
207.236857
21
77.693511
0
LINE
8
0
10
207.237000
20
77.693500
11
207.507121
21
77.516489
0
LINE
8
0
10
207.507000
20
77.516500
11
208.041106
21
77.370183
0
LINE
8
0
10
208.041000
20
77.370200
11
208.620127
21
77.182957
0
LINE
8
0
10
208.620000
20
77.183000
11
208.940259
21
76.903666
0
LINE
8
0
10
208.940000
20
76.903600
11
209.045389
21
76.530136
0
LINE
8
0
10
209.046000
20
76.530200
11
208.917077
21
76.105576
0
LINE
8
0
10
208.917000
20
76.105600
11
208.540467
21
75.805806
0
LINE
8
0
10
208.540000
20
75.805800
11
207.989522
21
75.703480
0
LINE
8
0
10
207.990000
20
75.703400
11
207.401665
21
75.810834
0
LINE
8
0
10
207.401000
20
75.810900
11
207.009118
21
76.127066
0
LINE
8
0
10
207.010000
20
76.127000
11
206.862659
21
76.599715
0
LINE
8
0
10
206.862000
20
76.599300
11
207.242735
21
76.628404
0
LINE
8
0
10
207.243000
20
76.628400
11
207.450708
21
76.198662
0
LINE
8
0
10
207.451000
20
76.198700
11
207.973850
21
76.053404
0
LINE
8
0
10
207.973000
20
76.053400
11
208.497896
21
76.185393
0
LINE
8
0
10
208.498000
20
76.185400
11
208.662735
21
76.503614
0
LINE
8
0
10
208.663000
20
76.503600
11
208.546356
21
76.769628
0
LINE
8
0
10
208.546000
20
76.769600
11
207.947434
21
76.983447
0
LINE
8
0
10
207.948000
20
76.983500
11
207.283950
21
77.174838
0
LINE
8
0
10
207.284000
20
77.174800
11
206.897233
21
77.480735
0
LINE
8
0
10
206.897000
20
77.480700
11
206.772170
21
77.907369
0
LINE
8
0
10
206.772000
20
77.907400
11
206.909110
21
78.358628
0
LINE
8
0
10
206.909000
20
78.358600
11
207.302927
21
78.688067
0
LINE
8
0
10
207.303000
20
78.688100
11
207.881103
21
78.805768
0
LINE
8
0
10
207.881000
20
78.805800
11
208.563468
21
78.687111
0
LINE
8
0
10
208.564000
20
78.687100
11
208.995786
21
78.330006
0
LINE
8
0
10
208.996000
20
78.330000
11
209.160735
21
77.790777
0
LINE
8
0
10
203.827000
20
78.755700
11
204.196000
21
78.755700
0
LINE
8
0
10
204.196000
20
78.755700
11
204.196000
21
76.406200
0
LINE
8
0
10
204.196000
20
76.407400
11
204.544908
21
76.661151
0
LINE
8
0
10
204.545000
20
76.661100
11
204.932791
21
76.851415
0
LINE
8
0
10
204.932000
20
76.850700
11
204.932000
21
76.496100
0
LINE
8
0
10
204.932000
20
76.495400
11
204.391753
21
76.143423
0
LINE
8
0
10
204.392000
20
76.143400
11
204.064579
21
75.742308
0
LINE
8
0
10
204.065000
20
75.742100
11
203.827000
21
75.742100
0
LINE
8
0
10
203.827000
20
75.742100
11
203.827000
21
78.755700
0
LINE
8
0
10
128.635000
20
78.988500
11
127.482740
21
75.990770
0
LINE
8
0
10
127.483000
20
75.990800
11
127.055000
21
75.990800
0
LINE
8
0
10
127.055000
20
75.990800
11
125.827070
21
78.988530
0
LINE
8
0
10
125.827000
20
78.988500
11
126.280000
21
78.988500
0
LINE
8
0
10
126.280000
20
78.988500
11
126.629779
21
78.080980
0
LINE
8
0
10
126.629000
20
78.081000
11
127.884000
21
78.081000
0
LINE
8
0
10
127.884000
20
78.081000
11
128.213406
21
78.988520
0
LINE
8
0
10
128.213000
20
78.988500
11
128.635000
21
78.988500
0
LINE
8
0
10
127.769000
20
77.758200
11
126.752000
21
77.758200
0
LINE
8
0
10
126.752000
20
77.758200
11
127.065266
21
76.927409
0
LINE
8
0
10
127.065000
20
76.926800
11
127.277823
21
76.304699
0
LINE
8
0
10
127.278000
20
76.304700
11
127.439666
21
76.877686
0
LINE
8
0
10
127.440000
20
76.877100
11
127.769406
21
77.758161
0
LINE
8
0
10
125.815000
20
78.988500
11
124.654540
21
77.424810
0
LINE
8
0
10
124.655000
20
77.424800
11
125.678410
21
75.990760
0
LINE
8
0
10
125.678000
20
75.990800
11
125.205000
21
75.990800
0
LINE
8
0
10
125.205000
20
75.990800
11
124.660753
21
76.758091
0
LINE
8
0
10
124.661000
20
76.758900
11
124.419526
21
77.127247
0
LINE
8
0
10
124.419000
20
77.127300
11
124.181621
21
76.785554
0
LINE
8
0
10
124.182000
20
76.784500
11
123.578222
21
75.990751
0
LINE
8
0
10
123.578000
20
75.990800
11
123.147000
21
75.990800
0
LINE
8
0
10
123.147000
20
75.990800
11
124.200830
21
77.403670
0
LINE
8
0
10
124.200000
20
77.403700
11
123.064410
21
78.988550
0
LINE
8
0
10
123.065000
20
78.988500
11
123.556000
21
78.988500
0
LINE
8
0
10
123.556000
20
78.988500
11
124.311120
21
77.919580
0
LINE
8
0
10
124.311000
20
77.919200
11
124.441969
21
77.718657
0
LINE
8
0
10
124.442000
20
77.718700
11
124.585248
21
77.943802
0
LINE
8
0
10
124.585000
20
77.943400
11
125.338268
21
78.988500
0
LINE
8
0
10
125.338000
20
78.988500
11
125.815000
21
78.988500
0
LINE
8
0
10
122.647000
20
78.988500
11
122.647000
21
75.990800
0
LINE
8
0
10
122.647000
20
75.990800
11
122.250000
21
75.990800
0
LINE
8
0
10
122.250000
20
75.990800
11
122.250000
21
78.988500
0
LINE
8
0
10
122.250000
20
78.988500
11
122.647000
21
78.988500
0
LINE
8
0
10
121.685000
20
78.025400
11
121.310350
21
77.993650
0
LINE
8
0
10
121.311000
20
77.992900
11
121.187194
21
78.362271
0
LINE
8
0
10
121.187000
20
78.362300
11
120.885158
21
78.595588
0
LINE
8
0
10
120.885000
20
78.595600
11
120.424565
21
78.684619
0
LINE
8
0
10
120.425000
20
78.684600
11
120.023908
21
78.617068
0
LINE
8
0
10
120.024000
20
78.617100
11
119.765135
21
78.431902
0
LINE
8
0
10
119.765000
20
78.431900
11
119.680074
21
78.175080
0
LINE
8
0
10
119.680000
20
78.175000
11
119.761854
21
77.928411
0
LINE
8
0
10
119.762000
20
77.928500
11
120.032123
21
77.751489
0
LINE
8
0
10
120.032000
20
77.751400
11
120.566106
21
77.605083
0
LINE
8
0
10
120.566000
20
77.605100
11
121.145125
21
77.417855
0
LINE
8
0
10
121.145000
20
77.417900
11
121.465259
21
77.138569
0
LINE
8
0
10
121.465000
20
77.138600
11
121.570389
21
76.765136
0
LINE
8
0
10
121.571000
20
76.765100
11
121.442079
21
76.340476
0
LINE
8
0
10
121.442000
20
76.340500
11
121.065467
21
76.040704
0
LINE
8
0
10
121.065000
20
76.040700
11
120.514522
21
75.938383
0
LINE
8
0
10
120.515000
20
75.938400
11
119.926665
21
76.045834
0
LINE
8
0
10
119.927000
20
76.045800
11
119.535118
21
76.361966
0
LINE
8
0
10
119.535000
20
76.362000
11
119.387659
21
76.834715
0
LINE
8
0
10
119.387000
20
76.834800
11
119.767735
21
76.863904
0
LINE
8
0
10
119.768000
20
76.863300
11
119.975706
21
76.433559
0
LINE
8
0
10
119.976000
20
76.433600
11
120.498853
21
76.288307
0
LINE
8
0
10
120.499000
20
76.288300
11
121.023896
21
76.420293
0
LINE
8
0
10
121.023000
20
76.420300
11
121.187735
21
76.738511
0
LINE
8
0
10
121.188000
20
76.738500
11
121.071356
21
77.004530
0
LINE
8
0
10
121.072000
20
77.004500
11
120.473434
21
77.218347
0
LINE
8
0
10
120.473000
20
77.218400
11
119.808947
21
77.409738
0
LINE
8
0
10
119.809000
20
77.409700
11
119.422235
21
77.715632
0
LINE
8
0
10
119.422000
20
77.715600
11
119.297170
21
78.142272
0
LINE
8
0
10
119.297000
20
78.142300
11
119.434110
21
78.593528
0
LINE
8
0
10
119.434000
20
78.593500
11
119.827927
21
78.922967
0
LINE
8
0
10
119.828000
20
78.923000
11
120.406103
21
79.040668
0
LINE
8
0
10
120.406000
20
79.040700
11
121.088468
21
78.922008
0
LINE
8
0
10
121.089000
20
78.922000
11
121.520786
21
78.564908
0
LINE
8
0
10
121.521000
20
78.564900
11
121.685735
21
78.025677
0
LINE
8
0
10
115.804000
20
78.636600
11
115.804000
21
78.988500
0
LINE
8
0
10
115.804000
20
78.988500
11
117.787000
21
78.988500
0
LINE
8
0
10
117.787000
20
78.989500
11
117.744024
21
78.733701
0
LINE
8
0
10
117.744000
20
78.733700
11
117.501504
21
78.334656
0
LINE
8
0
10
117.502000
20
78.334700
11
117.020078
21
77.880403
0
LINE
8
0
10
117.020000
20
77.880400
11
116.359019
21
77.244999
0
LINE
8
0
10
116.359000
20
77.245000
11
116.187103
21
76.801958
0
LINE
8
0
10
116.187000
20
76.801900
11
116.343548
21
76.432526
0
LINE
8
0
10
116.343000
20
76.432500
11
116.751254
21
76.282093
0
LINE
8
0
10
116.752000
20
76.282100
11
117.177645
21
76.441718
0
LINE
8
0
10
117.177000
20
76.441800
11
117.338666
21
76.883818
0
LINE
8
0
10
117.339000
20
76.885100
11
117.717618
21
76.845412
0
LINE
8
0
10
117.718000
20
76.844900
11
117.425366
21
76.199267
0
LINE
8
0
10
117.425000
20
76.199300
11
116.743556
21
75.977267
0
LINE
8
0
10
116.743000
20
75.977200
11
116.059508
21
76.216626
0
LINE
8
0
10
116.060000
20
76.216700
11
115.808294
21
76.810152
0
LINE
8
0
10
115.808000
20
76.810100
11
115.881671
21
77.164123
0
LINE
8
0
10
115.882000
20
77.164100
11
116.126543
21
77.530402
0
LINE
8
0
10
116.126000
20
77.530400
11
116.693869
21
78.058367
0
LINE
8
0
10
116.694000
20
78.058400
11
117.119648
21
78.435957
0
LINE
8
0
10
117.120000
20
78.436000
11
117.275527
21
78.635522
0
LINE
8
0
10
117.275000
20
78.636600
11
115.804000
21
78.636600
0
LINE
8
0
10
238.554000
20
86.238100
11
238.554000
21
83.237700
0
LINE
8
0
10
238.554000
20
83.237700
11
236.385000
21
83.237700
0
LINE
8
0
10
236.385000
20
83.237700
11
236.385000
21
83.592300
0
LINE
8
0
10
236.385000
20
83.592300
11
238.157000
21
83.592300
0
LINE
8
0
10
238.157000
20
83.592300
11
238.157000
21
84.510400
0
LINE
8
0
10
238.157000
20
84.510400
11
236.497000
21
84.510400
0
LINE
8
0
10
236.497000
20
84.510400
11
236.497000
21
84.862300
0
LINE
8
0
10
236.497000
20
84.862300
11
238.157000
21
84.862300
0
LINE
8
0
10
238.157000
20
84.862300
11
238.157000
21
85.883500
0
LINE
8
0
10
238.157000
20
85.883500
11
236.315000
21
85.883500
0
LINE
8
0
10
236.315000
20
85.883500
11
236.315000
21
86.238100
0
LINE
8
0
10
236.315000
20
86.238100
11
238.554000
21
86.238100
0
LINE
8
0
10
235.771000
20
86.238100
11
235.771000
21
83.237700
0
LINE
8
0
10
235.771000
20
83.237700
11
235.364000
21
83.237700
0
LINE
8
0
10
235.364000
20
83.237700
11
233.788140
21
85.595130
0
LINE
8
0
10
233.788000
20
85.595100
11
233.788000
21
83.237700
0
LINE
8
0
10
233.788000
20
83.237700
11
233.407000
21
83.237700
0
LINE
8
0
10
233.407000
20
83.237700
11
233.407000
21
86.238100
0
LINE
8
0
10
233.407000
20
86.238100
11
233.814000
21
86.238100
0
LINE
8
0
10
233.814000
20
86.238100
11
235.389590
21
83.880670
0
LINE
8
0
10
235.390000
20
83.880700
11
235.390000
21
86.238100
0
LINE
8
0
10
235.390000
20
86.238100
11
235.771000
21
86.238100
0
LINE
8
0
10
230.599000
20
85.187700
11
230.202126
21
85.288242
0
LINE
8
0
10
230.202000
20
85.287100
11
230.651180
21
86.033007
0
LINE
8
0
10
230.652000
20
86.033000
11
231.444974
21
86.289820
0
LINE
8
0
10
231.445000
20
86.289800
11
232.233881
21
86.092323
0
LINE
8
0
10
232.234000
20
86.092400
11
232.696483
21
85.520438
0
LINE
8
0
10
232.696000
20
85.520400
11
232.854594
21
84.716171
0
LINE
8
0
10
232.855000
20
84.716200
11
232.675941
21
83.898670
0
LINE
8
0
10
232.676000
20
83.898600
11
232.166453
21
83.368587
0
LINE
8
0
10
232.166000
20
83.368600
11
231.438511
21
83.187496
0
LINE
8
0
10
231.438000
20
83.187500
11
230.680838
21
83.416695
0
LINE
8
0
10
230.681000
20
83.416700
11
230.253307
21
84.061309
0
LINE
8
0
10
230.254000
20
84.060600
11
230.644789
21
84.153204
0
LINE
8
0
10
230.644000
20
84.153400
11
230.946866
21
83.676592
0
LINE
8
0
10
230.947000
20
83.676600
11
231.446318
21
83.527214
0
LINE
8
0
10
231.447000
20
83.527200
11
232.025101
21
83.692959
0
LINE
8
0
10
232.025000
20
83.693000
11
232.351398
21
84.138087
0
LINE
8
0
10
232.351000
20
84.138100
11
232.445136
21
84.714158
0
LINE
8
0
10
232.445000
20
84.714100
11
232.333470
21
85.382244
0
LINE
8
0
10
232.334000
20
85.382300
11
231.987140
21
85.808969
0
LINE
8
0
10
231.987000
20
85.808900
11
231.477450
21
85.950103
0
LINE
8
0
10
231.477000
20
85.950100
11
230.912200
21
85.757740
0
LINE
8
0
10
230.913000
20
85.757800
11
230.599903
21
85.186859
0
LINE
8
0
10
230.037000
20
86.291000
11
229.167316
21
83.187440
0
LINE
8
0
10
229.167000
20
83.187400
11
228.872000
21
83.187400
0
LINE
8
0
10
228.872000
20
83.187400
11
229.739832
21
86.290960
0
LINE
8
0
10
229.740000
20
86.291000
11
230.037000
21
86.291000
0
LINE
8
0
10
228.565000
20
86.238100
11
228.565000
21
83.237700
0
LINE
8
0
10
228.565000
20
83.237700
11
228.168000
21
83.237700
0
LINE
8
0
10
228.168000
20
83.237700
11
228.168000
21
85.883500
0
LINE
8
0
10
228.168000
20
85.883500
11
226.691000
21
85.883500
0
LINE
8
0
10
226.691000
20
85.883500
11
226.691000
21
86.238100
0
LINE
8
0
10
226.691000
20
86.238100
11
228.565000
21
86.238100
0
LINE
8
0
10
226.151000
20
86.238100
11
226.151000
21
83.237700
0
LINE
8
0
10
226.151000
20
83.237700
11
225.754000
21
83.237700
0
LINE
8
0
10
225.754000
20
83.237700
11
225.754000
21
86.238100
0
LINE
8
0
10
225.754000
20
86.238100
11
226.151000
21
86.238100
0
LINE
8
0
10
225.066000
20
86.238100
11
225.066000
21
83.237700
0
LINE
8
0
10
225.066000
20
83.237700
11
224.469000
21
83.237700
0
LINE
8
0
10
224.469000
20
83.237700
11
223.758859
21
85.362300
0
LINE
8
0
10
223.758000
20
85.362800
11
223.614755
21
85.806866
0
LINE
8
0
10
223.615000
20
85.806900
11
223.455382
21
85.325999
0
LINE
8
0
10
223.455000
20
85.325300
11
222.736922
21
83.237740
0
LINE
8
0
10
222.737000
20
83.237700
11
222.203000
21
83.237700
0
LINE
8
0
10
222.203000
20
83.237700
11
222.203000
21
86.238100
0
LINE
8
0
10
222.203000
20
86.238100
11
222.586000
21
86.238100
0
LINE
8
0
10
222.586000
20
86.238100
11
222.586000
21
83.727200
0
LINE
8
0
10
222.586000
20
83.727200
11
223.457801
21
86.238090
0
LINE
8
0
10
223.458000
20
86.238100
11
223.816000
21
86.238100
0
LINE
8
0
10
223.816000
20
86.238100
11
224.683568
21
83.684870
0
LINE
8
0
10
224.683000
20
83.684900
11
224.683000
21
86.238100
0
LINE
8
0
10
224.683000
20
86.238100
11
225.066000
21
86.238100
0
LINE
8
0
10
277.962000
20
133.075000
11
277.587880
21
133.037958
0
LINE
8
0
10
277.588000
20
133.038000
11
277.460153
21
133.405987
0
LINE
8
0
10
277.461000
20
133.406000
11
277.156597
21
133.635957
0
LINE
8
0
10
277.156000
20
133.636000
11
276.694620
21
133.719949
0
LINE
8
0
10
276.695000
20
133.720000
11
276.294686
21
133.648065
0
LINE
8
0
10
276.295000
20
133.648000
11
276.038169
21
133.459969
0
LINE
8
0
10
276.038000
20
133.460000
11
275.955900
21
133.202262
0
LINE
8
0
10
275.956000
20
133.202000
11
276.040561
21
132.956324
0
LINE
8
0
10
276.040000
20
132.956000
11
276.312071
21
132.781968
0
LINE
8
0
10
276.312000
20
132.782000
11
276.847675
21
132.641565
0
LINE
8
0
10
276.848000
20
132.642000
11
277.429157
21
132.461131
0
LINE
8
0
10
277.429000
20
132.461000
11
277.752294
21
132.185207
0
LINE
8
0
10
277.752000
20
132.185000
11
277.861484
21
131.812716
0
LINE
8
0
10
277.862000
20
131.813000
11
277.737752
21
131.386984
0
LINE
8
0
10
277.738000
20
131.387000
11
277.364806
21
131.083084
0
LINE
8
0
10
277.364000
20
131.083000
11
276.814673
21
130.974637
0
LINE
8
0
10
276.815000
20
130.974000
11
276.225509
21
131.074962
0
LINE
8
0
10
276.226000
20
131.075000
11
275.830660
21
131.386838
0
LINE
8
0
10
275.830000
20
131.387000
11
275.677494
21
131.858066
0
LINE
8
0
10
275.678000
20
131.857000
11
276.058206
21
131.891396
0
LINE
8
0
10
276.058000
20
131.891000
11
276.270407
21
131.463569
0
LINE
8
0
10
276.270000
20
131.464000
11
276.794430
21
131.324464
0
LINE
8
0
10
276.795000
20
131.324000
11
277.318398
21
131.461752
0
LINE
8
0
10
277.318000
20
131.462000
11
277.479237
21
131.782003
0
LINE
8
0
10
277.479000
20
131.782000
11
277.359435
21
132.046734
0
LINE
8
0
10
277.360000
20
132.047000
11
276.759132
21
132.254253
0
LINE
8
0
10
276.759000
20
132.254000
11
276.092886
21
132.438025
0
LINE
8
0
10
276.093000
20
132.438000
11
275.702872
21
132.739664
0
LINE
8
0
10
275.703000
20
132.740000
11
275.573513
21
133.165272
0
LINE
8
0
10
275.573000
20
133.165000
11
275.705133
21
133.617709
0
LINE
8
0
10
275.705000
20
133.618000
11
276.095286
21
133.951777
0
LINE
8
0
10
276.096000
20
133.951000
11
276.672764
21
134.075015
0
LINE
8
0
10
276.673000
20
134.075000
11
277.356735
21
133.963817
0
LINE
8
0
10
277.356000
20
133.964000
11
277.791689
21
133.611673
0
LINE
8
0
10
277.792000
20
133.612000
11
277.962656
21
133.074624
0
LINE
8
0
10
274.498000
20
134.001000
11
275.326939
21
131.008570
0
LINE
8
0
10
275.327000
20
131.008000
11
274.919807
21
131.005354
0
LINE
8
0
10
274.920000
20
131.006000
11
274.441899
21
132.966560
0
LINE
8
0
10
274.442000
20
132.966000
11
274.308386
21
133.578483
0
LINE
8
0
10
274.308000
20
133.579000
11
274.179042
21
133.022979
0
LINE
8
0
10
274.179000
20
133.022000
11
273.630255
21
130.990000
0
LINE
8
0
10
273.630000
20
130.990000
11
273.151105
21
130.984708
0
LINE
8
0
10
273.152000
20
130.984000
11
272.705648
21
132.497410
0
LINE
8
0
10
272.705000
20
132.499000
11
272.460049
21
133.558440
0
LINE
8
0
10
272.460000
20
133.558000
11
272.317787
21
132.903602
0
LINE
8
0
10
272.318000
20
132.905000
11
271.868473
21
130.970900
0
LINE
8
0
10
271.869000
20
130.971000
11
271.470009
21
130.965708
0
LINE
8
0
10
271.470000
20
130.966000
11
272.259780
21
133.976950
0
LINE
8
0
10
272.259000
20
133.977000
11
272.641587
21
133.979646
0
LINE
8
0
10
272.642000
20
133.979000
11
273.299489
21
131.700940
0
LINE
8
0
10
273.299000
20
131.701000
11
273.397001
21
131.350078
0
LINE
8
0
10
273.397000
20
131.350000
11
273.481111
21
131.702925
0
LINE
8
0
10
273.482000
20
131.704000
11
274.093187
21
133.995290
0
LINE
8
0
10
274.093000
20
133.995000
11
274.498341
21
134.000292
0
LINE
8
0
10
270.999000
20
133.961000
11
271.031808
21
130.963270
0
LINE
8
0
10
271.032000
20
130.963000
11
270.635125
21
130.957708
0
LINE
8
0
10
270.635000
20
130.958000
11
270.601927
21
133.958370
0
LINE
8
0
10
270.602000
20
133.958000
11
270.999139
21
133.960646
0
LINE
8
0
10
269.139000
20
133.942000
11
269.168104
21
131.296170
0
LINE
8
0
10
269.168000
20
131.297000
11
270.156482
21
131.307583
0
LINE
8
0
10
270.156000
20
131.307000
11
270.159969
21
130.952459
0
LINE
8
0
10
270.160000
20
130.953000
11
267.782190
21
130.926542
0
LINE
8
0
10
267.782000
20
130.926000
11
267.778031
21
131.280541
0
LINE
8
0
10
267.778000
20
131.281000
11
268.770451
21
131.291583
0
LINE
8
0
10
268.771000
20
131.291000
11
268.741896
21
133.936830
0
LINE
8
0
10
268.742000
20
133.937000
11
269.138874
21
133.942292
0
LINE
8
0
10
265.213000
20
132.847000
11
264.815067
21
132.942250
0
LINE
8
0
10
264.815000
20
132.942000
11
265.255954
21
133.692797
0
LINE
8
0
10
265.256000
20
133.693000
11
266.046124
21
133.958522
0
LINE
8
0
10
266.046000
20
133.959000
11
266.836997
21
133.770207
0
LINE
8
0
10
266.837000
20
133.770000
11
267.305735
21
133.203155
0
LINE
8
0
10
267.306000
20
133.203000
11
267.473428
21
132.400565
0
LINE
8
0
10
267.473000
20
132.400000
11
267.302926
21
131.580549
0
LINE
8
0
10
267.303000
20
131.581000
11
266.799313
21
131.045421
0
LINE
8
0
10
266.800000
20
131.045000
11
266.074540
21
130.855908
0
LINE
8
0
10
266.074000
20
130.856000
11
265.314382
21
131.076858
0
LINE
8
0
10
265.315000
20
131.077000
11
264.880237
21
131.716870
0
LINE
8
0
10
264.880000
20
131.717000
11
265.269731
21
131.812250
0
LINE
8
0
10
265.270000
20
131.813000
11
265.578080
21
131.339550
0
LINE
8
0
10
265.578000
20
131.340000
11
266.078935
21
131.196112
0
LINE
8
0
10
266.079000
20
131.196000
11
266.655235
21
131.368101
0
LINE
8
0
10
266.655000
20
131.368000
11
266.976495
21
131.816651
0
LINE
8
0
10
266.976000
20
131.817000
11
267.063789
21
132.394056
0
LINE
8
0
10
267.064000
20
132.394000
11
266.945123
21
133.060879
0
LINE
8
0
10
266.945000
20
133.061000
11
266.593475
21
133.483830
0
LINE
8
0
10
266.594000
20
133.484000
11
266.082931
21
133.619591
0
LINE
8
0
10
266.083000
20
133.619000
11
265.520364
21
133.420444
0
LINE
8
0
10
265.520000
20
133.421000
11
265.213190
21
132.846654
0
LINE
8
0
10
264.303000
20
133.889000
11
264.336073
21
130.888630
0
LINE
8
0
10
264.336000
20
130.889000
11
263.938861
21
130.883708
0
LINE
8
0
10
263.939000
20
130.884000
11
263.925506
21
132.116960
0
LINE
8
0
10
263.926000
20
132.117000
11
262.366810
21
132.098479
0
LINE
8
0
10
262.367000
20
132.098000
11
262.380494
21
130.867690
0
LINE
8
0
10
262.380000
20
130.868000
11
261.983125
21
130.862708
0
LINE
8
0
10
261.983000
20
130.863000
11
261.949927
21
133.863370
0
LINE
8
0
10
261.950000
20
133.863000
11
262.347139
21
133.865646
0
LINE
8
0
10
262.347000
20
133.866000
11
262.362346
21
132.453130
0
LINE
8
0
10
263.922000
20
132.469000
11
263.906390
21
133.884520
0
LINE
8
0
10
263.907000
20
133.884000
11
264.303875
21
133.889292
0
LINE
8
0
10
230.969000
20
133.154000
11
229.816740
21
130.153630
0
LINE
8
0
10
229.816000
20
130.154000
11
229.389000
21
130.154000
0
LINE
8
0
10
229.389000
20
130.154000
11
228.161070
21
133.154370
0
LINE
8
0
10
228.161000
20
133.154000
11
228.613000
21
133.154000
0
LINE
8
0
10
228.613000
20
133.154000
11
228.963043
21
132.246480
0
LINE
8
0
10
228.963000
20
132.246000
11
230.217000
21
132.246000
0
LINE
8
0
10
230.217000
20
132.246000
11
230.546406
21
133.153520
0
LINE
8
0
10
230.547000
20
133.154000
11
230.969000
21
133.154000
0
LINE
8
0
10
230.103000
20
131.924000
11
229.086000
21
131.924000
0
LINE
8
0
10
229.086000
20
131.924000
11
229.399002
21
131.093209
0
LINE
8
0
10
229.399000
20
131.092000
11
229.611823
21
130.469899
0
LINE
8
0
10
229.612000
20
130.470000
11
229.773663
21
131.042986
0
LINE
8
0
10
229.773000
20
131.043000
11
230.102406
21
131.924061
0
LINE
8
0
10
225.703000
20
132.104000
11
225.306126
21
132.204542
0
LINE
8
0
10
225.306000
20
132.203000
11
225.755180
21
132.948907
0
LINE
8
0
10
225.755000
20
132.949000
11
226.547974
21
133.205820
0
LINE
8
0
10
226.548000
20
133.206000
11
227.336881
21
133.008523
0
LINE
8
0
10
227.337000
20
133.008000
11
227.799483
21
132.436038
0
LINE
8
0
10
227.800000
20
132.436000
11
227.958594
21
131.631771
0
LINE
8
0
10
227.958000
20
131.632000
11
227.778941
21
130.814470
0
LINE
8
0
10
227.779000
20
130.815000
11
227.269453
21
130.284987
0
LINE
8
0
10
227.270000
20
130.285000
11
226.542511
21
130.103896
0
LINE
8
0
10
226.542000
20
130.103000
11
225.784838
21
130.332195
0
LINE
8
0
10
225.785000
20
130.333000
11
225.357307
21
130.977609
0
LINE
8
0
10
225.357000
20
130.976000
11
225.747789
21
131.068604
0
LINE
8
0
10
225.748000
20
131.069000
11
226.050866
21
130.592192
0
LINE
8
0
10
226.051000
20
130.593000
11
226.550318
21
130.443614
0
LINE
8
0
10
226.550000
20
130.443000
11
227.128101
21
130.608759
0
LINE
8
0
10
227.128000
20
130.609000
11
227.454400
21
131.054087
0
LINE
8
0
10
227.455000
20
131.054000
11
227.549133
21
131.630058
0
LINE
8
0
10
227.549000
20
131.630000
11
227.437470
21
132.298144
0
LINE
8
0
10
227.437000
20
132.298000
11
227.090140
21
132.724669
0
LINE
8
0
10
227.091000
20
132.725000
11
226.581450
21
132.866200
0
LINE
8
0
10
226.581000
20
132.866000
11
226.016200
21
132.673640
0
LINE
8
0
10
226.016000
20
132.674000
11
225.702903
21
132.103062
0
LINE
8
0
10
223.585000
20
133.154000
11
223.585000
21
130.154000
0
LINE
8
0
10
223.585000
20
130.154000
11
223.188000
21
130.154000
0
LINE
8
0
10
223.188000
20
130.154000
11
223.188000
21
133.154000
0
LINE
8
0
10
223.188000
20
133.154000
11
223.585000
21
133.154000
0
LINE
8
0
10
222.492000
20
133.154000
11
222.492000
21
130.154000
0
LINE
8
0
10
222.492000
20
130.154000
11
222.085000
21
130.154000
0
LINE
8
0
10
222.085000
20
130.154000
11
220.509140
21
132.511430
0
LINE
8
0
10
220.509000
20
132.511000
11
220.509000
21
130.154000
0
LINE
8
0
10
220.509000
20
130.154000
11
220.129000
21
130.154000
0
LINE
8
0
10
220.129000
20
130.154000
11
220.129000
21
133.154000
0
LINE
8
0
10
220.129000
20
133.154000
11
220.536000
21
133.154000
0
LINE
8
0
10
220.536000
20
133.154000
11
222.111590
21
130.796570
0
LINE
8
0
10
222.112000
20
130.797000
11
222.112000
21
133.154000
0
LINE
8
0
10
222.112000
20
133.154000
11
222.492000
21
133.154000
0
LINE
8
0
10
281.764000
20
106.137000
11
281.767969
21
103.136630
0
LINE
8
0
10
281.768000
20
103.136000
11
279.598950
21
103.133354
0
LINE
8
0
10
279.598000
20
103.133000
11
279.598000
21
103.485000
0
LINE
8
0
10
279.598000
20
103.485000
11
281.370180
21
103.487646
0
LINE
8
0
10
281.370000
20
103.488000
11
281.370000
21
104.409000
0
LINE
8
0
10
281.369000
20
104.409000
11
279.709540
21
104.406354
0
LINE
8
0
10
279.709000
20
104.406000
11
279.709000
21
104.758000
0
LINE
8
0
10
279.709000
20
104.758000
11
281.368460
21
104.760646
0
LINE
8
0
10
281.368000
20
104.761000
11
281.368000
21
105.782000
0
LINE
8
0
10
281.367000
20
105.782000
11
279.525240
21
105.779354
0
LINE
8
0
10
279.525000
20
105.779000
11
279.525000
21
106.131000
0
LINE
8
0
10
279.525000
20
106.131000
11
281.763900
21
106.136292
0
LINE
8
0
10
279.113000
20
105.168000
11
278.738615
21
105.133604
0
LINE
8
0
10
278.738000
20
105.135000
11
278.613699
21
105.504202
0
LINE
8
0
10
278.614000
20
105.504000
11
278.311820
21
105.736870
0
LINE
8
0
10
278.312000
20
105.737000
11
277.851440
21
105.825384
0
LINE
8
0
10
277.851000
20
105.825000
11
277.450024
21
105.756915
0
LINE
8
0
10
277.450000
20
105.757000
11
277.191370
21
105.571448
0
LINE
8
0
10
277.192000
20
105.572000
11
277.107439
21
105.315061
0
LINE
8
0
10
277.107000
20
105.315000
11
277.189180
21
105.068525
0
LINE
8
0
10
277.189000
20
105.068000
11
277.459377
21
104.891359
0
LINE
8
0
10
277.460000
20
104.892000
11
277.994299
21
104.746421
0
LINE
8
0
10
277.994000
20
104.746000
11
278.573384
21
104.559554
0
LINE
8
0
10
278.573000
20
104.560000
11
278.893648
21
104.281111
0
LINE
8
0
10
278.894000
20
104.281000
11
278.999913
21
103.907681
0
LINE
8
0
10
279.000000
20
103.907000
11
278.871651
21
103.482199
0
LINE
8
0
10
278.871000
20
103.483000
11
278.494895
21
103.182685
0
LINE
8
0
10
278.495000
20
103.182000
11
277.944667
21
103.078921
0
LINE
8
0
10
277.945000
20
103.079000
11
277.356514
21
103.185624
0
LINE
8
0
10
277.357000
20
103.186000
11
276.964676
21
103.501626
0
LINE
8
0
10
276.964000
20
103.501000
11
276.816019
21
103.973511
0
LINE
8
0
10
276.816000
20
103.975000
11
277.196735
21
104.004104
0
LINE
8
0
10
277.197000
20
104.003000
11
277.405306
21
103.573547
0
LINE
8
0
10
277.405000
20
103.574000
11
277.928054
21
103.429427
0
LINE
8
0
10
277.928000
20
103.429000
11
278.452695
21
103.561717
0
LINE
8
0
10
278.453000
20
103.562000
11
278.617306
21
103.880439
0
LINE
8
0
10
278.617000
20
103.880000
11
278.500001
21
104.145869
0
LINE
8
0
10
278.500000
20
104.146000
11
277.901116
21
104.359021
0
LINE
8
0
10
277.901000
20
104.359000
11
277.236685
21
104.549420
0
LINE
8
0
10
277.237000
20
104.550000
11
276.849836
21
104.855400
0
LINE
8
0
10
276.850000
20
104.855000
11
276.724561
21
105.281500
0
LINE
8
0
10
276.724000
20
105.281000
11
276.860498
21
105.732416
0
LINE
8
0
10
276.861000
20
105.733000
11
277.254461
21
106.063009
0
LINE
8
0
10
277.254000
20
106.063000
11
277.831955
21
106.181464
0
LINE
8
0
10
277.832000
20
106.181000
11
278.514624
21
106.063250
0
LINE
8
0
10
278.515000
20
106.064000
11
278.947276
21
105.707501
0
LINE
8
0
10
278.947000
20
105.707000
11
279.112470
21
105.168007
0
LINE
8
0
10
275.418000
20
106.126000
11
275.421704
21
103.480170
0
LINE
8
0
10
275.421000
20
103.480000
11
276.409482
21
103.482646
0
LINE
8
0
10
276.410000
20
103.483000
11
276.410000
21
103.128000
0
LINE
8
0
10
276.410000
20
103.128000
11
274.031930
21
103.125354
0
LINE
8
0
10
274.032000
20
103.126000
11
274.031735
21
103.480541
0
LINE
8
0
10
274.032000
20
103.480000
11
275.024000
21
103.480000
0
LINE
8
0
10
275.024000
20
103.480000
11
275.020296
21
106.125830
0
LINE
8
0
10
275.021000
20
106.126000
11
275.418000
21
106.126000
0
LINE
8
0
10
273.819000
20
104.664000
11
273.719133
21
103.998021
0
LINE
8
0
10
273.719133
20
103.998021
11
273.419533
21
103.493940
0
LINE
8
0
10
273.420000
20
103.493000
11
272.961028
21
103.175434
0
LINE
8
0
10
272.961028
20
103.175434
11
272.385110
21
103.068995
0
LINE
8
0
10
272.385000
20
103.069000
11
271.635754
21
103.266469
0
LINE
8
0
10
271.636000
20
103.267000
11
271.126704
21
103.819844
0
LINE
8
0
10
271.126000
20
103.820000
11
270.949920
21
104.625010
0
LINE
8
0
10
270.950000
20
104.625000
11
271.133065
21
105.441760
0
LINE
8
0
10
271.133000
20
105.442000
11
271.654070
21
105.988081
0
LINE
8
0
10
271.655000
20
105.988000
11
272.383265
21
106.174200
0
LINE
8
0
10
272.383000
20
106.174000
11
273.140448
21
105.970406
0
LINE
8
0
10
273.140000
20
105.970000
11
273.646227
21
105.412034
0
LINE
8
0
10
273.646000
20
105.412000
11
273.818905
21
104.663262
0
LINE
8
0
10
273.410000
20
104.669000
11
273.336803
21
105.153637
0
LINE
8
0
10
273.336803
20
105.153637
11
273.117212
21
105.522963
0
LINE
8
0
10
273.117000
20
105.523000
11
272.787991
21
105.756602
0
LINE
8
0
10
272.787991
20
105.756602
11
272.385005
21
105.834065
0
LINE
8
0
10
272.385000
20
105.834000
11
271.976603
21
105.754695
0
LINE
8
0
10
271.976603
20
105.754695
11
271.647713
21
105.517839
0
LINE
8
0
10
271.648000
20
105.518000
11
271.431346
21
105.136562
0
LINE
8
0
10
271.431346
20
105.136562
11
271.359657
21
104.623334
0
LINE
8
0
10
271.360000
20
104.623000
11
271.484698
21
103.983678
0
LINE
8
0
10
271.484000
20
103.984000
11
271.846796
21
103.560897
0
LINE
8
0
10
271.847000
20
103.561000
11
272.382331
21
103.411328
0
LINE
8
0
10
272.383000
20
103.411000
11
272.775039
21
103.483905
0
LINE
8
0
10
272.775039
20
103.483905
11
273.108037
21
103.701562
0
LINE
8
0
10
273.108000
20
103.702000
11
273.335389
21
104.088825
0
LINE
8
0
10
273.335389
20
104.088825
11
273.410551
21
104.669334
0
LINE
8
0
10
270.437000
20
106.121000
11
270.441233
21
103.120630
0
LINE
8
0
10
270.441000
20
103.120000
11
269.309380
21
103.117354
0
LINE
8
0
10
269.309000
20
103.118000
11
268.852621
21
103.146019
0
LINE
8
0
10
268.853000
20
103.146000
11
268.482399
21
103.285665
0
LINE
8
0
10
268.482000
20
103.286000
11
268.241150
21
103.575232
0
LINE
8
0
10
268.241000
20
103.575000
11
268.149375
21
103.984151
0
LINE
8
0
10
268.150000
20
103.984000
11
268.392623
21
104.632014
0
LINE
8
0
10
268.392000
20
104.633000
11
268.733471
21
104.832226
0
LINE
8
0
10
268.733471
20
104.832226
11
269.271580
21
104.899221
0
LINE
8
0
10
269.272000
20
104.898000
11
270.041407
21
104.900646
0
LINE
8
0
10
270.041000
20
104.901000
11
270.038354
21
106.120730
0
LINE
8
0
10
270.040000
20
106.121000
11
270.437000
21
106.121000
0
LINE
8
0
10
270.042000
20
104.546000
11
269.266243
21
104.543354
0
LINE
8
0
10
269.266000
20
104.545000
11
268.719795
21
104.401001
0
LINE
8
0
10
268.720000
20
104.401000
11
268.558895
21
103.997641
0
LINE
8
0
10
268.559000
20
103.997000
11
268.654620
21
103.674825
0
LINE
8
0
10
268.655000
20
103.675000
11
268.905904
21
103.498335
0
LINE
8
0
10
268.906000
20
103.498000
11
269.276443
21
103.471912
0
LINE
8
0
10
269.276000
20
103.472000
11
270.043000
21
103.472000
0
LINE
8
0
10
270.043000
20
103.472000
11
270.043000
21
104.546000
0
LINE
8
0
10
280.016000
20
111.697000
11
280.532916
21
110.797301
0
LINE
8
0
10
280.533000
20
110.798000
11
280.745248
21
109.730080
0
LINE
8
0
10
280.746000
20
109.730000
11
280.589711
21
108.796633
0
LINE
8
0
10
280.589000
20
108.796000
11
280.021522
21
107.763840
0
LINE
8
0
10
280.022000
20
107.764000
11
279.758000
21
107.764000
0
LINE
8
0
10
279.758000
20
107.764000
11
280.084575
21
108.372226
0
LINE
8
0
10
280.084000
20
108.372000
11
280.279659
21
108.961629
0
LINE
8
0
10
280.280000
20
108.962000
11
280.366915
21
109.731561
0
LINE
8
0
10
280.367000
20
109.731000
11
280.213357
21
110.714586
0
LINE
8
0
10
280.213357
20
110.714586
11
279.752427
21
111.696730
0
LINE
8
0
10
279.752000
20
111.698000
11
280.016000
21
111.698000
0
LINE
8
0
10
279.273000
20
110.814000
11
279.276969
21
107.813630
0
LINE
8
0
10
279.277000
20
107.814000
11
277.946940
21
107.811354
0
LINE
8
0
10
277.947000
20
107.812000
11
277.337083
21
107.891991
0
LINE
8
0
10
277.337000
20
107.892000
11
277.003043
21
108.177011
0
LINE
8
0
10
277.003000
20
108.177000
11
276.877535
21
108.629077
0
LINE
8
0
10
276.877000
20
108.630000
11
277.082951
21
109.168485
0
LINE
8
0
10
277.083000
20
109.168000
11
277.721095
21
109.447188
0
LINE
8
0
10
277.721000
20
109.447000
11
277.481367
21
109.596055
0
LINE
8
0
10
277.482000
20
109.596000
11
277.151986
21
109.994589
0
LINE
8
0
10
277.152000
20
109.994000
11
276.629184
21
110.811561
0
LINE
8
0
10
276.629000
20
110.812000
11
277.128000
21
110.812000
0
LINE
8
0
10
277.128000
20
110.812000
11
277.525933
21
110.187584
0
LINE
8
0
10
277.526000
20
110.188000
11
277.813046
21
109.775026
0
LINE
8
0
10
277.813000
20
109.775000
11
278.014850
21
109.574734
0
LINE
8
0
10
278.015000
20
109.574000
11
278.196213
21
109.494440
0
LINE
8
0
10
278.196000
20
109.495000
11
278.417033
21
109.480977
0
LINE
8
0
10
278.417000
20
109.481000
11
278.877000
21
109.481000
0
LINE
8
0
10
278.877000
20
109.481000
11
278.874354
21
110.814500
0
LINE
8
0
10
278.876000
20
110.814000
11
279.273000
21
110.814000
0
LINE
8
0
10
278.878000
20
109.137000
11
278.025000
21
109.137000
0
LINE
8
0
10
278.025000
20
109.137000
11
277.599418
21
109.080139
0
LINE
8
0
10
277.599000
20
109.080000
11
277.365955
21
108.899597
0
LINE
8
0
10
277.366000
20
108.899000
11
277.286572
21
108.629792
0
LINE
8
0
10
277.287000
20
108.630000
11
277.441993
21
108.280279
0
LINE
8
0
10
277.442000
20
108.280000
11
277.930235
21
108.143568
0
LINE
8
0
10
277.930000
20
108.145000
11
278.879000
21
108.145000
0
LINE
8
0
10
278.879000
20
108.145000
11
278.879000
21
109.137000
0
LINE
8
0
10
276.244000
20
110.809000
11
276.248233
21
107.811270
0
LINE
8
0
10
276.248000
20
107.811000
11
274.078680
21
107.805708
0
LINE
8
0
10
274.079000
20
107.806000
11
274.079000
21
108.161000
0
LINE
8
0
10
274.078000
20
108.161000
11
275.850180
21
108.163646
0
LINE
8
0
10
275.851000
20
108.163000
11
275.848354
21
109.081103
0
LINE
8
0
10
275.849000
20
109.081000
11
274.190000
21
109.081000
0
LINE
8
0
10
274.190000
20
109.081000
11
274.190000
21
109.433000
0
LINE
8
0
10
274.189000
20
109.433000
11
275.849000
21
109.433000
0
LINE
8
0
10
275.849000
20
109.433000
11
275.846354
21
110.454290
0
LINE
8
0
10
275.847000
20
110.455000
11
274.005240
21
110.452354
0
LINE
8
0
10
274.006000
20
110.452000
11
274.005735
21
110.806541
0
LINE
8
0
10
274.005000
20
110.806000
11
276.243640
21
110.808646
0
LINE
8
0
10
271.184000
20
110.482000
11
270.674069
21
110.759606
0
LINE
8
0
10
270.674000
20
110.759000
11
270.790417
21
111.036812
0
LINE
8
0
10
270.790000
20
111.036000
11
271.435106
21
110.668542
0
LINE
8
0
10
271.435000
20
110.668000
11
272.171467
21
110.855235
0
LINE
8
0
10
272.172000
20
110.856000
11
272.911007
21
110.660566
0
LINE
8
0
10
272.911000
20
110.660000
11
273.422333
21
110.108180
0
LINE
8
0
10
273.422000
20
110.108000
11
273.602155
21
109.306067
0
LINE
8
0
10
273.602000
20
109.306000
11
273.423036
21
108.497432
0
LINE
8
0
10
273.423000
20
108.498000
11
272.911138
21
107.942725
0
LINE
8
0
10
272.911000
20
107.943000
11
272.167416
21
107.751659
0
LINE
8
0
10
272.168000
20
107.751000
11
271.418754
21
107.947445
0
LINE
8
0
10
271.419000
20
107.948000
11
270.909704
21
108.499822
0
LINE
8
0
10
270.909000
20
108.500000
11
270.732946
21
109.300917
0
LINE
8
0
10
270.733000
20
109.300000
11
270.844628
21
109.966252
0
LINE
8
0
10
270.845000
20
109.967000
11
271.183984
21
110.482133
0
LINE
8
0
10
272.058000
20
109.976000
11
271.490761
21
110.261713
0
LINE
8
0
10
271.491000
20
110.261000
11
271.229102
21
109.861082
0
LINE
8
0
10
271.229102
20
109.861082
11
271.142385
21
109.300765
0
LINE
8
0
10
271.142000
20
109.301000
11
271.266698
21
108.664747
0
LINE
8
0
10
271.267000
20
108.665000
11
271.629796
21
108.242921
0
LINE
8
0
10
271.630000
20
108.243000
11
272.165331
21
108.093328
0
LINE
8
0
10
272.165000
20
108.093000
11
272.571096
21
108.169490
0
LINE
8
0
10
272.571096
20
108.169490
11
272.901282
21
108.397903
0
LINE
8
0
10
272.902000
20
108.398000
11
273.120942
21
108.777140
0
LINE
8
0
10
273.120942
20
108.777140
11
273.193359
21
109.305975
0
LINE
8
0
10
273.193000
20
109.306000
11
273.120299
21
109.823121
0
LINE
8
0
10
273.120299
20
109.823121
11
272.902197
21
110.203960
0
LINE
8
0
10
272.902000
20
110.204000
11
272.571959
21
110.438368
0
LINE
8
0
10
272.571959
20
110.438368
11
272.161803
21
110.516078
0
LINE
8
0
10
272.162000
20
110.516000
11
271.761024
21
110.435636
0
LINE
8
0
10
271.761000
20
110.436000
11
272.154144
21
110.264648
0
LINE
8
0
10
272.154000
20
110.264000
11
272.058221
21
109.975605
0
LINE
8
0
10
270.002000
20
111.685000
11
270.265000
21
111.685000
0
LINE
8
0
10
270.265000
20
111.684000
11
269.807463
21
110.700592
0
LINE
8
0
10
269.807463
20
110.700592
11
269.655851
21
109.716580
0
LINE
8
0
10
269.656000
20
109.716000
11
269.745059
21
108.952821
0
LINE
8
0
10
269.745000
20
108.953000
11
269.940209
21
108.363911
0
LINE
8
0
10
269.940000
20
108.364000
11
270.270305
21
107.750541
0
LINE
8
0
10
270.271000
20
107.750000
11
270.007000
21
107.750000
0
LINE
8
0
10
270.007000
20
107.750000
11
269.436691
21
108.780590
0
LINE
8
0
10
269.437000
20
108.781000
11
269.278144
21
109.713930
0
LINE
8
0
10
269.278000
20
109.714000
11
269.488317
21
110.782500
0
LINE
8
0
10
269.488000
20
110.782000
11
270.001423
21
111.683117
0
LINE
8
0
10
275.561000
20
84.690300
11
275.561000
21
81.692500
0
LINE
8
0
10
275.561000
20
81.692500
11
274.429000
21
81.692500
0
LINE
8
0
10
274.429000
20
81.691500
11
273.972647
21
81.720149
0
LINE
8
0
10
273.972000
20
81.720100
11
273.601610
21
81.860279
0
LINE
8
0
10
273.602000
20
81.860300
11
273.361547
21
82.149862
0
LINE
8
0
10
273.362000
20
82.149900
11
273.270931
21
82.559176
0
LINE
8
0
10
273.271000
20
82.559200
11
273.514522
21
83.206881
0
LINE
8
0
10
273.514000
20
83.206800
11
273.855749
21
83.405554
0
LINE
8
0
10
273.855749
20
83.405554
11
274.393950
21
83.471806
0
LINE
8
0
10
274.394000
20
83.470500
11
275.163000
21
83.470500
0
LINE
8
0
10
275.163000
20
83.470500
11
275.163000
21
84.690300
0
LINE
8
0
10
275.163000
20
84.690300
11
275.561000
21
84.690300
0
LINE
8
0
10
275.163000
20
83.118700
11
274.388000
21
83.118700
0
LINE
8
0
10
274.388000
20
83.117800
11
273.841610
21
82.974552
0
LINE
8
0
10
273.842000
20
82.974600
11
273.680340
21
82.571463
0
LINE
8
0
10
273.680000
20
82.571400
11
273.775171
21
82.249096
0
LINE
8
0
10
273.775000
20
82.249100
11
274.025666
21
82.072086
0
LINE
8
0
10
274.026000
20
82.072100
11
274.396416
21
82.045499
0
LINE
8
0
10
274.396000
20
82.044400
11
275.163000
21
82.044400
0
LINE
8
0
10
275.163000
20
82.044400
11
275.163000
21
83.118700
0
LINE
8
0
10
270.625000
20
83.639900
11
270.228125
21
83.740442
0
LINE
8
0
10
270.228000
20
83.739900
11
270.677183
21
84.485807
0
LINE
8
0
10
270.677000
20
84.485800
11
271.469982
21
84.742620
0
LINE
8
0
10
271.470000
20
84.742700
11
272.258881
21
84.545226
0
LINE
8
0
10
272.259000
20
84.545200
11
272.721491
21
83.973235
0
LINE
8
0
10
272.721000
20
83.973200
11
272.879591
21
83.168971
0
LINE
8
0
10
272.880000
20
83.169000
11
272.700930
21
82.351470
0
LINE
8
0
10
272.701000
20
82.351500
11
272.191466
21
81.821487
0
LINE
8
0
10
272.191000
20
81.821400
11
271.463503
21
81.640296
0
LINE
8
0
10
271.464000
20
81.640300
11
270.706843
21
81.869495
0
LINE
8
0
10
270.706000
20
81.869500
11
270.278302
21
82.514112
0
LINE
8
0
10
270.279000
20
82.515400
11
270.669789
21
82.605358
0
LINE
8
0
10
270.670000
20
82.606200
11
270.972868
21
82.129395
0
LINE
8
0
10
270.973000
20
82.129400
11
271.472295
21
81.980014
0
LINE
8
0
10
271.472000
20
81.980000
11
272.050114
21
82.145756
0
LINE
8
0
10
272.050000
20
82.145800
11
272.376390
21
82.590889
0
LINE
8
0
10
272.376000
20
82.590900
11
272.470139
21
83.166955
0
LINE
8
0
10
272.470000
20
83.166900
11
272.358478
21
83.835044
0
LINE
8
0
10
272.359000
20
83.835100
11
272.012132
21
84.261772
0
LINE
8
0
10
272.012000
20
84.261800
11
271.502466
21
84.403000
0
LINE
8
0
10
271.503000
20
84.403000
11
270.938195
21
84.210640
0
LINE
8
0
10
270.938000
20
84.210600
11
270.624892
21
83.639659
 0 
ENDSEC
 0 
EOF